<svg xmlns="http://www.w3.org/2000/svg" width="921.831" height="242.998" viewBox="0 0 921.831 242.998">
  <path id="Union_1" data-name="Union 1" d="M2542.729,489.729c-.174-1.655.437-3.811,2.691-8.23,2.767-5.519,5.391-10.4,8.037-15.066-5.748,1.022-10.9,1.772-14.828,2.185-5.585.588-7.948,0-9.548-1.3-1.372-1.111-1.872-1.895-1.959-2.722a.953.953,0,0,1,.948-.937c9.929-1.043,20.207-2.751,29.428-4.557,6.012-10.462,11.021-18.518,14.669-25.593.512-1.1,1.067-1.786,1.688-1.85,1.241-.131,2.993,2.613,3.189,4.475.175,1.655-.414,4.018-2.69,8.23-1.928,3.549-4.2,7.762-7.221,12.889,5.749-1.022,11.083-2,15.428-2.458,2.689-.283,5.052.306,6.195,1.231a6.084,6.084,0,0,1,2.068,3.757c.086.827-.512,1.1-1.753,1.229-8.482.892-17.725,2.491-26.369,3.818-3.9,6.684-8.5,14.7-13.908,24.886-1.557,3.091-1.905,3.756-3.146,3.886a1.025,1.025,0,0,1-.108.006C2544.5,493.61,2542.982,492.126,2542.729,489.729Zm389.662-11.606a13.639,13.639,0,0,1-10.509-8.113l-1.233-3.381-.471-1.706a47.886,47.886,0,0,1-1.34-7.175,41.858,41.858,0,0,1,.208-10.556,143.3,143.3,0,0,1,9.365-33.221q-4.485,3.413-9.079,6.709a567.783,567.783,0,0,1-52.443,34.189,195.543,195.543,0,0,1-33.986,16.3,71.223,71.223,0,0,1-13.435,3.021q-8.843.783-13.847-3.666a21.311,21.311,0,0,1-6.624-10.13,12.005,12.005,0,0,1-.563-2.574l-.122-1.158a35.229,35.229,0,0,1,3.46-19.969l.6-1.233a.95.95,0,0,1,.389-.48,1.12,1.12,0,0,0-.449-.1l-.145.015c-.193.021-.284.079-.274.176a.129.129,0,0,0-.13.16,127.7,127.7,0,0,0-36.624,32.964,18.289,18.289,0,0,0-1.493,2.5l-.892,1.264a5.938,5.938,0,0,1-1.173,1.367,2.419,2.419,0,0,1-1.265.5,4.263,4.263,0,0,1-1.028-.038,3.5,3.5,0,0,1-2.019-1.105,6.459,6.459,0,0,1-1.081-1.934,10.259,10.259,0,0,1-.823-2.255,20.454,20.454,0,0,1-.639-3.3,17.8,17.8,0,0,1-.045-3.214,83.62,83.62,0,0,1,3.5-18.218q2.065-6.607,4.5-13.009-8,6.023-16.179,11.9a299.575,299.575,0,0,1-37.689,22.835,92.123,92.123,0,0,1-23.528,8.618,18.763,18.763,0,0,1-2.3.388,21.1,21.1,0,0,1-5.43-.161q-8.493-1.449-11.293-11.4a39.9,39.9,0,0,1-.777-4.6,31.362,31.362,0,0,1,3.141-17.448,37.726,37.726,0,0,1,16.546-17.979,17.512,17.512,0,0,1,6.52-2,20.38,20.38,0,0,1,3.359-.06q5.172.481,6.176,4.472a10.634,10.634,0,0,1,.328,1.721,17.531,17.531,0,0,1-5.151,12.246.837.837,0,0,1-.548.35q-.435.046-.785-.5l-.67-.807a7.627,7.627,0,0,1-1.355-1.76l-.176-.274-.031-.29a.594.594,0,0,1,.1-.449,4.778,4.778,0,0,1,.663-.655,4.821,4.821,0,0,0,.662-.654,19.859,19.859,0,0,0,2.515-6.7.419.419,0,0,0,.114-.3,2.422,2.422,0,0,0,.068-.739c-.021-.194-.035-.338-.046-.435a2.268,2.268,0,0,0-.495-.533,1.113,1.113,0,0,0-.449-.1l-.145.015-.548.35a1.714,1.714,0,0,0-.4.335,42.355,42.355,0,0,0-17.7,19.563,35.445,35.445,0,0,0-4.115,16.527l-.053.884a12.5,12.5,0,0,0,.357,2.011q1.621,5.682,8.567,4.952a65.966,65.966,0,0,0,12.8-3.54,193.091,193.091,0,0,0,34.093-18.068q18.372-11.734,35.274-24.923a1.714,1.714,0,0,0,.4-.335.946.946,0,0,1,.388-.48l.29-.031a.99.99,0,0,1,.687.163A216.781,216.781,0,0,1,2779.76,395.7a263.634,263.634,0,0,1,24.13-34.535,263.039,263.039,0,0,1-28.406,17.692,61.747,61.747,0,0,1-16.33,6.106,14.4,14.4,0,0,1-2.011.358,19.422,19.422,0,0,1-4.1-.009,14.948,14.948,0,0,1-8.655-3.7,15.293,15.293,0,0,1-4.809-7.468l-.4-.983a23.5,23.5,0,0,1-.418-2.589,25.36,25.36,0,0,1,.168-6.748,1.184,1.184,0,0,0,.2-.9l.085-.594a10.951,10.951,0,0,1-1.805.921q-1.79,1.066-3.451,1.973a279.823,279.823,0,0,0-30.948,21.542,6.118,6.118,0,0,0-1.47,1.325,9.483,9.483,0,0,0-.952.685l-.389.48a13.226,13.226,0,0,0-1.34,1.165,5.973,5.973,0,0,1-2.529,1,4.279,4.279,0,0,1-3.016-.853,4.509,4.509,0,0,1-2.01-2.423l-.045-.434a7.472,7.472,0,0,1,.19-2.362,23.48,23.48,0,0,1,3.84-8.011l.762-1.1q1.736-2.963,3.763-5.955,6.292-9.734,11.96-19.839a57.352,57.352,0,0,0,4.206-10.1l-.014-.145a5.706,5.706,0,0,0,.125-.891,4.5,4.5,0,0,0,0-.732l-.35-.548a2.872,2.872,0,0,0-1.089-.617,2.393,2.393,0,0,0-.739-.068l-.708.22a6.194,6.194,0,0,0-2.658,1.157.594.594,0,0,0-.419.191,256.089,256.089,0,0,0-26.636,18.015,469.825,469.825,0,0,0-44.782,37.48q-2.65,2.619-5.126,5.513-1.585,1.629-3.009,3.388a23.784,23.784,0,0,1-5,3.891,4.77,4.77,0,0,1-1.393.659q-.572.134-.717.148a2.735,2.735,0,0,1-1.812-.541,4.34,4.34,0,0,1-1.675-2.019l-.206-.563a3.631,3.631,0,0,1,.267-1.638,17.736,17.736,0,0,1,3.162-7.5,165.3,165.3,0,0,1,13.567-17.081q1.295-1.6,2.6-3.054,3.383-4.012,6.78-7.881,10.224-11.316,19.2-23.379a57.041,57.041,0,0,0,9.257-16.335,12.625,12.625,0,0,0,.823-6.085q-.077-.724-.152-1.447l-.176-.275q-1.858-6.535-8.369-5.851l-1.013.107a25.3,25.3,0,0,0-8.264,3.5,111.258,111.258,0,0,0-17.565,13.844q-8,7.424-15.662,15.252-7.274,7.349-14.869,14.439a110.925,110.925,0,0,1-19.454,15.358,24.061,24.061,0,0,1-10.595,3.6l-.723.076q-9.24-.2-11.538-8.15a10.214,10.214,0,0,1-.548-2.43l-.129-2.62a7.408,7.408,0,0,0-.007-1.462,7.333,7.333,0,0,1-.677.51l-.923.975-.259.32a52.513,52.513,0,0,1-10.915,8.9,7.385,7.385,0,0,1-2.963,1.043,5.429,5.429,0,0,1-4.09-1.326,7.152,7.152,0,0,1-2.612-3.969,8.156,8.156,0,0,1-.311-1.576,18.915,18.915,0,0,1,.087-4.07q-14.2,11.757-27.989,23.974-5.621,4.98-11.083,10.089-11.212,10.251-22.905,20.111a110.153,110.153,0,0,1-22.12,15.053,47.474,47.474,0,0,1-17,5.3l-.724.077a15.151,15.151,0,0,1-10.555-2.988,15.471,15.471,0,0,1-4.972-6.939q-.6-1.546-1.058-3.108a45.042,45.042,0,0,1-1.324-7.03,41.218,41.218,0,0,1,.139-9.817,115.1,115.1,0,0,1,5.785-24.31,3.213,3.213,0,0,1,.328-1.058l-.061-.579-.145.015a.943.943,0,0,0-.388.48l-.923.975a141.464,141.464,0,0,1-14.557,13.234,30.409,30.409,0,0,1-5.1,3.023,11.149,11.149,0,0,1-2.849.738,5.79,5.79,0,0,1-3.9-.907,9.183,9.183,0,0,1-3.921-5.294l-.205-.563a12.06,12.06,0,0,1-.563-2.575,12.2,12.2,0,0,1,.5-5.027,40.636,40.636,0,0,1,1.95-6,167.479,167.479,0,0,1-41.64,19.534,74.993,74.993,0,0,1-16.025,3.44,71,71,0,0,1-7.86.387,22.781,22.781,0,0,1-5.187-.626q-7.2-1.729-9-7.686a23.537,23.537,0,0,1-.419-2.589,12,12,0,0,1,.015-2.635l-.152-1.447a9.545,9.545,0,0,1-1.326,1.31q-1.18,1.295-2.65,2.62a44.864,44.864,0,0,1-6.993,5.855,17.027,17.027,0,0,1-3.335,1.668,4.8,4.8,0,0,1-1.143.266q-3.762.4-6.215-3.443a10.46,10.46,0,0,1-.806-2.11,10.645,10.645,0,0,1-.328-1.722,7.932,7.932,0,0,1,.061-2.2q1.831-13.214,14.313-18.329a10.086,10.086,0,0,1,2.85-.739,11.644,11.644,0,0,1,6.435,1.372,4.224,4.224,0,0,0,1.98.742c.488,0,.828-.013,1.021-.034a7.357,7.357,0,0,0,1.432-.3,4.3,4.3,0,0,1,1-.251,3.871,3.871,0,0,1,2.406.625,10.665,10.665,0,0,1,2.064,1.538,3.728,3.728,0,0,1,1.355,1.76l.031.29a3.023,3.023,0,0,1-.67,1.973l-.229.609a42.068,42.068,0,0,0-5.021,9.306,10.219,10.219,0,0,0-.77,5.2l.091.868a3.869,3.869,0,0,0,2.619,2.651,19.539,19.539,0,0,0,8.142.9q2.186-.084,4.5-.327a90.764,90.764,0,0,0,26.216-6.706,168.262,168.262,0,0,0,41.282-23.555,36.1,36.1,0,0,1,3.967-3.266.754.754,0,0,1,.379-.267,41.27,41.27,0,0,1,4.635-2.775,17.118,17.118,0,0,1,5.826-1.637,22.46,22.46,0,0,1,2.476-.113,12.329,12.329,0,0,1,9.8,5.554l.479.388.015.145a.416.416,0,0,1,.175.275.129.129,0,0,0,.16.13.593.593,0,0,0,.419-.191l.258-.319a.423.423,0,0,1,.114-.305,332.293,332.293,0,0,1,26.756-48.9,266.875,266.875,0,0,1,39.818-48.517,100.756,100.756,0,0,1,23.6-17.7,34.847,34.847,0,0,1,10.61-3.456l1.012-.106a17.408,17.408,0,0,1,3.953.023q7.609,1.395,9.527,8.509l.176.275a23.747,23.747,0,0,1,.418,2.589,23.35,23.35,0,0,1-.794,9.155,52.235,52.235,0,0,1-5.151,12.246A191.356,191.356,0,0,1,2510.691,329a282.779,282.779,0,0,1-57.236,42.886q-4.417,2.512-9.156,4.766a1.476,1.476,0,0,0-1.2,1.15,166.488,166.488,0,0,0-11.475,32.809,52.5,52.5,0,0,0-1.45,16.832,17.524,17.524,0,0,0,.374,2.155,10.484,10.484,0,0,0,.806,2.11,7.915,7.915,0,0,0,6.976,5.119,28.7,28.7,0,0,0,4.083-.136,23.216,23.216,0,0,0,6.276-1.537,82.828,82.828,0,0,0,27.428-16.052q13.049-10.881,25.313-22.265,6.558-5.81,12.828-11.59,17.132-15.074,34.708-29.353a20.839,20.839,0,0,1,9.258-6.14,10.065,10.065,0,0,1,2.848-.738q4.2-.441,8.065,2.956a.836.836,0,0,0,.609.229l.145-.014a.421.421,0,0,0,.274-.176l-.015-.145a4.06,4.06,0,0,1,2.37-1.127,5.125,5.125,0,0,1,2.071.221,5.744,5.744,0,0,1,3.549,3.138l.206.563.091.868a2.574,2.574,0,0,1-.6,1.234,49.324,49.324,0,0,0-4.334,7.478,13.024,13.024,0,0,0-1.859,7.365,4.8,4.8,0,0,0,.266,1.143,4.521,4.521,0,0,0,3.693,3.123,12.7,12.7,0,0,0,3.374.085,12.076,12.076,0,0,0,2.575-.563,49.023,49.023,0,0,0,14.578-8.848,273.416,273.416,0,0,0,21.976-20.6q2.133-1.98,4.121-3.945l2.392-2.3a232.782,232.782,0,0,1,24.04-21.84,40.235,40.235,0,0,1,13.574-7.278,13.78,13.78,0,0,1,3.282-.784,12.658,12.658,0,0,1,3.374.084,14.568,14.568,0,0,1,11.309,8.761,24.362,24.362,0,0,1,1.218,3.237,24.882,24.882,0,0,1,.686,3.732,17.617,17.617,0,0,1-.816,7.547,58.217,58.217,0,0,1-8.526,17.722A182.921,182.921,0,0,1,2660.222,368a3.4,3.4,0,0,0-.6,1.234l1.5-1.036a386.725,386.725,0,0,1,40.866-30.191q4.677-2.834,9.255-5.216a11.624,11.624,0,0,1,4.1-1.382,6.622,6.622,0,0,1,4.516,1.208,7.459,7.459,0,0,1,2.931,2.838,7.99,7.99,0,0,1,.625,1.763,17.274,17.274,0,0,1-.321,10.861,84.278,84.278,0,0,1-9.105,20.562q-1.1,2.018-2.369,3.907a20.727,20.727,0,0,0-1.121,1.873l.321.259,2.163-1.69q2.453-1.721,5.211-3.328a177.42,177.42,0,0,1,24.381-14.413,4.3,4.3,0,0,1,1-.251,5.053,5.053,0,0,1,3,.709,5.577,5.577,0,0,1,3.115,3.184,2.73,2.73,0,0,1-.1,1.108,5.789,5.789,0,0,1-.408.994,35.048,35.048,0,0,0-3.938,8.461,11.708,11.708,0,0,0-.488,3.709,11.382,11.382,0,0,0,.342,1.867q1.56,5.1,7.486,5.8a26.839,26.839,0,0,0,3.793-.106,22.394,22.394,0,0,0,6.7-1.728A121.563,121.563,0,0,0,2788.3,365.8q17.771-12.02,34.5-25.229,1.789-1.753,3.614-3.476a143.836,143.836,0,0,1,32.068-23.415,84.47,84.47,0,0,1,15.736-6.189,9.579,9.579,0,0,1,2.285-.533,10.977,10.977,0,0,1,3.533.214,10.748,10.748,0,0,1,9,7.686,31.742,31.742,0,0,1,.981,5.164,26.571,26.571,0,0,1-.534,8.834,45.809,45.809,0,0,1-9.288,18.826,148.507,148.507,0,0,1-28.222,27.985,486.34,486.34,0,0,1-46.388,31.943q-13.6,8.452-26.9,16.874a4.273,4.273,0,0,0-1.829,2.093,176.909,176.909,0,0,0-9.784,29.413l-.167,1.188.175.275a.9.9,0,0,0,.492-.2,2.49,2.49,0,0,0,.331-.328l.114-.305a138.961,138.961,0,0,1,40.515-30.74,6.938,6.938,0,0,1,1.85-.487,5.427,5.427,0,0,1,4.09,1.326,19.1,19.1,0,0,1,1.95,1.844,5.884,5.884,0,0,1,1.736,2.6l.06.579a3.671,3.671,0,0,1-1.044,2.6,8.376,8.376,0,0,0-1.166,1.439,115.741,115.741,0,0,0-9.126,13.4,16.43,16.43,0,0,0-2.729,10.236l.5,2q2.3,7.952,11.423,8.456,1.462-.007,2.765-.144a44.331,44.331,0,0,0,12.262-3.045,209.173,209.173,0,0,0,36.2-17.557,620.753,620.753,0,0,0,65.233-44.641,339.473,339.473,0,0,1,22.291-41.371,282.157,282.157,0,0,1,38.7-49.423,127.794,127.794,0,0,1,25.061-20.484,35.367,35.367,0,0,1,13.786-5.253l1.157-.121a17.811,17.811,0,0,1,3.214-.045q8.173,1.189,10.25,8.433l.266,1.142.137,1.3a26.566,26.566,0,0,1-1.373,12,84.108,84.108,0,0,1-9.965,19.336,177.548,177.548,0,0,1-16.859,21.963,273.6,273.6,0,0,1-45.056,40.434,220.409,220.409,0,0,1-32.143,19.912,10.862,10.862,0,0,0-5.531,5.848,166.181,166.181,0,0,0-10.493,32.414,47.242,47.242,0,0,0-.954,14.585,6.892,6.892,0,0,0,.487,1.851,9.77,9.77,0,0,0,1.188,2.948,7.434,7.434,0,0,0,5.216,3.694,23.338,23.338,0,0,0,5.719.13,21.485,21.485,0,0,0,4.86-1.1,84.083,84.083,0,0,0,28.541-16.606q13.192-10.9,25.6-22.3l13.894-12.58q17.785-15.689,36.36-30.612a80.308,80.308,0,0,1,5.542-6.418l1.584-1.63a5.05,5.05,0,0,1,2.788-1.317q2.315-.244,4.356,2.468a8.255,8.255,0,0,0,1.439,1.165q21.727,13.226,44.592,10.823l.435-.046a55.168,55.168,0,0,0,24.446-9.64,22.588,22.588,0,0,1,5.924-4.814l.005,0a1.426,1.426,0,0,1,.687-.365,21.876,21.876,0,0,1,3.373-1.379,11.515,11.515,0,0,1,1.866-.343,14.27,14.27,0,0,1,2.04-.068,7.117,7.117,0,0,1,6.747,5.728l.176.275.091.868a11.148,11.148,0,0,1-1.341,6.725,34.132,34.132,0,0,1-11.761,10.6q-2.354,1.272-4.577,2.383-.855.235-.778.959l.289,2.75q1.355,4.539,6.763,5.873a24.736,24.736,0,0,0,7.356.4,21.136,21.136,0,0,0,5.987-1.508,95.8,95.8,0,0,0,23.78-13.18q12.089-8.879,23.827-18.306,5.8-4.7,11.753-9.282a1.7,1.7,0,0,1,.4-.336,2.087,2.087,0,0,1,.4-.407.643.643,0,0,1,.282-.1,2.363,2.363,0,0,1,.739.068,7.47,7.47,0,0,1,2.665,3.085.488.488,0,0,1-.171.456c-.135.112-.2.216-.186.312l-.29.031-12.69,10.112q-13.467,11.071-28.069,21.092a82.861,82.861,0,0,1-20.795,10.964,58.035,58.035,0,0,1-8.013,1.721,36.119,36.119,0,0,1-7.9-.048q-11.463-1.867-14.614-12.363-.3-1.431-.608-3.009a23.058,23.058,0,0,1,1.419-10.251,54.178,54.178,0,0,1-19.469,5.565,68.26,68.26,0,0,1-30.106-3.858,81.288,81.288,0,0,1-10.388-4.176,23.73,23.73,0,0,1,.418,2.59q.988,9.405-4.77,15.863a15.081,15.081,0,0,1-10.931,5.977l-.434.046a12.761,12.761,0,0,1-6.451-1.517,10.452,10.452,0,0,1-4.409-4.365q-.22-.709-.456-1.562a11.489,11.489,0,0,1-.343-1.866,10.032,10.032,0,0,1,.131-2.94q.236-1,.533-1.966-7.547,6.209-14.93,12.551-12.468,10.82-24.489,21.74-8.936,8.254-18.19,16.25a148.2,148.2,0,0,1-23.743,17.711,57.272,57.272,0,0,1-18.973,7.408,14.415,14.415,0,0,1-2.011.357,16.222,16.222,0,0,1-1.7.088A18.739,18.739,0,0,1,2932.392,478.122Zm-87.091-149.3a198.874,198.874,0,0,0-38.971,44.038,325.126,325.126,0,0,0-22.7,38.816q-.7,1.683-1.546,3.382l-.716,1.538.159.13a1.122,1.122,0,0,0,.419-.191l.548-.35q2.758-1.606,5.355-3.343,6.87-4.234,13.886-8.482a476.032,476.032,0,0,0,49.777-34.493,131.6,131.6,0,0,0,27.88-29.851q6.918-9.36,5.609-21.8l-.091-.868a5.446,5.446,0,0,0-.282-1.287q-1.37-4.685-6.6-4.281a32.484,32.484,0,0,0-8.386,2.345l.015.145a91.294,91.294,0,0,0-21.71,12.415l-.111.094-.648.5Q2846.239,328.035,2845.3,328.823Zm214.708,60.537a.854.854,0,0,0-.677.51,121.29,121.29,0,0,0-11.412,13.928,23.388,23.388,0,0,0-2.278,4.774,3.553,3.553,0,0,0-.152,1.333l.03.29.191.418a3.773,3.773,0,0,0,2.018,1.105,8.708,8.708,0,0,0,3.4.373,6.734,6.734,0,0,0,2.688-.868,16.39,16.39,0,0,0,7.259-7.493,15.589,15.589,0,0,0,1.548-8.941l-.167-1.592a11.485,11.485,0,0,0-1.652-3.191q-.488-.648-.773-.648ZM3034.2,292.729a15.48,15.48,0,0,0-3.008.609,43.2,43.2,0,0,0-12.721,7.042,148.636,148.636,0,0,0-25.123,25.465,466.182,466.182,0,0,0-42.006,62.5q-5.065,8.872-9.736,18.727a5.636,5.636,0,0,0,.693-.365q.694-.366,1.112-.556a277.019,277.019,0,0,0,55.453-40.357,204.95,204.95,0,0,0,36.48-44.069,55.211,55.211,0,0,0,6.629-14.889,21.164,21.164,0,0,0,.816-7.547A5.386,5.386,0,0,0,3042.5,298q-1.416-5.119-7.3-5.378ZM3147.565,384.4l-.289.031-.4.335a2.266,2.266,0,0,1-.533.495.593.593,0,0,0-.419.191l-.145.015a25.524,25.524,0,0,0-10.193,14.386,32.1,32.1,0,0,0,11.06-8.917,7.726,7.726,0,0,0,1.73-4.425l-.046-.434a1.324,1.324,0,0,0,0-.731,1.982,1.982,0,0,1-.118-.427.468.468,0,0,0-.335-.4.446.446,0,0,0-.275-.116Zm-720.644-14.411a4.782,4.782,0,0,0-1.142.266,13,13,0,0,0-2.773,1.462,31.034,31.034,0,0,0-7.5,6.64,37.925,37.925,0,0,0-9.569,14.758,12.493,12.493,0,0,0-.595,5.476l.031.289a.468.468,0,0,0,.335.4,1.3,1.3,0,0,0,.564-.206,5.7,5.7,0,0,1,1.112-.555q1.113-.556,2.354-1.272a141.447,141.447,0,0,0,22.966-22.312.467.467,0,0,0,.244-.464l.129-.16-.159-.13-.031-.289a8.339,8.339,0,0,0-2.73-3.005,5.149,5.149,0,0,0-2.81-.926A4.12,4.12,0,0,0,2426.921,369.989ZM2318.388,381.4a3.618,3.618,0,0,0-1.546.6,35.6,35.6,0,0,0-8.859,8.978,19.183,19.183,0,0,0-3.435,7.677l1.226-.861a88.65,88.65,0,0,0,14.755-14.133.986.986,0,0,0,.213-.754,1.109,1.109,0,0,0-.19-.418,2.568,2.568,0,0,0-1.953-1.1A2.006,2.006,0,0,0,2318.388,381.4Zm246.137-26.016a5.424,5.424,0,0,0-2.483,1.431,38.682,38.682,0,0,0-8.379,9.367,17.258,17.258,0,0,0-2.721,6.138,2.13,2.13,0,0,0,.781-.229c.231-.122.438-.241.621-.357a.13.13,0,0,0,.13-.16,91.132,91.132,0,0,0,14.092-13.478l.258-.32a.66.66,0,0,0,.324-.4,1.156,1.156,0,0,0,.034-.369,1.5,1.5,0,0,0-.35-.549,4.406,4.406,0,0,0-1.039-.841,1.975,1.975,0,0,0-.99-.247A2.663,2.663,0,0,0,2564.526,355.38Zm-117.307,14.232.144-.015a8.324,8.324,0,0,1,1.4-.587,278.57,278.57,0,0,0,58.88-43.936,189.027,189.027,0,0,0,35.232-44.815,34.973,34.973,0,0,0,5.113-16.778l-.106-1.013a11.516,11.516,0,0,0-.343-1.866,6.426,6.426,0,0,0-2.276-3.565,7.985,7.985,0,0,0-5.857-1.433l-1.3.137a37.766,37.766,0,0,0-13.749,7,132.851,132.851,0,0,0-22.676,22.281,415.509,415.509,0,0,0-30.814,42.3,377.524,377.524,0,0,0-23.351,40.934.418.418,0,0,1-.114.3.664.664,0,0,0-.324.4,1.585,1.585,0,0,0-.019.514h.026C2447.165,369.481,2447.209,369.524,2447.219,369.612Z" transform="translate(-2296.943 -250.613)" fill="#fff"/>
</svg>
