<svg xmlns="http://www.w3.org/2000/svg" width="73" height="73" viewBox="0 0 73 73">
  <g id="Group_19" data-name="Group 19" transform="translate(-849.5 -2043)">
    <rect id="Rectangle_35" data-name="Rectangle 35" width="73" height="73" transform="translate(849.5 2043)" fill="#d6cdbf"/>
    <path id="Rectangle_35_-_Outline" data-name="Rectangle 35 - Outline" d="M1,1V72H72V1H1M0,0H73V73H0Z" transform="translate(849.5 2043)" fill="#f7f5f2"/>
    <path id="ship" d="M10.875,0H21.75V3.625h5.438v9.969l5.438,1.813L25,22.39a7.409,7.409,0,0,1-.946.527,5.719,5.719,0,0,1-2.305.589,5.8,5.8,0,0,1-2.305-.583,11.728,11.728,0,0,1-2.011-1.274h0l-1.121-.8-1.054.759-.062.045h0a12.18,12.18,0,0,1-2.011,1.274,5.852,5.852,0,0,1-2.311.583,5.8,5.8,0,0,1-2.305-.583,7.043,7.043,0,0,1-.946-.527L0,15.406l5.438-1.812V3.625h5.438ZM9.063,12.387l7.25-2.419,7.25,2.419V7.25H9.063Zm6.366,15.542A11.207,11.207,0,0,1,10.875,29a11.207,11.207,0,0,1-4.554-1.071c-.329-.153-.629-.3-.884-.436-.255.136-.549.289-.884.436A11.207,11.207,0,0,1,0,29V25.375a7.625,7.625,0,0,0,3.059-.742,13.612,13.612,0,0,0,2.266-1.4l.119-.085.119.085a13.612,13.612,0,0,0,2.266,1.4,7.625,7.625,0,0,0,3.059.742,7.625,7.625,0,0,0,3.059-.742,13.612,13.612,0,0,0,2.266-1.4l.119-.085.119.085a13.247,13.247,0,0,0,2.266,1.4,7.625,7.625,0,0,0,3.059.742,7.625,7.625,0,0,0,3.059-.742,13.612,13.612,0,0,0,2.266-1.4l.119-.085.119.085a13.247,13.247,0,0,0,2.266,1.4,7.625,7.625,0,0,0,3.059.742V29a11.207,11.207,0,0,1-4.554-1.071c-.329-.153-.629-.3-.884-.436-.255.136-.549.289-.884.436A11.207,11.207,0,0,1,21.784,29a11.207,11.207,0,0,1-4.554-1.071c-.329-.153-.629-.3-.884-.436-.255.136-.549.289-.884.436Z" transform="translate(869.671 2063.523)" opacity="0.41"/>
  </g>
</svg>
