<svg xmlns="http://www.w3.org/2000/svg" xmlns:xlink="http://www.w3.org/1999/xlink" width="539.413" height="675.434" viewBox="0 0 539.413 675.434">
  <defs>
    <clipPath id="clip-path">
      <rect id="Rectangle_11" data-name="Rectangle 11" width="539.413" height="675.434" fill="none" stroke="#000" stroke-width="2"/>
    </clipPath>
  </defs>
  <g id="Group_4" data-name="Group 4" opacity="0.1">
    <g id="Group_3" data-name="Group 3" clip-path="url(#clip-path)">
      <path id="Path_1" data-name="Path 1" d="M368.557,676.435a4.24,4.24,0,0,1-2.963-1.594c-.135-.132-.262-.256-.392-.377-4.261-3.948-4.744-9.068-5.21-14.02-.063-.665-.128-1.353-.2-2.02a8.443,8.443,0,0,0-.782-3.4c-.322-.5-.947-1.083-2.94-1.212-3.168-.207-5.521-2.059-7.8-3.851a21.961,21.961,0,0,0-4.085-2.761,2.162,2.162,0,0,1-1.341-1.876,3.907,3.907,0,0,1,1.935-3.141,3.747,3.747,0,0,0,2.039-2.634,9.927,9.927,0,0,0-.26-3.438,13.622,13.622,0,0,1-.343-3.484,4.9,4.9,0,0,0-.5.288,4.956,4.956,0,0,1-2.7.94c-1.491,0-2.754-.927-3.754-2.757-1.5-2.742-2.924-5.442-4.243-8.026a5.372,5.372,0,0,1,.446-5.811l.029-.041a26.162,26.162,0,0,0,1.839-2.889l.011-.021a5.077,5.077,0,0,0,.524-1.259c.049-.282-.017-.346-.137-.435a.445.445,0,0,0-.174-.092c-.172.007-.641.565-.818.775-.1.124-.213.253-.322.373a5.619,5.619,0,0,1-4.37,2.049,8.505,8.505,0,0,1-1.733-.194,5.089,5.089,0,0,0-1.03-.111c-2.114,0-3.579,1.569-5.13,3.23-.495.53-1.006,1.078-1.543,1.575a9.315,9.315,0,0,0-1.442,1.981c-.26.426-.53.866-.846,1.329l-.773,1.133-.842-1.082a8.048,8.048,0,0,1-1.493-4.764c-.035-.463-.067-.9-.133-1.309-.476-2.967-.876-2.967-1.338-2.967a8.414,8.414,0,0,0-2.521.654c-.159.058-.321.12-.477.18a6.292,6.292,0,0,1-2.119.556,1.813,1.813,0,0,1-1.416-.6c-.52-.592-.669-1.507-.48-2.966.061-.469-.179-.694-1.1-1.279-.209-.133-.425-.271-.636-.424-1.983-1.44-2.217-2.7-2.065-3.506.142-.747.737-1.749,2.771-2.277a7.18,7.18,0,0,0,4.766-3.591,10.126,10.126,0,0,0,1.023-5.4c-.209-3.083-2.2-6.87-3.846-9.176a16.86,16.86,0,0,0-2.08-2.236,16.656,16.656,0,0,1-3.094-3.607c-.723-1.249-2.1-1.5-3.7-1.8-.222-.041-.452-.083-.678-.128-.145-.029-.3-.056-.465-.084a6.652,6.652,0,0,1-2.187-.652,2.629,2.629,0,0,1-1.348-2.506c.085-2.625,2.954-3.287,3.9-3.5q.337-.078.676-.153a10.425,10.425,0,0,0,4.882-1.974c.2-.177.415-.335.624-.488a4,4,0,0,0,.68-.57c.081-.1.076-.127.068-.167-.055-.271-.194-.389-1.37-.467-.152-.01-.31-.021-.463-.036-1.561-.154-3.18-.2-4.745-.235-.439-.011-.894-.023-1.341-.037a13.3,13.3,0,0,1-5.686-1.251c-2.223-1.116-2.887-2.473-3.052-3.414a4.535,4.535,0,0,1,1.527-3.939c1.9-2.008,2.968-3.8,2.4-6.507-.332-1.594.229-3.279,1.716-5.153a.825.825,0,0,0,.182-.343c.005-.03.007-.042-.025-.085a.221.221,0,0,0-.021-.024h-.02a1.165,1.165,0,0,0-.43.122c-.246.106-.5.2-.737.3a5.227,5.227,0,0,0-1.8.956c-1.375,1.447-3.106,2.925-5.525,2.925a7.047,7.047,0,0,1-2.516-.5.517.517,0,0,0-.188-.036c-.533,0-1.292.781-1.577,1.075a4.663,4.663,0,0,1-7.914-.8,4.438,4.438,0,0,0-4.073-2.237c-.16,0-.328.005-.5.015-.043,0-.087,0-.132,0-1.779,0-4.485-2.123-5.566-3.036s-3.632-3.234-3.774-4.884c-.172-2.02,1.146-3.329,2.205-4.381l.092-.091a10.579,10.579,0,0,0,.17-14.081,3.26,3.26,0,0,1-1.026-2.408,4.036,4.036,0,0,1,1.652-2.714,4.25,4.25,0,0,0,1.738-2.665,3,3,0,0,0-.918-2.156,3.6,3.6,0,0,0-2.7-1.1,3.882,3.882,0,0,0-3.146,1.5,34.2,34.2,0,0,1-5.653,5.647,47.351,47.351,0,0,0-3.748,3.427,4.27,4.27,0,0,1-3.055,1.6,4.156,4.156,0,0,1-2.978-1.531,12.281,12.281,0,0,1-2.86-4.714,18.33,18.33,0,0,1-.814-5.447,27.646,27.646,0,0,1,.981-7.685,68.1,68.1,0,0,1,2.4-7.078c.448-1.168.255-1.47.253-1.473-.035-.051-.264-.184-.888-.184-.157,0-.331.008-.518.025-.242.021-.484.032-.722.032-2.93,0-5.1-1.581-6.841-3.127l-.217-.194c-.334-.3-.712-.643-.909-.643-.124,0-.392.135-.772.514a8.129,8.129,0,0,1-5.794,1.972,13.672,13.672,0,0,1-4.809-.89,8.865,8.865,0,0,1-3.806-2.627c-.592-.748-1.114-1.545-1.618-2.316-1.167-1.784-2.27-3.469-4.148-4.473a2.283,2.283,0,0,1-1.219-1.474,3.673,3.673,0,0,1,.8-2.812,10.115,10.115,0,0,1,6.656-4.719c2.03-.353,2.177-1.323,2.033-2.317-.333-2.329-1.006-3.091-2.77-3.138a19.511,19.511,0,0,1-7.893-1.893,25.546,25.546,0,0,1-6.6-4.658,10.587,10.587,0,0,0-7.381-3.019,11.927,11.927,0,0,0-6.3,1.893,5.2,5.2,0,0,1-2.752.877,4.175,4.175,0,0,1-4.01-3.86c-.834-6.86-5.774-8.867-11.2-10.469a5.764,5.764,0,0,1-3.984-4.8,2.479,2.479,0,0,1,.776-2.577,4.1,4.1,0,0,1,1.87-.678,4.343,4.343,0,0,0,.832-.2c.795-.347,1.107-.754.612-2.019-.167-.426-.334-.858-.5-1.276-2.02-5.228-3.927-10.167-9.931-12.411-2.869-1.072-4.555-2.411-5.3-4.213-.7-1.678-.6-3.775.309-6.8a2.871,2.871,0,0,0,.04-2.205,2.7,2.7,0,0,0-1.873-.969,17.951,17.951,0,0,1-7.332-3.2,21.473,21.473,0,0,1-5.371-6.1,43.237,43.237,0,0,0-4.884-6.638,24.247,24.247,0,0,0-6.441-5.128,4.949,4.949,0,0,1-1.735-1.408,3.173,3.173,0,0,1-.553-2.487c.36-2.128,2.4-2.557,3.164-2.719a6.069,6.069,0,0,0,3.367-1.91,11.061,11.061,0,0,0,2.014-3.567,12.539,12.539,0,0,1,3.071-4.928,9.882,9.882,0,0,1,5.647-2.471c2.181-.285,3.447-.783,3.985-1.569.57-.833.555-2.3-.049-4.767a40.642,40.642,0,0,0-4.314-9.727c-.507-.918-1.031-1.867-1.526-2.812a2.843,2.843,0,0,0-2.6-1.691,4.945,4.945,0,0,0-3.059,1.3,5.831,5.831,0,0,1-3.733,1.663,5.623,5.623,0,0,1-3.811-1.836,9.782,9.782,0,0,0-5.983-2.469c-.35-.031-.65-.046-.918-.046-1.4,0-2.161.326-2.4,2.108-.257,1.918-1.306,3.158-2.673,3.158a3.106,3.106,0,0,1-2.2-1.111,4.451,4.451,0,0,0-3.033-1.683c-1.323,0-2.648,1.067-4.23,2.67-.074.074-.148.154-.226.239a4.25,4.25,0,0,1-1.076.915,3.812,3.812,0,0,0-1.027,1.292c-.591.968-1.326,2.173-2.767,2.173a3,3,0,0,1-1.345-.351c-.44-.22-.9-.428-1.4-.648-2.691-1.2-6.04-2.7-6.094-7.2a8.218,8.218,0,0,0-.619-2.824,1.719,1.719,0,0,0-1.53-1.248,1.948,1.948,0,0,0-.46.059.652.652,0,0,0-.208.078,2.623,2.623,0,0,0-.012.73,5.356,5.356,0,0,1-.007,1.069,26.513,26.513,0,0,1-11.637,19.187,4.1,4.1,0,0,1-2.268.815c-1.2,0-2.478-.823-2.484-3.133a9.325,9.325,0,0,0-1.532-4.337c-.959-1.759-2.047-3.753-1.761-6.266,0-.024,0-.046.006-.065a1.449,1.449,0,0,0-.854.488c-1.41,1.707-3.422,3.665-6.5,3.665a8.078,8.078,0,0,1-1.2-.093.67.67,0,0,0-.1-.007.633.633,0,0,0-.588.31,4.842,4.842,0,0,1-2.923,3.385,10.636,10.636,0,0,1-3.813.463c-.218,0-.444,0-.664,0-.909.011-1.84.046-2.74.08-1.1.042-2.234.085-3.359.085a23.769,23.769,0,0,1-6.068-.656c-1.305-.333-2.69-.835-3.053-2.026s.5-2.4,1.494-3.513l.523-.584a30.607,30.607,0,0,0,3.034-3.757,13.331,13.331,0,0,1,3.4-3.725,10.173,10.173,0,0,1,4.8-1.85c.172-.021.349-.033.52-.044a3.381,3.381,0,0,0,.846-.122.571.571,0,0,0,.006-.091c0-.1,0-.129-.169-.206a4.342,4.342,0,0,0-1.134-.231l-.038,0c-3.123-.366-5.005-2.436-6.666-4.262a19.012,19.012,0,0,0-2.353-2.313,2.011,2.011,0,0,1-.919-2.087c.26-1.161,1.6-1.846,2.664-2.08a2.885,2.885,0,0,0,1.915-1.109,3.483,3.483,0,0,0,.2-2.623,4.922,4.922,0,0,1,2.232-5.611,10.6,10.6,0,0,0,2.027-2.231c.355-.47.723-.956,1.125-1.413a18.275,18.275,0,0,1,3.053-2.912,6.986,6.986,0,0,1,4.116-1.379,8.191,8.191,0,0,1,2.609.457,2.081,2.081,0,0,0,.673.118,4.611,4.611,0,0,0,2.58-1.4c.3-.243.6-.5.92-.729a13.255,13.255,0,0,1,2.374-1.3c-1.742-1.313-2.8-2.348-2.973-3.644-.2-1.526.868-2.971,2.657-5.169.865-1.059,1-1.5.648-2.129-2.115-3.832-4.56-7.715-9.111-9.431a8.447,8.447,0,0,0-2.962-.6c-2.347,0-4.17,1.291-5.42,3.837a24.658,24.658,0,0,0-1.033,2.6c-.2.563-.407,1.145-.638,1.717a10.658,10.658,0,0,1-2.865,4.241,8.356,8.356,0,0,1-4.893,1.958c-2.739.218-3.781,1.259-3.718,3.714a5.73,5.73,0,0,1-1.317,4.031,6.926,6.926,0,0,1-3.644,2.07c-7.243,1.837-11.085,7.535-10.277,15.244.46,4.407-.326,8.723-1.087,12.9-.125.689-.255,1.4-.377,2.1-.258,1.485-.795,4.574-3.554,4.74-.071,0-.143.007-.212.007a2.6,2.6,0,0,1-2.477-1.635,7.861,7.861,0,0,1-.5-2.366c-.018-.173-.034-.336-.053-.484a5.145,5.145,0,0,0-4.056-4.8,9.571,9.571,0,0,1-5.9-5.183c-.886-1.846-1.617-3.63-.848-5.191.535-1.087,1.686-1.8,3.517-2.191.4-.084,1.134-.239.975-2.094-.489-5.709,2.375-10.023,5.241-13.489.662-.8.877-2.708.523-4.633-.308-1.673-1-3.032-1.757-3.463-.657-.373-1.286-.8-1.893-1.206-1.614-1.088-3.139-2.116-5.074-2.15a3.462,3.462,0,0,1-1.9-.57,2.709,2.709,0,0,1-1.174-1.949,3.019,3.019,0,0,1,1.644-2.849l.1-.073c.128-.094.254-.18.376-.262.078-.053.157-.106.234-.161l.012-.008c1.372-.954,2.456-1.708,3.134-2.3s.761-.857.764-.943-.057-.352-.681-.989S8.791,291.8,7.511,290.75l-.005,0-.483-.4A27.537,27.537,0,0,0,1.5,286.512a3.942,3.942,0,0,1-2.439-2.57c-.234-1.091.188-2.253,1.289-3.553.836-.985,1.64-2.042,2.417-3.063.8-1.058,1.637-2.151,2.521-3.19,2.048-2.4,3.69-4.651,3.04-7.92A3.692,3.692,0,0,1,9,263.078a5.063,5.063,0,0,1,2.787-1.6c3.012-.762,5.131-2.478,5.668-4.588.513-2.015-.435-4.261-2.667-6.324a5.25,5.25,0,0,1-1.871-4.425,6.781,6.781,0,0,1,3.527-4.938,1.84,1.84,0,0,0,.439-.337,2.188,2.188,0,0,0-.27-.612c-.667-1.2-1.472-2.961-.78-4.512.519-1.162,1.7-1.917,3.731-2.376,1.507-.341,1.671-.695,1.672-.7a.9.9,0,0,0-.145-.459,9.323,9.323,0,0,0-.947-1.371c-3-3.81-4.507-5.722-4.506-7.911s1.5-4.109,4.5-7.961l.04-.052a13.009,13.009,0,0,0,1.247-2.124c.091-.18.183-.36.275-.538a3.261,3.261,0,0,1,2.719-2.04,2.353,2.353,0,0,1,1.329.424,3,3,0,0,0,1.569.615c.764,0,1.442-.672,2.426-1.911a4.263,4.263,0,0,1,3.637-1.445c.214,0,.427,0,.633.009s.4.009.585.009c.247,0,.444-.007.622-.023,1.242-.108,1.558-.406,1.684-.883a1.3,1.3,0,0,0-.839-1.5c-1.5-.645-2.937-1.423-4.331-2.175a30.368,30.368,0,0,0-7.261-3.15c-2.011-.481-3.26-1.292-3.815-2.477a4.271,4.271,0,0,1,.335-3.777,17.85,17.85,0,0,1,3.708-5.349,9.243,9.243,0,0,1,6.495-2.434h.153l.261,0c1.915,0,3.362-.311,4.2-1.83l.028-.051c.313-.566.429-.833.334-1.009a3.647,3.647,0,0,0-.426.112c-.123.037-.25.076-.386.109-.228.056-.458.124-.7.2a7.7,7.7,0,0,1-1.964.4c-.209.007-.4.011-.587.011-1.488,0-3.611-.213-4.864-2.056-1.175-1.726-.125-3.246.571-4.252.174-.252.338-.49.465-.713a38.972,38.972,0,0,0,4.243-13.026,4.281,4.281,0,0,0-.568-3.48,2.715,2.715,0,0,0-2.193-.877,6.772,6.772,0,0,0-2.309.464c-.945.348-1.9.747-2.827,1.133a31.875,31.875,0,0,1-7.259,2.356c-.136.022-.278.048-.428.076a7.64,7.64,0,0,1-1.381.167,2.608,2.608,0,0,1-2.478-1.509,2.452,2.452,0,0,1,.139-2.515,6.09,6.09,0,0,1,1.33-1.368l.063-.052a12.473,12.473,0,0,0,4.649-9.309A14.978,14.978,0,0,1,22,141.94c3.883-5.489,1.289-10.534-1.219-15.413a5.923,5.923,0,0,1-.96-3.325,4.3,4.3,0,0,1,2.141-2.878,6.2,6.2,0,0,0,2.911-3.882c.238-1.457-.328-3.122-1.683-4.948a12.38,12.38,0,0,1-2.267-5.04,10.9,10.9,0,0,1,.211-5.113A11.018,11.018,0,0,1,23.7,96.823a12.678,12.678,0,0,1,4.676-3.137,3.294,3.294,0,0,1,1.212-.241,4.589,4.589,0,0,1,2.483.939l.182.115a6.662,6.662,0,0,0,3.353,1.262c1.206,0,2.332-.741,3.653-2.4a9.055,9.055,0,0,1,4.265-2.936c1.995-.706,2.774-2.169,2.781-5.218a3.788,3.788,0,0,0-.632-2.384,2.959,2.959,0,0,0-2.234-.963c-1.851-.136-2.913-1.559-2.77-3.712.013-.207.024-.421.036-.647a11.463,11.463,0,0,1,.491-3.29A3.569,3.569,0,0,1,44,71.764c2.936-.576,3.326-2.019,3.47-4.947a12.811,12.811,0,0,1,.578-3.739,4.148,4.148,0,0,1,3.207-2.842,4.066,4.066,0,0,1,.8-.082c2.1,0,3.094,1.729,3.891,3.119a10.729,10.729,0,0,0,.843,1.326,10.3,10.3,0,0,1,1.23,2.069c.581,1.247,1.054,1.415,1.441,1.415a2.085,2.085,0,0,0,.7-.146c1.607-.594,2.247-1.386,2.206-2.736a9.2,9.2,0,0,0-1.3-3.83q-.125-.246-.249-.492c-1.281-2.562-1.547-4.479-.836-6.033.683-1.493,2.261-2.535,4.824-3.187a12.2,12.2,0,0,0,1.424-.429,2.492,2.492,0,0,0,.419-.2,5.357,5.357,0,0,0-1.176-1.263,6.9,6.9,0,0,1-2.339-3.822,7.661,7.661,0,0,1,.572-4.565,20.1,20.1,0,0,0,1.772-8.729,5.559,5.559,0,0,1,1.557-4.455,66.615,66.615,0,0,0,7.259-8.314A3.693,3.693,0,0,1,77.1,18.107a2.772,2.772,0,0,1,.6.068,2.352,2.352,0,0,1,1.7,1.366,5.017,5.017,0,0,1,.348,1.575c.009.088.018.175.029.259.059.484.124.98.187,1.461a49.053,49.053,0,0,1,.541,6.2c0,2.076.763,2.245,1.678,2.245a6.318,6.318,0,0,0,1.076-.108c2.381-.42,4.01-1.991,4.98-4.8.958-2.781,2.883-4.764,4.744-6.681a17.679,17.679,0,0,0,4.093-5.444h0a2.3,2.3,0,0,1,2.008-1.163,1.613,1.613,0,0,1,.354.038,1.927,1.927,0,0,1,1.419,1.181,3.9,3.9,0,0,1,.228,1.27c0,.069.008.137.013.2.086,1.161.181,2.34.273,3.481.127,1.576.259,3.206.367,4.814.073,1.084.519,1.388,1.915,2.184l.335.192a8.266,8.266,0,0,0,4.232,1.159,19.248,19.248,0,0,0,5.834-1.262c.962-.312,1.957-.634,2.964-.885a3.311,3.311,0,0,0,1.558-1.194c.152-.169.31-.343.479-.516,1.253-1.28,2.336-2.133,3.548-2.133,1.393,0,2.448,1.115,3.6,2.789.779,1.129,1.495,2.311,2.187,3.454q.269.444.539.887a3.014,3.014,0,0,0,2.674,1.7,3.882,3.882,0,0,0,.57-.044c.539-.08,1.969-.293,2.164-.693.034-.069.166-.473-.518-1.685-.794-1.409-.3-3.733.262-5.435,1-3.043,3.016-6.579,4.946-7.45l.009,0c.034-.015.07-.032.107-.051a2.037,2.037,0,0,1,.883-.256,1.171,1.171,0,0,1,.554.135,5.042,5.042,0,0,0,2.195.714c1.039,0,1.49-.857,2.271-2.813a18.626,18.626,0,0,1,.828-1.87c1.035-1.94,2.363-2.923,3.947-2.923a6.566,6.566,0,0,1,3.814,1.578.972.972,0,0,0,.522.237,2.25,2.25,0,0,0,.908-.452c.1-.068.21-.139.322-.21a12.817,12.817,0,0,1,6.762-2.35,7.621,7.621,0,0,1,4.684,1.612,14.135,14.135,0,0,1,3.7,4.559l.081.145a24.421,24.421,0,0,0,1.351,2.246,2.694,2.694,0,0,0,.848.9,2.749,2.749,0,0,0,.625-1.109,22.731,22.731,0,0,1,7.629-10.051A49.138,49.138,0,0,1,191.9-.739,3.208,3.208,0,0,1,193.136-1,2.284,2.284,0,0,1,195.11.042c1.439,2.243,3.731,2.873,6.384,3.6l.007,0A4.991,4.991,0,0,1,204.787,6.3a6.309,6.309,0,0,1,.4,4.033,8.66,8.66,0,0,0,.177,4.385,11.8,11.8,0,0,0,2.149,3.862c2.816,3.531,6.009,7.533,7.543,12.661a8.246,8.246,0,0,0,4,4.9,3.907,3.907,0,0,1,2.169,2.3,3.667,3.667,0,0,1-.59,2.9c-.57.945-.774,1.7-.573,2.122.223.47,1.056.829,2.346,1.012,1.167.167,2.764.395,3.38,1.447,1.95,3.319,5.1,5.138,8.436,7.064,2.8,1.616,5.7,3.287,7.863,5.929.532.648,1.124,1.287,1.7,1.9,2.165,2.335,4.4,4.749,4.548,8.628a1.351,1.351,0,0,0,.064.413h.006a2.978,2.978,0,0,0,1.181-.41,6.954,6.954,0,0,1,3.116-.9,4.368,4.368,0,0,1,3.577,2.008,1.478,1.478,0,0,0,.455.276,5.673,5.673,0,0,1,2.654-.741,4.394,4.394,0,0,1,3.08,1.324,15.082,15.082,0,0,1,2.032,2.559c.686,1,2.02,1.195,3.432,1.4l.078.011a7.792,7.792,0,0,1,1.994.5,2.179,2.179,0,0,1,1.49,2.034c-.011,2.42,1.271,4.172,2.628,6.027.509.7,1.035,1.414,1.5,2.181,1.376,2.253.506,4.631-.262,6.729-.138.377-.268.733-.384,1.084a11.6,11.6,0,0,0,.117,7.387,12.552,12.552,0,0,0,4.465,6.039,33.89,33.89,0,0,0,3.474,2.1,20.808,20.808,0,0,1,6.233,4.567c1.288,1.53,2.453,3.183,2.267,4.908s-1.642,3.058-3.189,4.25c-1.7,1.31-3.124,2.331-4.473,3.216-3.322,2.175-4.4,3.6-2.486,6.777a3.939,3.939,0,0,1,.451,3.367,4.874,4.874,0,0,1-1.528,2.137A8.074,8.074,0,0,1,278.085,140a6.069,6.069,0,0,0-2.969,1.926,4.875,4.875,0,0,0-.36,3.594c.683,3.943-1.8,7.78-4.047,10.682a13.463,13.463,0,0,0-2.52,5.1,11.488,11.488,0,0,0-.082,4.91,15.912,15.912,0,0,0,4.966,8.386q.357.33.713.662c2.927,2.724,5.691,5.3,9.575,6.174.275.062.546.144.808.224a4.716,4.716,0,0,0,1.171.26.387.387,0,0,0,.293-.082,28.349,28.349,0,0,1,6.107-3.7c3.254-1.614,6.327-3.138,8.149-6.413a3.95,3.95,0,0,1,3.494-2.379,6.028,6.028,0,0,1,3.817,1.742c3.91,3.38,6.577,8,8.153,14.111.673,2.6,1.308,2.814,2.009,2.814a7.367,7.367,0,0,0,2.392-.595,57.514,57.514,0,0,1,9.37-2.387c1.244-.243,2.53-.495,3.774-.774a6.317,6.317,0,0,1,1.378-.156,5.6,5.6,0,0,1,3.911,1.584c.92.874,1.885,1.749,2.817,2.6A60.152,60.152,0,0,1,348.553,196c2.488,3.248,3.152,7.588,3.737,11.417q.046.3.091.6c.334,2.161.95,2.161,1.6,2.161a5.471,5.471,0,0,0,.978-.105c.769-.142,1.547-.25,2.3-.355.775-.108,1.576-.219,2.343-.365a6.765,6.765,0,0,1,1.259-.126c2.657,0,3.962,1.886,4.712,3.3,1.109,2.1,1.937,3.073,2.606,3.073.932,0,2.5-1.7,3.014-2.263a4.431,4.431,0,0,1,3.247-1.655c1.635,0,3,1.12,4.212,2.108l.256.209c1.489,1.215,2.666,2.174,3.158,2.174.459,0,1.443-1.634,2.486-3.364,1.535-2.55,3.038-5.186,4.491-7.734.659-1.157,1.341-2.353,2.018-3.527.517-.9,1.353-2.088,2.635-2.088s2.142,1.195,2.68,2.094c.649,1.084,1.393,2.157,2.113,3.194a44.4,44.4,0,0,1,2.826,4.44c1.344,2.529,1.661,4.563.971,6.22s-2.348,2.854-5.075,3.676a2.378,2.378,0,0,0-1.566,1.256,3.848,3.848,0,0,0-.271,1.988l.082.826c.638,6.411,1.3,13.04,3.063,19.05,1.664,5.663,6.557,9.938,13.089,11.434a4.527,4.527,0,0,1,2.464,1.3,3.575,3.575,0,0,1,.82,2.662c-.134,2.51.994,3.742,3.894,4.252.121.021.255.039.4.057a3.657,3.657,0,0,1,1.771.568c1.513,1.133,3.075,2.3,4.284,2.3.375,0,1.514,0,2.811-2.862a2.324,2.324,0,0,1,2.27-1.222,5.218,5.218,0,0,1,3.32,1.245c2.155,2.03,4.877,2.646,7.759,3.3a21.786,21.786,0,0,1,6.784,2.356,5.554,5.554,0,0,0,.9.382c.8.29,1.7.619,1.987,1.478.684,2.079,2.246,2.85,4.053,3.741a18.548,18.548,0,0,1,2.417,1.349,8.161,8.161,0,0,0,4.817,1.609,18.288,18.288,0,0,0,4.953-.954c.3-.085.6-.173.912-.259.735-.2,1.48-.438,2.2-.664a33.248,33.248,0,0,1,5.238-1.331,8.631,8.631,0,0,1,1.227-.095,4.773,4.773,0,0,1,4.333,2.5,23.033,23.033,0,0,0,2.1,2.7c1.789,2.083,3.638,4.237,3.778,7.541a2.913,2.913,0,0,0,1.005,1.391c1.7,1.5,3.444,3.345,3.58,5.636a6.688,6.688,0,0,1-2.058,4.836,2.5,2.5,0,0,0,.154,2.8c.221.262.356.262.421.262a3.3,3.3,0,0,0,1.277-.578c.209-.127.426-.259.643-.373a4.957,4.957,0,0,1,2.287-.616c1.821,0,3.112,1.221,4.236,2.541.914,1.072,1.595,1.693,2.369,1.693a2.612,2.612,0,0,0,1.278-.422,3,3,0,0,1,1.538-.415,3.775,3.775,0,0,1,2.336.87,18.018,18.018,0,0,0,5.3,2.61c.413.151.841.307,1.263.468a5.767,5.767,0,0,1,4.061,5.168,5.493,5.493,0,0,1-3.49,5.555,5.077,5.077,0,0,0-1.371.8,5.678,5.678,0,0,0,1.509.935c1.495.728,3.493,1.9,3.592,3.7.1,1.831-1.778,3.262-3.426,4.3a1.837,1.837,0,0,0-.284.212,2.356,2.356,0,0,0,.222.3c1.765,2.094,3.209,3.306,5.374,3.306.154,0,.312-.006.471-.019,1.03-.083,2.067-.125,3.082-.125.966,0,1.93.038,2.863.113a6.532,6.532,0,0,1,3.348,1.065,4.78,4.78,0,0,1,1.913,3.328,3.758,3.758,0,0,0,.472,1.487c3.927,1.816,3.337,4.966,2.549,7.181-.252.707.076,1.072,1.336,1.96l.11.078a13.557,13.557,0,0,1,4.246,4.5c1.923,3.475,1.3,6.53-1.746,8.6-1.682,1.144-2.259,1.743-1.639,3.515a3.3,3.3,0,0,1-.155,2.836,4.963,4.963,0,0,1-3.6,2.076,8.757,8.757,0,0,1-1.625.151,16.518,16.518,0,0,1-5.969-1.476,6.321,6.321,0,0,0-2.32-.487,5.575,5.575,0,0,0-3.225,1.115,17.66,17.66,0,0,1-5.057,2.416,20.336,20.336,0,0,1-5.674.788c-4.823.033-10.052.869-12.258,6.814a6.3,6.3,0,0,1-5.9,4.239c-2.167.086-3.174,1.245-3.369,3.875a36.107,36.107,0,0,1-1.284,8.07,2.838,2.838,0,0,0,.8,3.007,5.519,5.519,0,0,1,1.792,3.435c.011.2.036.413.062.645a6.3,6.3,0,0,1,.012,1.953,2.794,2.794,0,0,1-2.652,2.211,3.092,3.092,0,0,1-2.447-1.73c-.137-.2-.266-.386-.389-.533-.15-.179-.295-.361-.435-.538-.837-1.053-1.4-1.692-2.23-1.692a2.033,2.033,0,0,0-.412.045c-1.387.291-2.038,1.252-2.4,3.545-.035.22-.071.439-.107.657a37.187,37.187,0,0,0-.582,4.936c-.065,2.654-.439,5.42-2.714,7.662a4.053,4.053,0,0,0-1.092,2.646,10.64,10.64,0,0,1-6.817,9.439,4.647,4.647,0,0,0-2.724,3.033c-.022.07-.045.143-.069.217a4.127,4.127,0,0,1-1.548,2.549,4.7,4.7,0,0,0-2.751,3.458,12.634,12.634,0,0,0,.533,4.515c.169.716.344,1.457.463,2.182.514,3.107,2.653,4.661,7.15,5.194.389.046.766.12,1.13.192a7.839,7.839,0,0,0,1.46.2l.117,0c.143-.006.284-.008.42-.008a4.945,4.945,0,0,1,3.975,1.484,5.156,5.156,0,0,1,.806,4.334c-.174,1.025.023,1.294.046,1.322a.624.624,0,0,0,.406.092,4.5,4.5,0,0,0,1.229-.229,22.773,22.773,0,0,0,4.51-1.752,4.651,4.651,0,0,1,2.216-.708,2.2,2.2,0,0,1,1.968,1.15,5.065,5.065,0,0,1,.548,2.214l.008.132c.179,2.873.348,5.587,2.246,7.767a3.64,3.64,0,0,1,.471,3.332,21.24,21.24,0,0,1-6.465,11.359l-.092.082a5.428,5.428,0,0,1-2.92,1.669,47.878,47.878,0,0,0-9.748,2.1c-1.327.384-2.7.782-4.069,1.126a3.632,3.632,0,0,1-.9.1c-.215,0-.427-.011-.633-.022-.189-.01-.368-.019-.533-.019a1.191,1.191,0,0,0-.494.06,1,1,0,0,0-.061.448,3.443,3.443,0,0,0,2.561,3.665,12.45,12.45,0,0,0,2.65.263,23.71,23.71,0,0,0,3.488-.3,16.376,16.376,0,0,1,2.373-.189,6.82,6.82,0,0,1,5.328,1.985c1.4,1.561,1.9,3.929,1.54,7.24-.2,1.852-.279,3.766-.355,5.617-.025.624-.052,1.27-.082,1.905-.063,1.28.044,2.252.776,2.838a13.671,13.671,0,0,1,3.262,3.525,9.3,9.3,0,0,1,1.38,4.813c0,.177.011.59,1.543.763,1.76.2,2.891.852,3.361,1.945.477,1.112.141,2.515-.946,3.95-.665.877-.948,1.6-.8,2.046.116.341.6.843,2.232,1.293a8.541,8.541,0,0,1,4.23,2.359,6.848,6.848,0,0,1,1.665,4.595,2.38,2.38,0,0,0,.337,1.246,1.1,1.1,0,0,0,.8.5c3.54.548,5.277,3.052,6.809,5.262a17.355,17.355,0,0,0,2.263,2.835,2.559,2.559,0,0,1,.507,3.3c-1.518,2.2-1.882,4.728-2.268,7.406a3.707,3.707,0,0,1-.741,1.879,2.093,2.093,0,0,1-1.624.776,3.405,3.405,0,0,1-2.707-1.769c-1.315-2.062-2.312-3.413-4.112-3.413a5.768,5.768,0,0,0-1.865.365,2.872,2.872,0,0,1-.945.155,4.653,4.653,0,0,1-2.8-1.1,4.073,4.073,0,0,1-1.573-2.373,11.344,11.344,0,0,0-1.748-3.953c-1.011-1.686-2.056-3.429-2.053-5.686,0-1.194-.187-1.33-.451-1.391a.2.2,0,0,0-.068-.008,2.489,2.489,0,0,0-.486.686c-.066.115-.134.234-.206.349-1.279,2.057-3.191,4.42-6.646,4.42a10.018,10.018,0,0,1-2.918-.477,3.115,3.115,0,0,0-.908-.121,13.416,13.416,0,0,0-3.614.789c-.635.2-1.292.4-1.93.556-.442.107-.542.957-.558,1.126-.068.755-.2,1.583-.321,2.383-.272,1.751-.61,3.929-.113,4.74a40,40,0,0,1,2.847,6,46.826,46.826,0,0,0,1.924,4.314c.587,1.1,2.529,1.8,4.408,2.471.9.322,1.831.655,2.66,1.048.478.226.978.419,1.508.623a17.9,17.9,0,0,1,2.2.965c2.2,1.2,3.489,2.111,4,3.459s.178,2.81-.663,5.22c-.544,1.562-1.013,2.91-.833,3.277s1.524.821,3.219,1.384l.107.036a12.189,12.189,0,0,1,3.1,1.678l.08.057c1.368.971,2.549,1.809,3.958,1.809a3.878,3.878,0,0,0,1.075-.157,3.232,3.232,0,0,1,.887-.129,2.338,2.338,0,0,1,2.168,1.312,2.441,2.441,0,0,1-.681,2.877l-.111.126c-1.567,1.793-3.481,3.7-6.386,3.7a7.158,7.158,0,0,1-1.37-.137,3.191,3.191,0,0,0-.59-.043c-.1,0-.191,0-.286,0-.278,0-.559,0-.846,0-.173,0-.348,0-.523,0-1.6,0-2.617.167-3.09,1.021-.59,1.066-.165,2.159.605,3.832a15.707,15.707,0,0,1,.769,1.88c.069.223.1.275.425.275a5.925,5.925,0,0,0,.9-.107c.262-.044.533-.089.805-.112.208-.018.408-.027.594-.027a2.541,2.541,0,0,1,2.383,1.063c.678,1.15-.1,2.56-.359,3.023-1.188,2.149-2.628,4.287-5.1,5.366-1.758.768-2.378,1.987-2.909,3.968-1.895,7.062-3.853,14.365-8.116,20.735a8.052,8.052,0,0,0-.846,2.095c-.1.343-.213.7-.337,1.046-.033.094-.066.2-.1.31a4.062,4.062,0,0,1-.548,1.222,2.041,2.041,0,0,1-1.881.831,2.86,2.86,0,0,1-2.546-2.548,22.865,22.865,0,0,1-.326-4.126c.011-1.335-.232-1.639-.268-1.677a.256.256,0,0,0-.046,0,2.448,2.448,0,0,0-1.113.444,4.981,4.981,0,0,1-2.463.876,2.081,2.081,0,0,1-2-1.437,7.668,7.668,0,0,1-.412-2.43c-.18-3.22-1.035-3.22-1.546-3.22a7.237,7.237,0,0,0-2.667.774,41.416,41.416,0,0,1-4.523,1.6,24.18,24.18,0,0,0-6.706,2.84,2.607,2.607,0,0,1-1.48.5,2.522,2.522,0,0,1-2.325-1.9c-1.994-5.95-5.387-11.211-8.983-16.524a5.955,5.955,0,0,1-.531-1.046,5.342,5.342,0,0,0-.3-.629A6.1,6.1,0,0,1,433,608.26c-.178-1.2-.295-1.569-.725-1.689a.916.916,0,0,0-.241-.04c-.061,0-.094,0-.185.12a4.535,4.535,0,0,0-.441.92,4.633,4.633,0,0,1-1.116,1.855,3.374,3.374,0,0,1-2.266.816,4.6,4.6,0,0,1-3.181-1.347,4.026,4.026,0,0,1-1.2-2.866c.007-2.543-.958-3.555-1.685-4.094a12.958,12.958,0,0,0-4.5-1.658,6.19,6.19,0,0,0-1.434-.194c-.92,0-1.891.244-2.763,2.01-1.681,3.409-3.991,5.065-7.061,5.066-.094,0-.191,0-.287,0l-.091,0c-.689,0-.869.279-.947.76a3.908,3.908,0,0,1-1.706,2.805,5.851,5.851,0,0,1-2.874.8c-.8.052-1.127.329-1.151.418,0,.034.08.234.457.478,3.415,2.218,3.7,5.532,3.954,8.455a11.474,11.474,0,0,0,1.2,5.074,2.439,2.439,0,0,1,.313,1.915c-.333,1.292-1.648,2.182-2.756,2.813a9.464,9.464,0,0,0-3.936,3.36c-1.324,2.371-3.342,5.092-7.235,5.092-.276,0-.563-.014-.851-.041-.038,0-.076-.005-.114-.005a.841.841,0,0,0-.843.557c-.072.236-.031.279,0,.31a3.043,3.043,0,0,0,.81.442l.189.083a5.116,5.116,0,0,1,1.98,1.414,3.546,3.546,0,0,1,.753,2.571,3.963,3.963,0,0,1-3.272,3.651c-2.532.613-4.282,2.338-6.135,4.164a23.415,23.415,0,0,1-3.963,3.36c-.6.376-.274,1.347-.234,1.456a7.12,7.12,0,0,1-.367,6.39,11.233,11.233,0,0,1-4.543,3.866,5.059,5.059,0,0,0-2.037,1.673,3.234,3.234,0,0,0-.243,2.383,3.965,3.965,0,0,1-2.3,4.73A3.571,3.571,0,0,1,368.557,676.435ZM346.831,630.4a1.451,1.451,0,0,1,1.142.5,1.675,1.675,0,0,1,.293,1.436,9.861,9.861,0,0,0,.26,3.408c.486,2.611,1.09,5.86-2.713,8.151a2.122,2.122,0,0,0-.969,1.327c0,.019,0,.077.2.168a23.782,23.782,0,0,1,4.469,3c2.129,1.676,4.14,3.26,6.689,3.427,2.218.143,3.645.817,4.489,2.12a9.772,9.772,0,0,1,1.092,4.267c.075.682.14,1.377.2,2.049.451,4.789.878,9.312,4.579,12.741.15.139.293.278.431.413.65.635,1.073,1.024,1.565,1.024a1.6,1.6,0,0,0,.621-.151,1.848,1.848,0,0,0,1.05-.988,2.647,2.647,0,0,0,.079-1.514c-.7-3.53,1.271-5.119,3.295-6.209a9.528,9.528,0,0,0,3.781-3.143,5.159,5.159,0,0,0,.2-4.668,3.848,3.848,0,0,1-.192-1.978,2.707,2.707,0,0,1,1.249-1.859,21.6,21.6,0,0,0,3.615-3.086c1.965-1.937,4-3.94,7.066-4.683a2,2,0,0,0,1.75-1.854c.058-.787-.182-1.4-1.554-2.013l-.173-.076a4.317,4.317,0,0,1-1.449-.886,2.178,2.178,0,0,1-.473-2.279,2.8,2.8,0,0,1,2.757-1.975c.1,0,.2,0,.3.015.226.021.448.032.661.032,2.286,0,3.876-1.178,5.488-4.066a11.238,11.238,0,0,1,4.693-4.123c1.431-.815,1.748-1.336,1.81-1.575a.443.443,0,0,0-.083-.373,13.127,13.127,0,0,1-1.482-5.945c-.244-2.824-.454-5.264-3.05-6.95a2.466,2.466,0,0,1-1.3-2.661c.281-1.076,1.414-1.808,2.957-1.909,1.809-.116,2.525-.621,2.736-1.927a2.763,2.763,0,0,1,2.921-2.439q.079,0,.161,0c.071,0,.145,0,.216,0,2.3,0,3.919-1.219,5.267-3.95,1.038-2.1,2.528-3.126,4.557-3.126a8.143,8.143,0,0,1,1.9.249,14.353,14.353,0,0,1,5.226,2c1.685,1.251,2.5,3.117,2.493,5.706a2.025,2.025,0,0,0,.618,1.448,2.6,2.6,0,0,0,1.765.759,1.427,1.427,0,0,0,.947-.319,3.39,3.39,0,0,0,.578-1.1c.366-.915.919-2.3,2.483-2.3a2.9,2.9,0,0,1,.778.114,2.584,2.584,0,0,1,1.726,1.506,6.848,6.848,0,0,1,.441,1.817,4.654,4.654,0,0,0,.392,1.538,7.026,7.026,0,0,1,.419.871,4.326,4.326,0,0,0,.346.7c3.677,5.432,7.149,10.82,9.223,17.01.1.313.284.539.428.539a.712.712,0,0,0,.351-.146,26.063,26.063,0,0,1,7.242-3.1,39.317,39.317,0,0,0,4.306-1.522,8.883,8.883,0,0,1,3.478-.946,2.982,2.982,0,0,1,2.691,1.49,7.909,7.909,0,0,1,.852,3.617,9.4,9.4,0,0,0,.177,1.494,1.156,1.156,0,0,0,.192.484.288.288,0,0,0,.047,0,3.248,3.248,0,0,0,1.439-.594,4.289,4.289,0,0,1,2.138-.727,2.015,2.015,0,0,1,1.465.593,4.215,4.215,0,0,1,.85,3.1,20.865,20.865,0,0,0,.3,3.763c.036.2.192.865.716.9a.5.5,0,0,0,.117,0,2.617,2.617,0,0,0,.265-.657c.039-.123.079-.25.125-.378.109-.306.206-.623.308-.959a9.632,9.632,0,0,1,1.1-2.623c4.079-6.1,5.994-13.235,7.847-20.14.64-2.391,1.572-4.205,4.04-5.283,1.816-.793,2.972-2.373,4.148-4.5a2.347,2.347,0,0,0,.377-1.027,1.717,1.717,0,0,0-.651-.091c-.129,0-.271.007-.423.02-.193.017-.414.053-.648.092a7.439,7.439,0,0,1-1.224.134,2.277,2.277,0,0,1-2.336-1.683,14.051,14.051,0,0,0-.675-1.635c-.74-1.607-1.661-3.608-.538-5.637,1.136-2.052,3.545-2.052,4.84-2.052.181,0,.362,0,.541,0,.271,0,.538.005.8,0,.1,0,.211,0,.317,0a5.029,5.029,0,0,1,.977.081,5.152,5.152,0,0,0,.983.1c1.865,0,3.25-1.155,4.879-3.019l.122-.138a2.649,2.649,0,0,0,.405-.528c.018-.042.022-.05-.016-.124-.056-.111-.126-.209-.381-.209a1.256,1.256,0,0,0-.338.052,5.928,5.928,0,0,1-1.624.234c-2.046,0-3.606-1.107-5.115-2.178l-.08-.057a9.954,9.954,0,0,0-2.577-1.41l-.108-.036c-2.549-.847-3.828-1.272-4.383-2.4s-.12-2.354.738-4.817c.652-1.867.972-3.094.684-3.851s-1.355-1.466-3.094-2.417a16.174,16.174,0,0,0-1.96-.853c-.54-.208-1.1-.423-1.646-.682-.74-.351-1.583-.653-2.476-.972-2.237-.8-4.549-1.627-5.5-3.416a49.046,49.046,0,0,1-2.01-4.5,38.474,38.474,0,0,0-2.7-5.706c-.882-1.437-.53-3.7-.159-6.093.125-.8.243-1.565.306-2.258a2.986,2.986,0,0,1,2.077-2.888c.576-.14,1.175-.326,1.809-.523a14.764,14.764,0,0,1,4.207-.879,5.149,5.149,0,0,1,1.487.206,8.183,8.183,0,0,0,2.34.391c1.979,0,3.413-1.008,4.949-3.477.052-.084.108-.182.167-.285a2.672,2.672,0,0,1,2.229-1.693,2.275,2.275,0,0,1,.515.061,2.373,2.373,0,0,1,1.759,1.561,5.175,5.175,0,0,1,.238,1.78,9.162,9.162,0,0,0,1.768,4.656A13.031,13.031,0,0,1,490.833,549a2.273,2.273,0,0,0,.849,1.127,2.734,2.734,0,0,0,1.546.663.878.878,0,0,0,.287-.044,7.625,7.625,0,0,1,2.523-.476,5.049,5.049,0,0,1,3.511,1.392,14.326,14.326,0,0,1,2.287,2.945,1.658,1.658,0,0,0,1.02.845c.088,0,.291-.276.386-.94.4-2.79.817-5.673,2.6-8.257.122-.178-.018-.507-.226-.7a19.107,19.107,0,0,1-2.541-3.156c-1.492-2.151-2.781-4.009-5.472-4.425-1.684-.261-2.769-1.663-2.829-3.659a4.946,4.946,0,0,0-1.15-3.314,6.649,6.649,0,0,0-3.276-1.771c-1.289-.355-3.063-1.008-3.6-2.58-.386-1.138-.026-2.412,1.1-3.9.607-.8.876-1.549.7-1.953-.158-.368-.794-.64-1.746-.747a5.236,5.236,0,0,1-2.011-.564,2.446,2.446,0,0,1-1.309-2.15c-.048-2.634-1.212-4.672-3.893-6.814-1.479-1.187-1.6-2.939-1.523-4.5.03-.627.056-1.269.082-1.889.077-1.884.156-3.832.365-5.752.293-2.677-.057-4.59-1.041-5.688a4.883,4.883,0,0,0-3.839-1.32,14.38,14.38,0,0,0-2.08.167,25.635,25.635,0,0,1-3.78.32,14.42,14.42,0,0,1-3.072-.308c-2.546-.55-4.093-2.64-4.139-5.591a2.525,2.525,0,0,1,.636-1.883,2.6,2.6,0,0,1,1.919-.655c.217,0,.43.011.636.022.188.01.366.019.529.019a1.8,1.8,0,0,0,.409-.035c1.335-.335,2.689-.728,4-1.107a49.4,49.4,0,0,1,10.157-2.174c.467-.035,1.231-.717,1.737-1.167l.093-.083a19.31,19.31,0,0,0,5.85-10.331c.192-.8.181-1.306-.034-1.551-2.344-2.693-2.542-5.877-2.734-8.957l-.008-.132a3.192,3.192,0,0,0-.284-1.339c-.082-.142-.125-.149-.236-.149A2.782,2.782,0,0,0,482,456.9a24.479,24.479,0,0,1-4.91,1.922,6.334,6.334,0,0,1-1.807.315,2.4,2.4,0,0,1-1.934-.8,3.492,3.492,0,0,1-.49-2.947,3.342,3.342,0,0,0-.361-2.709,3.118,3.118,0,0,0-2.448-.775c-.11,0-.225,0-.341.007-.064,0-.13,0-.2,0a9.439,9.439,0,0,1-1.847-.237c-.342-.068-.665-.131-.977-.168-3.395-.4-8.01-1.551-8.888-6.854-.108-.658-.268-1.333-.436-2.048a14.044,14.044,0,0,1-.563-5.275,6.625,6.625,0,0,1,3.763-4.908,4.393,4.393,0,0,0,.606-1.4l.072-.229a6.69,6.69,0,0,1,3.829-4.254,8.662,8.662,0,0,0,5.623-7.768,5.984,5.984,0,0,1,1.681-3.907c1.672-1.647,2.056-3.7,2.119-6.288a38.666,38.666,0,0,1,.607-5.208q.053-.326.106-.651a8.66,8.66,0,0,1,1-3.105,4.393,4.393,0,0,1,2.972-2.082,4.039,4.039,0,0,1,.822-.088c1.85,0,2.929,1.357,3.8,2.447.139.175.27.34.4.5.183.218.346.454.5.682.251.365.6.865.8.865a.656.656,0,0,0,.264-.078c.468-.221.537-.551.388-1.861-.028-.248-.057-.505-.072-.76a3.754,3.754,0,0,0-1.26-2.184,4.82,4.82,0,0,1-1.241-4.96,33.911,33.911,0,0,0,1.2-7.626,6.941,6.941,0,0,1,1.3-3.9,5.071,5.071,0,0,1,3.984-1.824,4.276,4.276,0,0,0,4.106-2.937,12.378,12.378,0,0,1,2.466-4.13,10.948,10.948,0,0,1,3.444-2.493,19.459,19.459,0,0,1,8.208-1.5,16.454,16.454,0,0,0,9.616-2.855,7.575,7.575,0,0,1,4.354-1.464A8.272,8.272,0,0,1,525.3,364a14.457,14.457,0,0,0,5.238,1.337,6.752,6.752,0,0,0,1.253-.116,3.338,3.338,0,0,0,2.243-1.111,1.3,1.3,0,0,0,0-1.176,4.271,4.271,0,0,1,.1-3.636,6.954,6.954,0,0,1,2.3-2.192c2.2-1.492,2.552-3.392,1.121-5.978a11.646,11.646,0,0,0-3.651-3.84l-.108-.076a6.987,6.987,0,0,1-1.686-1.491,2.878,2.878,0,0,1-.382-2.775,4.95,4.95,0,0,0,.375-2.864c-.13-.477-.47-1.188-1.917-1.847-.989-.449-1.4-1.87-1.571-2.983a2.825,2.825,0,0,0-1.1-2,4.642,4.642,0,0,0-2.347-.7c-.881-.071-1.79-.107-2.7-.107-.962,0-1.945.04-2.923.118-.212.017-.424.025-.63.025-3.246,0-5.264-2.072-6.9-4.015a2.391,2.391,0,0,1-.711-1.892,2.363,2.363,0,0,1,1.233-1.6c2.3-1.453,2.512-2.235,2.5-2.5-.014-.25-.282-.948-2.472-2.015-1.414-.69-2.72-1.5-2.7-2.766s1.334-2.011,2.618-2.589a3.52,3.52,0,0,0,2.313-3.623,3.878,3.878,0,0,0-2.778-3.408c-.408-.156-.828-.309-1.235-.458a19.811,19.811,0,0,1-5.867-2.93,1.8,1.8,0,0,0-1.084-.43,1.01,1.01,0,0,0-.526.14,4.488,4.488,0,0,1-2.29.7c-1.706,0-2.9-1.237-3.891-2.4-.967-1.135-1.757-1.838-2.713-1.838a3,3,0,0,0-1.361.389c-.159.083-.338.192-.529.308a4.6,4.6,0,0,1-2.317.87,2.5,2.5,0,0,1-1.952-.976,4.441,4.441,0,0,1-.982-2.763,3.889,3.889,0,0,1,.867-2.657,4.847,4.847,0,0,0,1.554-3.388c-.073-1.242-.943-2.515-2.907-4.255a4.611,4.611,0,0,1-1.679-2.8c-.111-2.614-1.659-4.416-3.3-6.325a24.89,24.89,0,0,1-2.282-2.946,2.8,2.8,0,0,0-2.638-1.561,6.643,6.643,0,0,0-.943.074,31.246,31.246,0,0,0-4.923,1.259c-.736.231-1.5.47-2.263.683-.3.083-.6.17-.9.255a20.05,20.05,0,0,1-5.5,1.032,10.2,10.2,0,0,1-5.957-1.966,16.782,16.782,0,0,0-2.162-1.2c-1.906-.94-4.063-2-5.029-4.8a5.532,5.532,0,0,0-.809-.338,6.876,6.876,0,0,1-1.264-.557,19.986,19.986,0,0,0-6.179-2.11c-3.017-.683-6.137-1.39-8.689-3.794a3.253,3.253,0,0,0-1.948-.7,1.054,1.054,0,0,0-.461.077c-1.229,2.7-2.74,4.006-4.62,4.006s-3.626-1.312-5.48-2.7a2.619,2.619,0,0,0-.833-.187c-.158-.021-.321-.042-.486-.071a7.341,7.341,0,0,1-4.078-1.857,5.633,5.633,0,0,1-1.466-4.47c.05-.963-.212-1.552-1.735-1.9A21.255,21.255,0,0,1,401.95,251a17.472,17.472,0,0,1-5.347-8.23c-1.817-6.189-2.487-12.913-3.134-19.416l-.082-.826a5.751,5.751,0,0,1,.458-3.052,4.387,4.387,0,0,1,2.792-2.305c2.118-.638,3.363-1.466,3.807-2.53s.154-2.546-.891-4.513a42.232,42.232,0,0,0-2.7-4.237c-.739-1.065-1.5-2.166-2.186-3.307-.59-.985-.925-1.109-.964-1.12-.039.012-.357.14-.9,1.086-.674,1.169-1.355,2.363-2.013,3.518-1.459,2.559-2.967,5.206-4.515,7.776a28.912,28.912,0,0,1-1.97,3.029,2.914,2.914,0,0,1-2.229,1.3c-1.2,0-2.28-.877-4.422-2.625l-.258-.211c-1-.814-2.025-1.656-2.946-1.656a2.529,2.529,0,0,0-1.775,1.01c-1.9,2.066-3.2,2.908-4.486,2.908-1.813,0-3.059-1.654-4.374-4.138-.841-1.591-1.694-2.239-2.944-2.239a4.765,4.765,0,0,0-.884.091c-.817.156-1.643.271-2.443.382-.731.1-1.486.206-2.211.34a7.414,7.414,0,0,1-1.341.138c-2.645,0-3.3-2.061-3.58-3.856q-.046-.3-.092-.6c-.576-3.767-1.172-7.662-3.348-10.5a58.674,58.674,0,0,0-7.3-7.454c-.941-.854-1.914-1.737-2.851-2.626a3.584,3.584,0,0,0-2.534-1.034,4.315,4.315,0,0,0-.94.108c-1.271.285-2.571.539-3.828.785a56.025,56.025,0,0,0-9.045,2.294,8.9,8.9,0,0,1-3.1.725c-2.488,0-3.367-2.074-3.946-4.315-1.471-5.709-3.932-9.993-7.525-13.1a4.249,4.249,0,0,0-2.509-1.255c-.246,0-.994,0-1.746,1.351-2.125,3.819-5.624,5.554-9.008,7.233a26.45,26.45,0,0,0-5.689,3.427,2.374,2.374,0,0,1-1.6.568,6.147,6.147,0,0,1-1.751-.346c-.239-.073-.465-.141-.669-.187-4.41-1-7.5-3.876-10.5-6.661l-.708-.657a17.918,17.918,0,0,1-5.571-9.468,14.157,14.157,0,0,1,2.981-11.623c1.992-2.578,4.208-5.944,3.659-9.118-.38-2.2-.167-3.8.67-5.05a8.069,8.069,0,0,1,3.893-2.671,4.355,4.355,0,0,0,2.6-2.229,1.954,1.954,0,0,0-.27-1.7c-1.344-2.232-1.582-4.145-.728-5.848a10.538,10.538,0,0,1,3.831-3.634c1.306-.856,2.688-1.851,4.349-3.128,1.592-1.227,2.339-2.115,2.421-2.88.084-.781-.457-1.8-1.809-3.406a19.005,19.005,0,0,0-5.672-4.1,35.939,35.939,0,0,1-3.676-2.232,14.569,14.569,0,0,1-5.185-7.008,13.609,13.609,0,0,1-.125-8.669c.126-.381.268-.768.4-1.142.672-1.836,1.306-3.57.433-5-.424-.7-.9-1.35-1.409-2.042-1.489-2.035-3.029-4.139-3.014-7.215,0,0,0-.005,0-.007a1.083,1.083,0,0,0-.5-.269,7.4,7.4,0,0,0-1.266-.268l-.077-.011c-1.612-.23-3.619-.516-4.8-2.25-1.238-1.818-2.148-3.01-3.459-3.01a4.012,4.012,0,0,0-1.9.605,1.336,1.336,0,0,1-.67.169,3.121,3.121,0,0,1-2.151-1.121,2.33,2.33,0,0,0-1.969-1.2,5.12,5.12,0,0,0-2.214.683,4.942,4.942,0,0,1-2.083.625c-.465,0-1.988-.169-2.068-2.339-.117-3.137-2.011-5.18-4.016-7.343-.593-.639-1.206-1.3-1.776-1.995-1.937-2.36-4.551-3.869-7.317-5.466-3.408-1.967-6.931-4-9.15-7.764a1.749,1.749,0,0,0-.657-.265,12.023,12.023,0,0,0-1.292-.234c-2.061-.292-3.328-.99-3.871-2.133-.513-1.079-.288-2.43.667-4.014a1.836,1.836,0,0,0,.375-1.327c-.1-.35-.493-.711-1.178-1.072a10.259,10.259,0,0,1-4.977-6.1c-1.423-4.757-4.488-8.6-7.191-11.988a13.746,13.746,0,0,1-2.5-4.521,10.61,10.61,0,0,1-.225-5.372,4.4,4.4,0,0,0-.244-2.761,3.006,3.006,0,0,0-2.017-1.6l-.006,0c-2.795-.768-5.685-1.561-7.539-4.452-.026-.04-.077-.121-.29-.121a1.215,1.215,0,0,0-.456.1,47.336,47.336,0,0,0-10.393,5.659,20.785,20.785,0,0,0-6.982,9.184c-.228.594-.924,2.405-2.471,2.405a3.411,3.411,0,0,1-2.5-1.76,26.308,26.308,0,0,1-1.464-2.427l-.081-.146a12.4,12.4,0,0,0-3.153-3.934,5.59,5.59,0,0,0-3.477-1.207,11.1,11.1,0,0,0-5.694,2.041c-.1.061-.19.123-.289.188a3.608,3.608,0,0,1-2.01.783,2.834,2.834,0,0,1-1.717-.633,4.835,4.835,0,0,0-2.618-1.182c-.51,0-1.291.193-2.182,1.865a17.142,17.142,0,0,0-.735,1.671,11.271,11.271,0,0,1-1.309,2.61,3.4,3.4,0,0,1-2.819,1.461,6.415,6.415,0,0,1-2.8-.776l-.134.062c-1.032.471-2.829,3.091-3.864,6.248-.655,2-.683,3.363-.42,3.83.831,1.473,1.019,2.633.573,3.546-.607,1.242-2.081,1.557-3.666,1.793a5.869,5.869,0,0,1-.865.066,5.026,5.026,0,0,1-4.38-2.659q-.273-.447-.543-.895c-.677-1.118-1.377-2.274-2.122-3.353-.329-.476-1.329-1.925-1.958-1.925s-1.748,1.154-2.119,1.533c-.141.144-.278.3-.424.457a5.066,5.066,0,0,1-2.556,1.793c-.942.235-1.9.547-2.834.848a21.025,21.025,0,0,1-6.451,1.359,10.216,10.216,0,0,1-5.232-1.427l-.326-.187c-1.425-.813-2.77-1.58-2.919-3.787-.107-1.6-.239-3.218-.365-4.788-.092-1.144-.188-2.327-.274-3.493-.006-.075-.01-.153-.015-.231a3.529,3.529,0,0,0-.069-.6.964.964,0,0,0-.157.061,19.845,19.845,0,0,1-4.445,5.926c-1.787,1.841-3.476,3.58-4.289,5.94-1.211,3.513-3.406,5.573-6.523,6.122a8.178,8.178,0,0,1-1.423.138c-1.674,0-3.672-.736-3.678-4.241a47.56,47.56,0,0,0-.525-5.95c-.063-.484-.128-.985-.189-1.478-.012-.1-.022-.193-.032-.291-.109-1.029-.209-1.136-.492-1.2a.767.767,0,0,0-.169-.02c-.415,0-.829.472-1.216.982A68.454,68.454,0,0,1,68.4,29.653a3.6,3.6,0,0,0-.926,2.911,22.05,22.05,0,0,1-1.927,9.59c-1.025,2.437-.608,4.491,1.239,6.1,1.133.989,2.143,2.068,1.86,3.255-.289,1.213-1.688,1.662-3.35,2.085-1.939.493-3.084,1.174-3.5,2.081-.433.947-.17,2.356.806,4.306q.12.241.243.48a10.864,10.864,0,0,1,1.517,4.676A4.341,4.341,0,0,1,63.355,68.2a5.882,5.882,0,0,1-2.509,1.613,4.059,4.059,0,0,1-1.393.269c-2.057,0-2.957-1.935-3.253-2.57a8.127,8.127,0,0,0-.978-1.663A12.313,12.313,0,0,1,54.2,64.268c-.752-1.311-1.258-2.114-2.156-2.114a2.069,2.069,0,0,0-.4.043c-1.819.365-2.058,2.269-2.181,4.719-.153,3.093-.656,5.941-5.083,6.81-1.289.252-1.55,1.348-1.678,3.873-.011.223-.023.454-.037.677-.1,1.511.616,1.564.922,1.587a4.89,4.89,0,0,1,3.654,1.715,5.688,5.688,0,0,1,1.064,3.631,10.093,10.093,0,0,1-.715,4.085,5.622,5.622,0,0,1-3.4,3.014,7.141,7.141,0,0,0-3.368,2.3,10.175,10.175,0,0,1-2.431,2.313,5.076,5.076,0,0,1-2.788.844,8.384,8.384,0,0,1-4.419-1.569L31,96.072a2.965,2.965,0,0,0-1.41-.627,1.292,1.292,0,0,0-.477.1,10.7,10.7,0,0,0-3.947,2.64,9.037,9.037,0,0,0-2.107,3.7,8.922,8.922,0,0,0-.171,4.184A10.4,10.4,0,0,0,24.8,110.3c1.69,2.277,2.38,4.452,2.051,6.463a8.078,8.078,0,0,1-3.742,5.2c-1.087.758-1.265,1.182-1.3,1.467a4.742,4.742,0,0,0,.752,2.181,29.827,29.827,0,0,1,3.231,8.234,11.81,11.81,0,0,1-2.158,9.248,12.9,12.9,0,0,0-2.372,6.168,15.753,15.753,0,0,1-1.533,5.958,14.36,14.36,0,0,1-3.837,4.749l-.066.054c-1.013.834-1.126,1.093-.949,1.449a.624.624,0,0,0,.687.4,6,6,0,0,0,1.016-.134c.156-.029.318-.059.48-.085a29.915,29.915,0,0,0,6.8-2.227c.944-.393,1.92-.8,2.905-1.164a8.749,8.749,0,0,1,3-.588,4.68,4.68,0,0,1,3.723,1.589,6.1,6.1,0,0,1,1.008,5.109,40.843,40.843,0,0,1-4.474,13.671c-.17.3-.368.587-.559.864-.76,1.1-.916,1.472-.562,1.99.563.828,1.522,1.181,3.21,1.181.162,0,.333,0,.521-.01a6.151,6.151,0,0,0,1.461-.315c.256-.076.52-.154.791-.221.084-.021.181-.05.285-.082a3.635,3.635,0,0,1,1.07-.2,1.872,1.872,0,0,1,1.678,1.025,2.88,2.88,0,0,1-.327,2.958l-.028.051c-1.406,2.537-3.921,2.862-5.955,2.862l-.287,0h-.128c-4.245,0-6.432,2.666-8.409,6.669a2.456,2.456,0,0,0-.317,2.042c.273.582,1.127,1.059,2.47,1.381a32.332,32.332,0,0,1,7.745,3.335c1.356.732,2.758,1.488,4.173,2.1a3.562,3.562,0,0,1,1.673,1.454,3.1,3.1,0,0,1,.308,2.4c-.56,2.113-2.654,2.295-3.442,2.363-.236.021-.49.031-.8.031-.212,0-.424,0-.629-.009s-.4-.009-.588-.009c-1.126,0-1.668.18-2.07.688-1.116,1.406-2.261,2.667-3.992,2.667a4.83,4.83,0,0,1-2.684-.955.407.407,0,0,0-.214-.084c-.214,0-.618.338-.945.964-.089.171-.177.345-.265.519a14.694,14.694,0,0,1-1.452,2.447l-.039.05c-2.713,3.492-4.075,5.245-4.076,6.736s1.448,3.334,4.077,6.672c.992,1.26,1.846,2.493,1.406,3.736s-1.894,1.7-3.116,1.981c-1.323.3-2.113.716-2.346,1.24-.242.541-.006,1.456.7,2.72a2.932,2.932,0,0,1,.487,2.01A2.648,2.648,0,0,1,17.5,242.9a4.936,4.936,0,0,0-2.59,3.429,3.331,3.331,0,0,0,1.238,2.765c2.8,2.584,3.95,5.527,3.248,8.286a7.3,7.3,0,0,1-2.465,3.767,11.739,11.739,0,0,1-4.65,2.267,3.207,3.207,0,0,0-1.722.923,1.719,1.719,0,0,0-.27,1.492,8.662,8.662,0,0,1-.609,5.414,17.732,17.732,0,0,1-2.87,4.194c-.848,1-1.663,2.067-2.451,3.1s-1.613,2.121-2.484,3.146c-.654.772-.951,1.408-.859,1.84.107.5.79.92,1.344,1.184a29.46,29.46,0,0,1,5.931,4.1l.479.393,0,0c1.38,1.127,2.378,1.941,3.079,2.655a2.846,2.846,0,0,1-.2,4.84c-.76.663-1.828,1.406-3.307,2.434l0,0c-.086.061-.173.12-.261.179-.112.076-.219.148-.318.221l-.1.076c-.717.522-.873.7-.838.978.084.657.743.767,1.128.774,2.526.044,4.372,1.288,6.156,2.491.6.406,1.172.79,1.762,1.125,1.31.744,2.308,2.508,2.737,4.84.373,2.024.32,4.734-.948,6.27a24.513,24.513,0,0,0-3.678,5.632,12.794,12.794,0,0,0-1.112,6.413c.269,3.147-1.485,4-2.555,4.221-.807.171-1.833.5-2.136,1.118-.371.754.219,2.113.856,3.441a7.618,7.618,0,0,0,4.686,4.137,7.734,7.734,0,0,1,3.794,2.329,7.653,7.653,0,0,1,1.662,4.138c.021.17.039.344.058.529.194,1.9.45,2.2.987,2.2l.092,0c.982-.059,1.38-1.225,1.7-3.087.123-.706.253-1.423.38-2.115.735-4.035,1.5-8.208,1.065-12.33a16.618,16.618,0,0,1,2.414-11.085,15.51,15.51,0,0,1,9.361-6.3,5,5,0,0,0,2.622-1.439,3.75,3.75,0,0,0,.831-2.671A5.36,5.36,0,0,1,40.2,306.94a6.506,6.506,0,0,1,4.047-1.486c2.87-.231,4.8-1.805,6.063-4.953.216-.534.415-1.1.609-1.639a26.519,26.519,0,0,1,1.122-2.809,9.375,9.375,0,0,1,3.016-3.675,7.25,7.25,0,0,1,4.2-1.282,10.427,10.427,0,0,1,3.668.725,15.248,15.248,0,0,1,6.132,4.322,32.993,32.993,0,0,1,4.023,6.013c1.1,1.98-.169,3.529-.848,4.361-1.319,1.621-2.321,2.919-2.225,3.642.1.77,1.589,1.893,3.522,3.282l1.34.963-1.473.743c-.487.245-.942.454-1.383.656a12.573,12.573,0,0,0-2.205,1.179c-.274.2-.546.425-.834.662a6.175,6.175,0,0,1-3.851,1.854,4.1,4.1,0,0,1-1.313-.223,6.2,6.2,0,0,0-1.97-.352c-2.294,0-3.925,1.637-5.669,3.614-.353.4-.682.836-1.031,1.3a12.224,12.224,0,0,1-2.445,2.641,2.988,2.988,0,0,0-1.455,3.567,5.348,5.348,0,0,1-.475,4.129,4.776,4.776,0,0,1-3.171,1.983,2.444,2.444,0,0,0-1.085.512,1.248,1.248,0,0,0,.134.118,20.789,20.789,0,0,1,2.611,2.55c1.563,1.719,3.04,3.342,5.42,3.621l.038,0a5.775,5.775,0,0,1,1.729.4,2.145,2.145,0,0,1,1.341,2.012,1.977,1.977,0,0,1-1.16,1.915,4.35,4.35,0,0,1-1.561.307c-.149.01-.29.019-.4.033a8.22,8.22,0,0,0-3.883,1.489,11.386,11.386,0,0,0-2.882,3.182,32.107,32.107,0,0,1-3.229,4.012l-.518.579c-.994,1.114-1.068,1.515-1.072,1.6.045.058.32.338,1.633.674a21.883,21.883,0,0,0,5.572.593c1.086,0,2.2-.042,3.283-.083.914-.035,1.858-.071,2.793-.082.23,0,.461,0,.685,0,2.685,0,4.12-.113,4.825-2.431a2.576,2.576,0,0,1,2.5-1.727,2.68,2.68,0,0,1,.394.029,6.078,6.078,0,0,0,.906.071c1.8,0,3.235-.851,4.959-2.937a3.348,3.348,0,0,1,2.463-1.22,1.917,1.917,0,0,1,1.46.612,2.069,2.069,0,0,1,.455,1.684c-.214,1.883.633,3.437,1.53,5.081a10.975,10.975,0,0,1,1.776,5.288,1.756,1.756,0,0,0,.217,1.02.275.275,0,0,0,.267.12,2.173,2.173,0,0,0,1.144-.469,24.589,24.589,0,0,0,10.779-17.8,3.8,3.8,0,0,0-.007-.675,3.74,3.74,0,0,1,.122-1.521,2.12,2.12,0,0,1,1.62-1.356,3.94,3.94,0,0,1,.933-.116,3.638,3.638,0,0,1,3.4,2.526,10.185,10.185,0,0,1,.753,3.522,4.394,4.394,0,0,0,1.451,3.427,13.139,13.139,0,0,0,3.46,1.973c.49.219,1,.446,1.477.687a1.045,1.045,0,0,0,.447.138c.319,0,.712-.646,1.06-1.215a5.141,5.141,0,0,1,1.784-2.009,2.775,2.775,0,0,0,.561-.516c.086-.093.175-.189.27-.285,1.557-1.578,3.409-3.263,5.652-3.263a6.278,6.278,0,0,1,4.471,2.293,1.4,1.4,0,0,0,.759.5c.174,0,.565-.489.691-1.424a4.326,4.326,0,0,1,1.522-3.039,4.492,4.492,0,0,1,2.86-.8c.328,0,.686.018,1.094.054a11.728,11.728,0,0,1,7.17,3,3.835,3.835,0,0,0,2.448,1.3,4.034,4.034,0,0,0,2.446-1.194,6.828,6.828,0,0,1,4.346-1.77,4.854,4.854,0,0,1,4.368,2.764c.484.925,1,1.864,1.5,2.772a42.148,42.148,0,0,1,4.506,10.218,14.942,14.942,0,0,1,.524,3.575,4.844,4.844,0,0,1-.767,2.8c-.894,1.307-2.552,2.054-5.376,2.423a7.959,7.959,0,0,0-4.547,1.954,10.654,10.654,0,0,0-2.562,4.173c-1.017,2.671-2.712,5.849-6.836,6.722-1.232.26-1.521.6-1.605,1.1-.107.633.067,1.155,1.264,1.8a26.214,26.214,0,0,1,6.97,5.539,45.168,45.168,0,0,1,5.111,6.938c2.956,4.8,6.472,7.384,11.4,8.39a4.49,4.49,0,0,1,3.191,1.9A4.614,4.614,0,0,1,158.81,414c-.769,2.552-.885,4.235-.378,5.457.529,1.273,1.812,2.231,4.158,3.108,6.846,2.559,9.007,8.153,11.1,13.563.16.415.326.845.492,1.266,1.122,2.862-.567,4.1-1.674,4.582a5.675,5.675,0,0,1-1.273.337,2.926,2.926,0,0,0-.994.284c-.128.1-.064.525-.041.653a3.867,3.867,0,0,0,2.581,3.229,23.777,23.777,0,0,1,8.182,3.752,12.021,12.021,0,0,1,4.437,8.394,2.185,2.185,0,0,0,2.025,2.1,3.256,3.256,0,0,0,1.692-.572,13.922,13.922,0,0,1,7.36-2.2,12.35,12.35,0,0,1,4.624.892,13.1,13.1,0,0,1,4.132,2.675,23.585,23.585,0,0,0,6.085,4.3,17.284,17.284,0,0,0,7.089,1.7,4.369,4.369,0,0,1,3.537,1.588,6.933,6.933,0,0,1,1.159,3.265,3.708,3.708,0,0,1-.893,3.261,4.914,4.914,0,0,1-2.778,1.311c-2.123.368-3.771,1.562-5.343,3.872-.569.84-.531,1.154-.517,1.209.019.077.173.165.22.19,2.329,1.244,3.625,3.225,4.879,5.142.5.767.976,1.492,1.513,2.17,1.283,1.624,4.18,2.758,7.046,2.758a6.289,6.289,0,0,0,4.383-1.389,3.134,3.134,0,0,1,2.183-1.1,3.4,3.4,0,0,1,2.25,1.159l.2.183c1.459,1.3,3.253,2.623,5.513,2.623.18,0,.363-.008.546-.024.243-.022.477-.033.693-.033a2.87,2.87,0,0,1,2.536,1.051c.536.779.525,1.865-.033,3.322-1.9,4.968-3.351,9.154-3.246,14,.087,4.038.991,6.594,3.119,8.821a2.386,2.386,0,0,0,1.533.914,2.519,2.519,0,0,0,1.6-.978,49.591,49.591,0,0,1,3.9-3.573,32.193,32.193,0,0,0,5.339-5.309,5.886,5.886,0,0,1,4.758-2.315,5.54,5.54,0,0,1,4.2,1.783,4.932,4.932,0,0,1,1.407,3.615,6.008,6.008,0,0,1-2.429,4.038c-.627.54-.941.967-.96,1.305a1.4,1.4,0,0,0,.488.934,12.25,12.25,0,0,1,3.127,8.512A12.032,12.032,0,0,1,265,538.2l-.093.092c-1.067,1.059-1.708,1.776-1.622,2.791.034.322.86,1.662,3.09,3.542,1.964,1.656,3.659,2.549,4.257,2.549h.016c.211-.012.419-.018.617-.018a6.425,6.425,0,0,1,5.718,3.1,3.5,3.5,0,0,0,2.553,1.777,3.344,3.344,0,0,0,2.279-1.233,4.464,4.464,0,0,1,3.013-1.683,2.515,2.515,0,0,1,.9.169,5,5,0,0,0,1.8.369c1.34,0,2.52-.667,4.075-2.3a6.683,6.683,0,0,1,2.521-1.443c.236-.092.458-.179.669-.269a3.069,3.069,0,0,1,1.224-.286,2.013,2.013,0,0,1,1.624.8l0,0a2.258,2.258,0,0,1-.175,2.885c-1.112,1.4-1.534,2.515-1.328,3.5a7.7,7.7,0,0,1-.366,4.641,11.88,11.88,0,0,1-2.539,3.65,2.9,2.9,0,0,0-1.009,2.218c.156.887,1.162,1.562,1.98,1.972a11.249,11.249,0,0,0,4.852,1.04c.442.014.893.025,1.33.036,1.6.041,3.256.083,4.889.244.121.012.257.021.4.03a5.607,5.607,0,0,1,1.714.3,2.318,2.318,0,0,1,1.484,1.766,2.142,2.142,0,0,1-.472,1.821,5.432,5.432,0,0,1-1.055.927c-.179.131-.348.255-.478.37A12.1,12.1,0,0,1,301.1,574c-.221.049-.442.1-.662.15-2.038.47-2.331,1.083-2.348,1.62-.019.623.212.833,1.88,1.124.167.029.341.06.509.093.215.043.427.082.652.123,1.821.335,3.886.714,5.071,2.762a15.147,15.147,0,0,0,2.748,3.165,18.557,18.557,0,0,1,2.324,2.519c1.881,2.639,3.976,6.7,4.213,10.2a12.1,12.1,0,0,1-1.256,6.482,8.88,8.88,0,0,1-2.315,2.785,9.913,9.913,0,0,1-3.712,1.8c-.9.235-1.277.555-1.307.713s.148.7,1.275,1.516c.162.117.344.233.536.356.891.568,2.237,1.427,2.005,3.221a3.894,3.894,0,0,0-.02,1.311,6.656,6.656,0,0,0,1.337-.421c.163-.062.332-.127.5-.19a9.693,9.693,0,0,1,3.209-.775,2.6,2.6,0,0,1,2.413,1.4,10.138,10.138,0,0,1,.9,3.247c.079.494.117.994.153,1.478a9.848,9.848,0,0,0,.358,2.319,10.159,10.159,0,0,1,1.684-2.234c.483-.448.948-.946,1.44-1.473,1.692-1.811,3.609-3.865,6.592-3.865a7.091,7.091,0,0,1,1.436.153,6.542,6.542,0,0,0,1.327.152,3.656,3.656,0,0,0,2.891-1.4c.083-.091.174-.2.271-.314a3.237,3.237,0,0,1,2.349-1.488,2.276,2.276,0,0,1,1.358.48,2.33,2.33,0,0,1,.923,2.393,6.59,6.59,0,0,1-.719,1.834l-.01.02a27.636,27.636,0,0,1-1.976,3.116l-.028.041a3.393,3.393,0,0,0-.3,3.755c1.312,2.568,2.731,5.252,4.218,7.977.937,1.715,1.736,1.715,2,1.715a3.048,3.048,0,0,0,1.6-.607A4.693,4.693,0,0,1,346.831,630.4Z" transform="translate(0 -0.001)"/>
    </g>
  </g>
</svg>
