<svg xmlns="http://www.w3.org/2000/svg" xmlns:xlink="http://www.w3.org/1999/xlink" width="479.172" height="599.317" viewBox="0 0 479.172 599.317">
  <defs>
    <clipPath id="clip-path">
      <rect id="Rectangle_11" data-name="Rectangle 11" width="478.625" height="599.317" fill="none" stroke="#000" stroke-width="2"/>
    </clipPath>
  </defs>
  <g id="Group_15" data-name="Group 15" transform="translate(-309 -1570.283)">
    <g id="Group_10" data-name="Group 10" transform="translate(309.548 1570.283)" opacity="0.19">
      <g id="Group_3" data-name="Group 3" clip-path="url(#clip-path)">
        <path id="Path_1" data-name="Path 1" d="M327.023,600.318a3.9,3.9,0,0,1-2.708-1.446c-.119-.116-.232-.226-.346-.332a12.873,12.873,0,0,1-3.625-6.014,34.567,34.567,0,0,1-1.034-6.5c-.056-.59-.113-1.2-.178-1.791a7.44,7.44,0,0,0-.677-2.965c-.271-.419-.8-.913-2.522-1.024-2.846-.186-4.948-1.841-6.98-3.441a19.4,19.4,0,0,0-3.6-2.436,2.027,2.027,0,0,1-1.255-1.761,3.587,3.587,0,0,1,1.771-2.89c2.149-1.294,1.991-2.771,1.526-5.27a13.018,13.018,0,0,1-.318-2.918c-.083.047-.168.1-.253.155a4.508,4.508,0,0,1-2.461.853c-1.368,0-2.522-.843-3.43-2.5-1.328-2.434-2.6-4.831-3.767-7.124a4.874,4.874,0,0,1,.4-5.272l.023-.033a23.142,23.142,0,0,0,1.626-2.554l.01-.019a4.443,4.443,0,0,0,.454-1.085c.034-.194,0-.218-.078-.276a.526.526,0,0,0-.087-.054,3.27,3.27,0,0,0-.64.642c-.093.111-.19.226-.289.335a5.092,5.092,0,0,1-3.961,1.855,7.654,7.654,0,0,1-1.561-.174,4.4,4.4,0,0,0-.891-.1c-1.827,0-3.111,1.375-4.47,2.83-.44.472-.9.959-1.375,1.4a8.192,8.192,0,0,0-1.259,1.734c-.232.379-.472.771-.754,1.185l-.773,1.133-.842-1.082a7.233,7.233,0,0,1-1.348-4.288c-.03-.408-.059-.793-.117-1.152a8.318,8.318,0,0,0-.579-2.254.449.449,0,0,0-.5-.284,8.141,8.141,0,0,0-2.2.573c-.142.052-.283.106-.422.159a5.657,5.657,0,0,1-1.921.5,1.718,1.718,0,0,1-1.341-.574,3.319,3.319,0,0,1-.453-2.721c.044-.34-.1-.5-.922-1.025-.187-.119-.38-.242-.57-.38-1.807-1.312-2.018-2.477-1.877-3.223.132-.7.679-1.625,2.541-2.109a6.262,6.262,0,0,0,4.158-3.13,8.871,8.871,0,0,0,.9-4.732c-.184-2.713-1.942-6.05-3.392-8.084a14.881,14.881,0,0,0-1.832-1.968,14.865,14.865,0,0,1-2.765-3.225c-.616-1.064-1.817-1.284-3.207-1.54-.2-.036-.4-.074-.6-.114-.128-.025-.265-.049-.41-.074a5.988,5.988,0,0,1-1.977-.591,2.44,2.44,0,0,1-1.252-2.325c.078-2.416,2.688-3.018,3.546-3.216.2-.046.4-.091.6-.136a9.169,9.169,0,0,0,4.281-1.726c.18-.16.374-.3.562-.439a2.876,2.876,0,0,0,.62-.538v0c-.022-.109-.038-.137-.161-.186a3.684,3.684,0,0,0-.951-.139c-.136-.009-.277-.018-.415-.032-1.381-.136-2.814-.173-4.2-.208-.4-.01-.795-.02-1.192-.033a11.905,11.905,0,0,1-5.092-1.122c-2.015-1.012-2.618-2.25-2.769-3.11a4.131,4.131,0,0,1,1.384-3.592c1.664-1.756,2.6-3.317,2.1-5.673-.3-1.449.2-2.975,1.545-4.666a.829.829,0,0,0,.127-.211,1.344,1.344,0,0,0-.272.091c-.22.095-.443.182-.658.265a4.58,4.58,0,0,0-1.553.821c-1.237,1.3-2.8,2.63-4.984,2.63a6.364,6.364,0,0,1-2.273-.452.343.343,0,0,0-.126-.024c-.425,0-1.1.692-1.319.92a4.248,4.248,0,0,1-7.2-.724,3.838,3.838,0,0,0-3.521-1.936c-.14,0-.287,0-.438.013-.04,0-.082,0-.123,0-1.616,0-4.043-1.9-5.012-2.721-1.212-1.024-3.264-2.958-3.388-4.41-.157-1.845,1.033-3.027,1.99-3.977l.082-.081a9.27,9.27,0,0,0,.148-12.337,3,3,0,0,1-.94-2.22,3.68,3.68,0,0,1,1.505-2.488,3.671,3.671,0,0,0,1.5-2.287,2.554,2.554,0,0,0-.787-1.831,3.078,3.078,0,0,0-2.308-.937,3.331,3.331,0,0,0-2.7,1.285,30.438,30.438,0,0,1-5.034,5.03,41.941,41.941,0,0,0-3.317,3.033,3.892,3.892,0,0,1-2.793,1.456,3.792,3.792,0,0,1-2.724-1.393,11.008,11.008,0,0,1-2.563-4.225,16.37,16.37,0,0,1-.728-4.866,24.644,24.644,0,0,1,.874-6.85,60.492,60.492,0,0,1,2.131-6.292c.332-.867.251-1.162.237-1.2a1.3,1.3,0,0,0-.7-.117c-.136,0-.287.007-.449.022-.218.019-.436.029-.65.029a9.2,9.2,0,0,1-6.145-2.8l-.193-.173c-.224-.2-.6-.542-.731-.542,0,0-.186,0-.606.423a7.321,7.321,0,0,1-5.22,1.782,12.244,12.244,0,0,1-4.307-.8,7.977,7.977,0,0,1-3.425-2.366c-.529-.668-.993-1.377-1.442-2.063a10.55,10.55,0,0,0-3.639-3.931,2.136,2.136,0,0,1-1.138-1.38,3.359,3.359,0,0,1,.729-2.586,9.08,9.08,0,0,1,5.98-4.235,2.611,2.611,0,0,0,1.426-.611,1.407,1.407,0,0,0,.286-1.318c-.289-2.02-.837-2.648-2.349-2.688-4.686-.127-8.918-2.039-12.936-5.844a9.284,9.284,0,0,0-6.471-2.648,10.469,10.469,0,0,0-5.53,1.662,4.724,4.724,0,0,1-2.5.8,3.816,3.816,0,0,1-3.67-3.524,8.756,8.756,0,0,0-3.241-6.2,19.474,19.474,0,0,0-6.617-2.994,5.223,5.223,0,0,1-3.614-4.344,2.3,2.3,0,0,1,.73-2.4,3.728,3.728,0,0,1,1.708-.624,3.806,3.806,0,0,0,.713-.172c.564-.246.929-.508.483-1.647-.148-.378-.3-.762-.44-1.133-1.783-4.615-3.467-8.974-8.746-10.947-2.577-.963-4.093-2.171-4.771-3.8-.63-1.514-.546-3.4.271-6.111a2.454,2.454,0,0,0,.047-1.866,2.336,2.336,0,0,0-1.588-.808,16.037,16.037,0,0,1-6.55-2.859,19.165,19.165,0,0,1-4.795-5.445,38.257,38.257,0,0,0-4.321-5.873,21.405,21.405,0,0,0-5.685-4.527,4.5,4.5,0,0,1-1.578-1.282,2.925,2.925,0,0,1-.511-2.292,3.25,3.25,0,0,1,2.9-2.5,5.276,5.276,0,0,0,2.927-1.66,9.71,9.71,0,0,0,1.765-3.13,11.232,11.232,0,0,1,2.754-4.415,8.877,8.877,0,0,1,5.073-2.221c1.9-.248,3-.675,3.458-1.344.486-.711.468-1.987-.06-4.139a35.976,35.976,0,0,0-3.818-8.6c-.45-.815-.915-1.657-1.355-2.5a2.416,2.416,0,0,0-2.2-1.44,4.277,4.277,0,0,0-2.642,1.128,5.277,5.277,0,0,1-3.385,1.5,5.092,5.092,0,0,1-3.458-1.659,8.571,8.571,0,0,0-5.242-2.161c-.307-.027-.57-.04-.8-.04-1.206,0-1.815.265-2.017,1.773-.236,1.762-1.211,2.9-2.483,2.9a2.863,2.863,0,0,1-2.031-1.02,3.849,3.849,0,0,0-2.61-1.459c-1.135,0-2.289.934-3.673,2.336-.064.065-.129.135-.2.209a3.863,3.863,0,0,1-.983.834,3.411,3.411,0,0,0-.869,1.106c-.51.836-1.209,1.982-2.551,1.982a2.777,2.777,0,0,1-1.244-.323c-.388-.194-.8-.378-1.235-.573a13.032,13.032,0,0,1-3.569-2.077,5.743,5.743,0,0,1-1.9-4.415,7.179,7.179,0,0,0-.542-2.466,1.421,1.421,0,0,0-1.253-1.035,1.613,1.613,0,0,0-.381.049.74.74,0,0,0-.115.036,3.24,3.24,0,0,0,.006.564,4.843,4.843,0,0,1-.007.97,23.634,23.634,0,0,1-10.374,17.1,3.747,3.747,0,0,1-2.076.742,2.125,2.125,0,0,1-1.759-.878,3.363,3.363,0,0,1-.558-2.015,8.193,8.193,0,0,0-1.346-3.795,9.338,9.338,0,0,1-1.586-5.529,1.229,1.229,0,0,0-.543.362c-1.267,1.534-3.076,3.293-5.856,3.293a7.283,7.283,0,0,1-1.085-.084.533.533,0,0,0-.483.19,4.4,4.4,0,0,1-2.66,3.076,9.515,9.515,0,0,1-3.424.418c-.2,0-.392,0-.588,0-.8.009-1.631.041-2.429.071-.976.037-1.985.075-2.984.075a21.2,21.2,0,0,1-5.411-.585c-1.188-.3-2.45-.764-2.789-1.874s.446-2.213,1.349-3.225l.463-.517a27.072,27.072,0,0,0,2.682-3.32,11.938,11.938,0,0,1,3.044-3.336,9.136,9.136,0,0,1,4.314-1.662c.156-.019.315-.03.468-.04a4.014,4.014,0,0,0,.65-.077.289.289,0,0,0,0-.035,3.186,3.186,0,0,0-1.055-.24l-.034,0c-2.813-.33-4.5-2.183-5.985-3.818a16.785,16.785,0,0,0-2.073-2.039,1.891,1.891,0,0,1-.857-1.966,3.068,3.068,0,0,1,2.45-1.931,2.455,2.455,0,0,0,1.628-.935,2.988,2.988,0,0,0,.166-2.242,4.769,4.769,0,0,1,.152-2.907,5.181,5.181,0,0,1,1.872-2.187,9.33,9.33,0,0,0,1.775-1.957c.317-.419.644-.851,1-1.26,1.717-1.946,3.628-3.846,6.446-3.846a7.382,7.382,0,0,1,2.351.412,1.736,1.736,0,0,0,.561.1,3.962,3.962,0,0,0,2.218-1.216c.264-.217.537-.441.822-.651a11.1,11.1,0,0,1,1.955-1.088c-1.48-1.13-2.379-2.043-2.532-3.194-.186-1.4.776-2.7,2.382-4.673.785-.962.829-1.284.564-1.763-1.866-3.382-4.023-6.808-8.025-8.318a7.383,7.383,0,0,0-2.588-.522c-2.036,0-3.62,1.124-4.709,3.342a21.8,21.8,0,0,0-.912,2.294c-.178.5-.362,1.018-.568,1.528a9.565,9.565,0,0,1-2.573,3.806,7.525,7.525,0,0,1-4.406,1.764,4.033,4.033,0,0,0-2.46.823,2.951,2.951,0,0,0-.736,2.358,5.193,5.193,0,0,1-1.2,3.653,6.255,6.255,0,0,1-3.291,1.872c-6.368,1.615-9.745,6.626-9.034,13.4.41,3.927-.289,7.764-.965,11.476-.111.611-.226,1.243-.334,1.862a9,9,0,0,1-.73,2.533,2.951,2.951,0,0,1-2.527,1.766c-.066,0-.131.006-.195.006a2.411,2.411,0,0,1-2.3-1.518,7.066,7.066,0,0,1-.453-2.134c-.016-.153-.03-.3-.047-.427A4.982,4.982,0,0,0,14.1,305.9a5.053,5.053,0,0,0-2.478-1.481,8.6,8.6,0,0,1-5.307-4.658c-.8-1.664-1.456-3.274-.752-4.7a4.221,4.221,0,0,1,3.2-2c.34-.072.909-.192.776-1.738-.437-5.106,2.118-8.957,4.676-12.051.559-.677.744-2.367.44-4.019a4.555,4.555,0,0,0-1.5-3c-.587-.333-1.147-.71-1.687-1.075-1.418-.956-2.758-1.859-4.441-1.888a3.185,3.185,0,0,1-1.75-.525,2.514,2.514,0,0,1-1.09-1.808,2.808,2.808,0,0,1,1.5-2.633l.089-.065c.115-.084.227-.16.335-.234.07-.047.139-.095.208-.143l.011-.008c1.215-.845,2.175-1.512,2.771-2.032.624-.544.639-.748.639-.756s0-.21-.572-.794c-.549-.56-1.445-1.291-2.578-2.216l0,0-.429-.352a24.348,24.348,0,0,0-4.876-3.39,3.6,3.6,0,0,1-2.226-2.358,3.813,3.813,0,0,1,1.168-3.249c.74-.872,1.452-1.808,2.141-2.713.715-.94,1.454-1.911,2.241-2.835,1.8-2.106,3.24-4.081,2.673-6.932a3.36,3.36,0,0,1,.623-2.878,4.6,4.6,0,0,1,2.533-1.462c2.632-.666,4.481-2.158,4.947-3.99.444-1.746-.385-3.7-2.334-5.5a4.828,4.828,0,0,1-1.7-4.019,6.126,6.126,0,0,1,3.182-4.466,2.067,2.067,0,0,0,.325-.236,2.486,2.486,0,0,0-.214-.456c-.6-1.082-1.331-2.682-.7-4.1.625-1.4,2.234-1.91,3.389-2.172a2.89,2.89,0,0,0,1.4-.546,1.28,1.28,0,0,0-.179-.436,9.4,9.4,0,0,0-.766-1.082c-2.679-3.4-4.024-5.108-4.022-7.089s1.342-3.694,4.013-7.133l.036-.046a11.462,11.462,0,0,0,1.095-1.867c.081-.16.162-.32.245-.478a3,3,0,0,1,2.512-1.871,2.2,2.2,0,0,1,1.242.4,2.559,2.559,0,0,0,1.329.527c.632,0,1.213-.581,2.064-1.653a3.883,3.883,0,0,1,3.315-1.325c.191,0,.381,0,.564.008s.349.008.516.008c.215,0,.388-.006.542-.02,1.146-.1,1.31-.376,1.4-.7a1.043,1.043,0,0,0-.68-1.2c-1.332-.574-2.613-1.265-3.852-1.934a26.862,26.862,0,0,0-6.416-2.785c-1.82-.436-2.952-1.175-3.461-2.26a3.9,3.9,0,0,1,.3-3.449,15.939,15.939,0,0,1,3.315-4.78,8.309,8.309,0,0,1,5.838-2.189l.368,0c1.659,0,2.912-.266,3.632-1.566l.025-.045a2.262,2.262,0,0,0,.31-.708c-.082.021-.18.05-.26.074-.111.033-.225.068-.347.1-.2.049-.4.109-.618.173a7.019,7.019,0,0,1-1.771.356c-.186.006-.359.009-.524.009a4.987,4.987,0,0,1-4.408-1.874,2.584,2.584,0,0,1-.363-2.3,5.915,5.915,0,0,1,.87-1.6c.153-.221.3-.43.407-.625a34.474,34.474,0,0,0,3.752-11.521,3.694,3.694,0,0,0-.479-3,2.3,2.3,0,0,0-1.859-.738,5.9,5.9,0,0,0-2.01.405c-.836.308-1.684.662-2.5,1a28.375,28.375,0,0,1-6.467,2.1c-.119.019-.244.042-.377.067a6.861,6.861,0,0,1-1.246.15,2.421,2.421,0,0,1-2.3-1.4,2.283,2.283,0,0,1,.129-2.342,5.49,5.49,0,0,1,1.2-1.24l.057-.047a10.961,10.961,0,0,0,4.084-8.181,13.407,13.407,0,0,1,2.446-6.426c3.406-4.814,1.12-9.26-1.09-13.559a5.344,5.344,0,0,1-.863-3.014,3.973,3.973,0,0,1,1.947-2.633,5.394,5.394,0,0,0,2.536-3.37A5.86,5.86,0,0,0,20.486,99a11.1,11.1,0,0,1-2.031-4.518,9.787,9.787,0,0,1,.19-4.589,10.621,10.621,0,0,1,6.493-6.866,3.036,3.036,0,0,1,1.117-.222,4.162,4.162,0,0,1,2.263.851l.161.1a5.811,5.811,0,0,0,2.915,1.1c.695,0,1.681-.237,3.153-2.088a8.251,8.251,0,0,1,3.835-2.642c1.716-.607,2.387-1.876,2.392-4.524a3.256,3.256,0,0,0-.536-2.045,2.522,2.522,0,0,0-1.9-.812c-1.711-.126-2.693-1.434-2.562-3.414.012-.183.021-.372.032-.572a10.252,10.252,0,0,1,.442-2.952,3.273,3.273,0,0,1,2.569-2.241,3.155,3.155,0,0,0,2.393-1.357A6.542,6.542,0,0,0,42,59.281a11.459,11.459,0,0,1,.52-3.351,3.787,3.787,0,0,1,2.929-2.593,3.719,3.719,0,0,1,.729-.075A3.137,3.137,0,0,1,48.5,54.3a8.919,8.919,0,0,1,1.228,1.787,9.442,9.442,0,0,0,.738,1.162,9.242,9.242,0,0,1,1.106,1.858c.554,1.191.974,1.191,1.176,1.191a1.74,1.74,0,0,0,.584-.123c1.372-.507,1.918-1.179,1.884-2.318a8.086,8.086,0,0,0-1.142-3.35q-.111-.219-.221-.438c-1.153-2.306-1.389-4.038-.743-5.45.621-1.357,2.046-2.3,4.355-2.891a7.89,7.89,0,0,0,1.508-.489,5.639,5.639,0,0,0-.962-1,6.216,6.216,0,0,1-1.6-7.57,17.727,17.727,0,0,0,1.563-7.7,5.041,5.041,0,0,1,1.417-4.04,59,59,0,0,0,6.428-7.363,3.374,3.374,0,0,1,2.582-1.617,2.573,2.573,0,0,1,.56.063,2.2,2.2,0,0,1,1.584,1.275,4.54,4.54,0,0,1,.318,1.432c.008.078.016.154.025.229.053.429.11.87.166,1.3a43.6,43.6,0,0,1,.481,5.518c0,1.741.6,1.88,1.377,1.88a5.494,5.494,0,0,0,.935-.094c2.068-.365,3.485-1.735,4.331-4.189a16.359,16.359,0,0,1,4.235-5.97A15.62,15.62,0,0,0,86.029,12.6h0A2.157,2.157,0,0,1,87.916,11.5a1.543,1.543,0,0,1,.339.036,1.818,1.818,0,0,1,1.339,1.115,3.547,3.547,0,0,1,.211,1.163c0,.06.007.121.012.18.076,1.03.16,2.076.242,3.088.113,1.4.23,2.845.326,4.273.061.9.443,1.164,1.643,1.848l.3.171a7.225,7.225,0,0,0,3.7,1.013,17,17,0,0,0,5.142-1.114c.856-.277,1.74-.564,2.638-.788a2.817,2.817,0,0,0,1.326-1.026c.136-.151.277-.307.429-.461,1.131-1.156,2.113-1.927,3.228-1.927,1.285,0,2.244,1.009,3.29,2.523.693,1,1.329,2.055,1.944,3.07q.239.394.478.787a2.545,2.545,0,0,0,2.766,1.418,7.927,7.927,0,0,0,1.416-.3.829.829,0,0,0,.42-.25c.053-.108.025-.537-.456-1.39-.725-1.286-.279-3.382.223-4.913a18.768,18.768,0,0,1,1.865-4.005,6.738,6.738,0,0,1,2.584-2.673l.009,0,.091-.043a1.9,1.9,0,0,1,.833-.239,1.152,1.152,0,0,1,.544.133,4.373,4.373,0,0,0,1.895.621c.853,0,1.237-.739,1.91-2.425a16.6,16.6,0,0,1,.74-1.671c.939-1.761,2.151-2.654,3.6-2.654a5.931,5.931,0,0,1,3.452,1.423.791.791,0,0,0,.4.188,2.042,2.042,0,0,0,.744-.383c.092-.061.187-.124.288-.187a11.48,11.48,0,0,1,6.06-2.1A6.872,6.872,0,0,1,148.1,7.443a12.65,12.65,0,0,1,3.309,4.081l.072.13a21.576,21.576,0,0,0,1.191,1.981,2.9,2.9,0,0,0,.644.718,2.955,2.955,0,0,0,.466-.883C156.872,5.456,163.892,1.923,170.23-.76A2.96,2.96,0,0,1,171.37-1a2.138,2.138,0,0,1,1.847.977c1.253,1.954,3.268,2.507,5.6,3.148l.006,0a4.539,4.539,0,0,1,2.987,2.413,5.709,5.709,0,0,1,.367,3.65,7.575,7.575,0,0,0,.154,3.835,10.36,10.36,0,0,0,1.887,3.39c2.505,3.141,5.346,6.7,6.713,11.272a7.2,7.2,0,0,0,3.491,4.284,3.57,3.57,0,0,1,1.981,2.114,3.36,3.36,0,0,1-.535,2.658c-.479.794-.662,1.441-.5,1.776.085.178.448.615,2,.834,1.059.151,2.507.358,3.081,1.339,1.715,2.92,4.5,4.526,7.445,6.227a24.2,24.2,0,0,1,7.008,5.287c.47.572.994,1.138,1.5,1.684,1.935,2.087,3.935,4.245,4.066,7.728a1.492,1.492,0,0,0,.028.252,3.141,3.141,0,0,0,.919-.346,6.276,6.276,0,0,1,2.815-.809,3.98,3.98,0,0,1,3.261,1.822,1.209,1.209,0,0,0,.312.193,5.1,5.1,0,0,1,2.36-.646c2.249,0,3.569,1.938,4.629,3.495.581.85,1.74,1.016,2.968,1.191l.069.01a7.014,7.014,0,0,1,1.8.449,2.04,2.04,0,0,1,1.389,1.908c-.01,2.111,1.065,3.58,2.31,5.281.453.619.921,1.258,1.338,1.943,1.249,2.046.433,4.276-.222,6.068-.122.334-.237.649-.34.959a10.178,10.178,0,0,0,.1,6.483,11.023,11.023,0,0,0,3.921,5.3,29.971,29.971,0,0,0,3.072,1.86,18.55,18.55,0,0,1,5.562,4.078c1.158,1.377,2.207,2.867,2.038,4.44s-1.48,2.775-2.873,3.849c-1.513,1.164-2.776,2.072-3.976,2.859a7.663,7.663,0,0,0-2.747,2.492c-.283.565-.532,1.529.576,3.369a3.6,3.6,0,0,1,.411,3.082,5.579,5.579,0,0,1-3.4,3.128c-2.563,1.015-3.384,1.889-2.884,4.774.613,3.543-1.609,6.973-3.613,9.566A10.59,10.59,0,0,0,238,147.466a14.006,14.006,0,0,0,4.372,7.38l.633.588c2.585,2.406,5.027,4.679,8.444,5.451.248.056.49.13.725.2a4.131,4.131,0,0,0,1.006.226c.134,0,.168-.03.186-.045a25.237,25.237,0,0,1,5.443-3.3c2.871-1.424,5.582-2.769,7.183-5.645a3.612,3.612,0,0,1,3.2-2.169,5.455,5.455,0,0,1,3.461,1.574c3.487,3.014,5.865,7.129,7.269,12.578.623,2.413,1.206,2.413,1.674,2.413a6.439,6.439,0,0,0,2.083-.521,51.126,51.126,0,0,1,8.333-2.123c1.1-.216,2.243-.439,3.346-.686a5.719,5.719,0,0,1,1.247-.141,5.076,5.076,0,0,1,3.548,1.437c.815.775,1.671,1.55,2.5,2.3a53.458,53.458,0,0,1,6.71,6.864c2.225,2.905,2.816,6.771,3.338,10.182q.041.265.081.529c.281,1.822.758,1.822,1.311,1.822a4.813,4.813,0,0,0,.848-.091c.684-.127,1.376-.223,2.045-.315.686-.1,1.4-.194,2.074-.323a6.11,6.11,0,0,1,1.138-.114,4.784,4.784,0,0,1,4.28,2.992c.949,1.794,1.673,2.667,2.212,2.667.777,0,2.143-1.484,2.592-1.971a4.038,4.038,0,0,1,2.964-1.505c1.491,0,2.722,1.007,3.809,1.9l.227.186a10.017,10.017,0,0,0,2.731,1.9c.053,0,.22-.1.51-.455a25.958,25.958,0,0,0,1.6-2.475c1.363-2.264,2.7-4.6,3.987-6.868.584-1.024,1.188-2.083,1.787-3.123.473-.82,1.24-1.909,2.435-1.909s1.983,1.091,2.475,1.912c.574.959,1.233,1.909,1.871,2.828a39.464,39.464,0,0,1,2.515,3.951c1.209,2.275,1.493,4.112.866,5.615s-2.121,2.586-4.575,3.326c-1.176.355-1.7,1.283-1.551,2.759l.073.733c.566,5.683,1.151,11.56,2.714,16.883,1.464,4.986,5.775,8.749,11.531,10.068,2.092.482,3.1,1.7,3,3.627-.115,2.157.859,3.216,3.362,3.656.1.018.223.034.348.05a3.334,3.334,0,0,1,1.624.525c1.328.994,2.7,2.021,3.734,2.021.314,0,1.271,0,2.392-2.473a2.169,2.169,0,0,1,2.116-1.15,4.682,4.682,0,0,1,3.023,1.135c1.89,1.78,4.29,2.324,6.832,2.9a19.418,19.418,0,0,1,6.053,2.1,4.864,4.864,0,0,0,.778.329c.733.266,1.564.568,1.832,1.382.592,1.8,1.958,2.474,3.539,3.254a16.53,16.53,0,0,1,2.159,1.206,7.134,7.134,0,0,0,4.21,1.408,16.145,16.145,0,0,0,4.364-.842c.268-.077.538-.154.81-.23.65-.181,1.311-.388,1.949-.589a29.593,29.593,0,0,1,4.665-1.185,7.762,7.762,0,0,1,1.105-.085,4.339,4.339,0,0,1,3.94,2.27,20.357,20.357,0,0,0,1.857,2.386c1.6,1.863,3.253,3.789,3.379,6.76a2.5,2.5,0,0,0,.854,1.155c1.522,1.348,3.092,3,3.214,5.079a6.039,6.039,0,0,1-1.854,4.373,2.092,2.092,0,0,0,.138,2.34c.162.192.25.192.287.192a2.963,2.963,0,0,0,1.074-.5c.187-.114.381-.232.577-.334a4.51,4.51,0,0,1,2.081-.56c1.661,0,2.829,1.1,3.844,2.294.79.926,1.373,1.463,2.016,1.463a2.211,2.211,0,0,0,1.077-.359,2.772,2.772,0,0,1,1.421-.384,3.463,3.463,0,0,1,2.144.8,15.9,15.9,0,0,0,4.671,2.3c.367.134.747.273,1.122.416a5.225,5.225,0,0,1,3.676,4.685A4.981,4.981,0,0,1,455.5,281.4a5.36,5.36,0,0,0-1.093.609,6.037,6.037,0,0,0,1.219.725c1.352.659,3.159,1.726,3.251,3.38.093,1.683-1.6,2.979-3.093,3.921a1.976,1.976,0,0,0-.163.113c.031.044.075.1.134.17,1.545,1.833,2.806,2.893,4.682,2.893.133,0,.271-.006.409-.017.917-.074,1.84-.111,2.744-.111.86,0,1.718.034,2.549.1,2.795.224,4.4,1.567,4.77,3.993a3.506,3.506,0,0,0,.38,1.247,4.492,4.492,0,0,1,2.671,2.829,6.093,6.093,0,0,1-.375,3.67c-.188.528.015.814,1.144,1.609l.1.069a12.137,12.137,0,0,1,3.8,4.034c1.739,3.142,1.176,5.9-1.584,7.78-1.47,1-1.937,1.484-1.411,2.989a3.038,3.038,0,0,1-.147,2.61,4.507,4.507,0,0,1-3.273,1.9,7.888,7.888,0,0,1-1.463.136,14.744,14.744,0,0,1-5.338-1.317,5.5,5.5,0,0,0-2.017-.424,4.84,4.84,0,0,0-2.8.969,15.785,15.785,0,0,1-4.519,2.159,18.157,18.157,0,0,1-5.066.7c-4.241.029-8.838.761-10.772,5.973a5.7,5.7,0,0,1-5.337,3.835,2.675,2.675,0,0,0-2.13.9,4.453,4.453,0,0,0-.752,2.431,32.145,32.145,0,0,1-1.144,7.186,2.388,2.388,0,0,0,.681,2.558,5,5,0,0,1,1.62,3.119c.01.17.031.362.054.565a5.677,5.677,0,0,1,.009,1.768,2.474,2.474,0,0,1-1.425,1.8,2.438,2.438,0,0,1-1.038.249,2.873,2.873,0,0,1-2.264-1.584c-.12-.174-.233-.338-.339-.464-.134-.16-.263-.322-.388-.48-.719-.9-1.195-1.459-1.891-1.459a1.689,1.689,0,0,0-.343.038c-1.175.247-1.729,1.074-2.044,3.053-.031.2-.063.389-.095.583a32.916,32.916,0,0,0-.515,4.365c-.058,2.378-.394,4.858-2.442,6.876a3.488,3.488,0,0,0-.936,2.276,9.547,9.547,0,0,1-6.116,8.47,4.018,4.018,0,0,0-2.355,2.622l-.061.192a3.742,3.742,0,0,1-1.427,2.326c-2.994,1.64-2.677,3.709-1.913,6.95.15.637.306,1.3.412,1.943.447,2.7,2.315,4.049,6.246,4.515.35.041.686.108,1.011.172a6.879,6.879,0,0,0,1.273.175l.1,0c.128,0,.255-.008.378-.008a4.493,4.493,0,0,1,3.613,1.357,4.68,4.68,0,0,1,.74,3.937c-.145.856.015,1.08.016,1.081a.616.616,0,0,0,.274.042,3.892,3.892,0,0,0,1.058-.2,19.815,19.815,0,0,0,3.979-1.545,4.232,4.232,0,0,1,2.021-.643,2.061,2.061,0,0,1,1.844,1.077,4.6,4.6,0,0,1,.5,2.014l.007.118c.158,2.53.306,4.919,1.965,6.824a3.387,3.387,0,0,1,.443,3.057,18.955,18.955,0,0,1-5.772,10.137l-.081.072a4.9,4.9,0,0,1-2.658,1.509,41.764,41.764,0,0,0-8.627,1.859c-1.178.341-2.4.694-3.614,1a3.327,3.327,0,0,1-.822.088c-.193,0-.384-.01-.567-.019-.167-.009-.324-.017-.467-.017a1.484,1.484,0,0,0-.352.03,1.124,1.124,0,0,0-.028.307,2.951,2.951,0,0,0,2.183,3.144,10.937,10.937,0,0,0,2.328.231,20.945,20.945,0,0,0,3.078-.263,14.639,14.639,0,0,1,2.122-.169,6.158,6.158,0,0,1,4.812,1.8c1.264,1.41,1.72,3.54,1.394,6.511-.178,1.639-.247,3.335-.314,4.975-.023.554-.046,1.128-.073,1.693-.066,1.337.109,1.994.646,2.425a12.237,12.237,0,0,1,2.92,3.157,8.36,8.36,0,0,1,1.241,4.328c0,.127.023.2.2.3a3.007,3.007,0,0,0,1.07.27,3.574,3.574,0,0,1,3.073,1.794c.44,1.026.137,2.31-.853,3.617-.558.737-.81,1.361-.691,1.712.077.227.427.668,1.9,1.075A7.687,7.687,0,0,1,439.4,469.9a6.185,6.185,0,0,1,1.506,4.149c.018.593.191,1.326.913,1.437,3.188.494,4.744,2.737,6.117,4.716a15.318,15.318,0,0,0,1.993,2.5,2.382,2.382,0,0,1,.466,3.071c-1.332,1.929-1.653,4.161-1.994,6.524-.326,2.276-1.774,2.453-2.21,2.453a3.131,3.131,0,0,1-2.5-1.622c-1.313-2.058-2.137-2.976-3.554-2.976a5.007,5.007,0,0,0-1.618.317,2.66,2.66,0,0,1-.875.144,4.431,4.431,0,0,1-3.989-3.179,9.986,9.986,0,0,0-1.536-3.467,9.688,9.688,0,0,1-1.838-5.1c0-1.052-.166-1.09-.313-1.125h0a2.951,2.951,0,0,0-.365.548c-.059.1-.12.209-.185.313-1.15,1.85-2.871,3.975-5.993,3.975a9,9,0,0,1-2.622-.428,2.655,2.655,0,0,0-.773-.1,11.836,11.836,0,0,0-3.173.695c-.565.175-1.15.357-1.719.5-.23.056-.373.505-.409.9-.061.674-.175,1.41-.286,2.122-.238,1.535-.535,3.445-.116,4.129a35.576,35.576,0,0,1,2.534,5.339,41.471,41.471,0,0,0,1.7,3.818c.5.941,2.2,1.55,3.849,2.139.8.287,1.63.583,2.37.935.42.2.862.369,1.33.549a15.98,15.98,0,0,1,1.967.862c1.975,1.081,3.134,1.9,3.6,3.128s.168,2.545-.587,4.709a8.545,8.545,0,0,0-.744,2.821c.012.023.093.151.567.369.5.229,1.26.482,2.224.8l.1.032a10.922,10.922,0,0,1,2.785,1.5l.071.05c1.2.85,2.233,1.584,3.446,1.584a3.331,3.331,0,0,0,.923-.135,2.981,2.981,0,0,1,.818-.118,2.184,2.184,0,0,1,2.025,1.226,1.958,1.958,0,0,1,.057,1.711,3.724,3.724,0,0,1-.677.966l-.1.111c-1.407,1.609-3.127,3.325-5.751,3.325a6.465,6.465,0,0,1-1.237-.124,2.733,2.733,0,0,0-.5-.036l-.253,0c-.247,0-.5,0-.754,0l-.462,0c-1.377,0-2.251.139-2.644.848-.5.9-.128,1.846.541,3.3a14.033,14.033,0,0,1,.687,1.682.463.463,0,0,0,.062.14.6.6,0,0,0,.207.024,5.189,5.189,0,0,0,.776-.093c.235-.039.477-.079.723-.1.188-.016.369-.024.537-.024a2.358,2.358,0,0,1,2.212,1,2.935,2.935,0,0,1-.318,2.795c-1.064,1.924-2.355,3.839-4.576,4.81-1.518.663-2.056,1.723-2.517,3.447-1.683,6.275-3.424,12.764-7.217,18.432a7.071,7.071,0,0,0-.737,1.829c-.093.305-.189.621-.3.933-.029.082-.058.174-.089.271a3.7,3.7,0,0,1-.5,1.117,1.894,1.894,0,0,1-1.59.79c-.057,0-.118,0-.178-.006a2.647,2.647,0,0,1-2.362-2.354,20.411,20.411,0,0,1-.291-3.681,2.967,2.967,0,0,0-.185-1.377,2.239,2.239,0,0,0-.912.377,4.522,4.522,0,0,1-2.243.793,1.953,1.953,0,0,1-1.881-1.346,6.9,6.9,0,0,1-.373-2.192c-.154-2.751-.846-2.751-1.259-2.751a6.419,6.419,0,0,0-2.321.677,36.835,36.835,0,0,1-4.026,1.427,21.374,21.374,0,0,0-5.92,2.506,2.424,2.424,0,0,1-1.377.459,2.346,2.346,0,0,1-2.17-1.767c-1.764-5.266-4.771-9.927-7.957-14.635a5.37,5.37,0,0,1-.482-.947,4.666,4.666,0,0,0-.256-.544,5.507,5.507,0,0,1-.593-2.053c-.159-1.073-.259-1.322-.562-1.406a.706.706,0,0,0-.184-.032h-.02a3.1,3.1,0,0,0-.431.851,4.2,4.2,0,0,1-1.02,1.689,3.1,3.1,0,0,1-2.085.752,4.2,4.2,0,0,1-2.9-1.229,3.684,3.684,0,0,1-1.1-2.623c.01-3.528-1.945-4.167-5.4-4.994a5.386,5.386,0,0,0-1.246-.169c-.78,0-1.6.208-2.351,1.721-1.513,3.067-3.595,4.558-6.366,4.558-.085,0-.172,0-.259,0h-.076c-.54,0-.665.187-.73.579-.494,3.054-3.26,3.232-4.168,3.29a1.486,1.486,0,0,0-.9.275,1.052,1.052,0,0,0,.339.313c3.077,2,3.333,4.967,3.559,7.587a10.1,10.1,0,0,0,1.045,4.454,2.274,2.274,0,0,1,.291,1.786,4.776,4.776,0,0,1-2.5,2.566,8.308,8.308,0,0,0-3.45,2.938c-1.189,2.131-3,4.576-6.518,4.576-.249,0-.506-.013-.766-.037-.03,0-.061,0-.091,0a.627.627,0,0,0-.64.414.577.577,0,0,0-.031.162,2.814,2.814,0,0,0,.686.369l.168.074a4.712,4.712,0,0,1,1.8,1.287,3.255,3.255,0,0,1,.693,2.36,3.623,3.623,0,0,1-2.989,3.341c-2.217.537-3.759,2.056-5.391,3.666a20.867,20.867,0,0,1-3.536,3c-.461.287-.193,1.07-.161,1.158a6.424,6.424,0,0,1-.335,5.767,10.073,10.073,0,0,1-4.074,3.471c-1.818.979-2.3,1.824-1.966,3.477a3.624,3.624,0,0,1-2.1,4.322A3.281,3.281,0,0,1,327.023,600.318Zm-20.93-27.825a.5.5,0,0,0,.112.067,21.191,21.191,0,0,1,3.987,2.674c1.875,1.476,3.646,2.871,5.872,3.016,2.007.13,3.3.744,4.07,1.933a8.748,8.748,0,0,1,.986,3.835c.066.606.124,1.223.181,1.82.4,4.227.775,8.22,4.027,11.233.134.124.261.249.384.369.556.543.917.877,1.31.876a1.312,1.312,0,0,0,.506-.124c.308-.133,1.248-.54.936-2.095a4.688,4.688,0,0,1,.447-3.453,6.217,6.217,0,0,1,2.533-2.177c3.536-1.9,4.542-3.866,3.477-6.793a2.874,2.874,0,0,1,.985-3.539,19.069,19.069,0,0,0,3.188-2.723c1.755-1.73,3.569-3.518,6.322-4.185,1.379-.337,1.445-1.245,1.467-1.544.049-.667-.15-1.154-1.313-1.675l-.153-.067a3.921,3.921,0,0,1-1.321-.811,2.04,2.04,0,0,1-.446-2.134,2.593,2.593,0,0,1,2.554-1.832c.093,0,.187,0,.28.013.2.019.39.028.576.028,1.982,0,3.364-1.029,4.771-3.55a10.065,10.065,0,0,1,4.206-3.7c1.28-.729,1.512-1.171,1.552-1.327.01-.038.026-.1-.061-.244a11.734,11.734,0,0,1-1.331-5.324c-.214-2.477-.4-4.616-2.656-6.082a2.3,2.3,0,0,1-1.2-2.484,2.767,2.767,0,0,1,2.725-1.778c1.752-.113,2.168-.655,2.324-1.615a2.558,2.558,0,0,1,2.7-2.259l.146,0c.061,0,.126,0,.188,0,1.988,0,3.4-1.062,4.572-3.442a4.412,4.412,0,0,1,4.144-2.836,7.336,7.336,0,0,1,1.712.224,12.818,12.818,0,0,1,4.678,1.791,5.927,5.927,0,0,1,2.258,5.154,1.686,1.686,0,0,0,.516,1.2,2.185,2.185,0,0,0,1.486.641,1.156,1.156,0,0,0,.766-.255,2.99,2.99,0,0,0,.483-.929,5.262,5.262,0,0,1,.638-1.253,2.033,2.033,0,0,1,1.67-.856,2.687,2.687,0,0,1,.721.105,2.4,2.4,0,0,1,1.6,1.4,6.163,6.163,0,0,1,.4,1.642,4.075,4.075,0,0,0,.333,1.323,6.29,6.29,0,0,1,.379.786,3.773,3.773,0,0,0,.3.606c3.267,4.827,6.353,9.615,8.2,15.121.1.286.232.4.273.4a.5.5,0,0,0,.248-.11,23.207,23.207,0,0,1,6.455-2.765,34.805,34.805,0,0,0,3.809-1.346,7.983,7.983,0,0,1,3.132-.849,2.753,2.753,0,0,1,2.484,1.376,7.119,7.119,0,0,1,.772,3.261,4.179,4.179,0,0,0,.273,1.651,2.962,2.962,0,0,0,1.2-.51,3.913,3.913,0,0,1,1.955-.661,1.9,1.9,0,0,1,1.38.56,3.786,3.786,0,0,1,.787,2.832,18.4,18.4,0,0,0,.261,3.318c.028.16.149.68.532.707h.034a3.306,3.306,0,0,0,.19-.509c.035-.11.07-.223.112-.339.1-.269.181-.549.272-.845a8.633,8.633,0,0,1,.987-2.358c3.609-5.393,5.306-11.719,6.947-17.837.577-2.153,1.418-3.787,3.648-4.762,1.582-.691,2.594-2.077,3.627-3.945a2.5,2.5,0,0,0,.315-.779,1.792,1.792,0,0,0-.459-.047c-.111,0-.234.006-.365.017-.167.014-.361.047-.566.081a6.786,6.786,0,0,1-1.1.12,2.126,2.126,0,0,1-2.18-1.573,12.4,12.4,0,0,0-.594-1.437c-.667-1.449-1.5-3.253-.474-5.1,1.04-1.879,3.222-1.879,4.393-1.879l.481,0c.239,0,.476,0,.7,0l.284,0a4.569,4.569,0,0,1,.888.073,4.448,4.448,0,0,0,.85.086c1.612,0,2.819-1.01,4.244-2.64l.109-.123a2.634,2.634,0,0,0,.338-.433l-.01-.021c-.035-.07-.062-.123-.237-.123a1,1,0,0,0-.269.042,5.376,5.376,0,0,1-1.472.212c-1.851,0-3.251-.993-4.6-1.953l-.071-.051a8.725,8.725,0,0,0-2.257-1.236l-.1-.032c-2.291-.761-3.441-1.143-3.954-2.185s-.122-2.146.649-4.361c.57-1.632.851-2.7.608-3.339s-1.213-1.275-2.694-2.086a14.259,14.259,0,0,0-1.725-.75c-.481-.185-.979-.377-1.468-.608-.651-.309-1.4-.576-2.187-.859-2-.717-4.078-1.458-4.942-3.084a43.575,43.575,0,0,1-1.788-4,34.05,34.05,0,0,0-2.386-5.047c-.8-1.311-.489-3.337-.156-5.482.111-.712.215-1.385.27-2a2.757,2.757,0,0,1,1.929-2.662c.508-.123,1.038-.288,1.6-.462a13.181,13.181,0,0,1,3.766-.785,4.682,4.682,0,0,1,1.352.188,7.153,7.153,0,0,0,2.043.342c1.712,0,2.956-.879,4.3-3.032.045-.073.094-.158.146-.249a2.464,2.464,0,0,1,2.075-1.559,2.131,2.131,0,0,1,.483.057,2.214,2.214,0,0,1,1.641,1.456,4.69,4.69,0,0,1,.218,1.618,8.047,8.047,0,0,0,1.553,4.073,11.65,11.65,0,0,1,1.8,4.182,1.918,1.918,0,0,0,.713.929,2.312,2.312,0,0,0,1.3.563.667.667,0,0,0,.218-.033,6.876,6.876,0,0,1,2.275-.429,4.588,4.588,0,0,1,3.191,1.264,12.8,12.8,0,0,1,2.049,2.636.565.565,0,1,0,1.041-.04c.358-2.488.729-5.06,2.326-7.374.065-.094-.025-.326-.185-.476a17.04,17.04,0,0,1-2.27-2.818c-1.309-1.887-2.44-3.517-4.78-3.88a3.186,3.186,0,0,1-2.606-3.354c-.07-2.4-1.183-3.675-3.845-4.407-1.168-.322-2.778-.916-3.267-2.361-.35-1.033-.017-2.231.991-3.562.615-.811.713-1.38.609-1.62-.122-.284-.667-.506-1.458-.595a4.75,4.75,0,0,1-1.827-.514,2.28,2.28,0,0,1-1.219-2c-.042-2.3-1.062-4.083-3.412-5.961A4.547,4.547,0,0,1,424.083,449c.027-.557.05-1.126.073-1.677.068-1.673.139-3.4.324-5.11.257-2.342-.045-4.01-.9-4.959a4.23,4.23,0,0,0-3.322-1.134,12.647,12.647,0,0,0-1.83.147,22.854,22.854,0,0,1-3.371.285,12.9,12.9,0,0,1-2.749-.276c-2.314-.5-3.72-2.395-3.761-5.069a2.348,2.348,0,0,1,.6-1.752,2.411,2.411,0,0,1,1.783-.615c.2,0,.386.01.571.019.166.009.322.017.464.017a1.5,1.5,0,0,0,.335-.028c1.182-.3,2.383-.645,3.545-.981a43.915,43.915,0,0,1,9.035-1.933c.376-.028,1.064-.642,1.475-1.008l.082-.073a17.024,17.024,0,0,0,5.156-9.109c.159-.661.157-1.09-.005-1.276-2.1-2.418-2.282-5.263-2.454-8.014l-.007-.117c-.064-1.019-.288-1.209-.291-1.211a.3.3,0,0,0-.059,0,2.377,2.377,0,0,0-1.044.387,21.814,21.814,0,0,1-4.379,1.715,5.726,5.726,0,0,1-1.635.284,2.242,2.242,0,0,1-1.8-.751,3.2,3.2,0,0,1-.46-2.706,2.869,2.869,0,0,0-.3-2.312,2.668,2.668,0,0,0-2.086-.648c-.1,0-.2,0-.3.006-.058,0-.119,0-.179,0a8.462,8.462,0,0,1-1.661-.213c-.3-.059-.586-.116-.859-.148a11.722,11.722,0,0,1-5.023-1.548,6.492,6.492,0,0,1-2.961-4.627c-.1-.58-.236-1.178-.386-1.81a12.543,12.543,0,0,1-.5-4.723,5.98,5.98,0,0,1,3.386-4.431,4.261,4.261,0,0,0,.495-1.18l.065-.2a6.044,6.044,0,0,1,3.46-3.843,7.581,7.581,0,0,0,4.922-6.8,5.419,5.419,0,0,1,1.525-3.538c1.456-1.435,1.791-3.237,1.847-5.5a34.413,34.413,0,0,1,.54-4.637q.047-.289.094-.577a7.787,7.787,0,0,1,.9-2.8,4.006,4.006,0,0,1,2.71-1.9,3.7,3.7,0,0,1,.752-.08c1.7,0,2.672,1.228,3.456,2.214.123.154.239.3.356.44.166.2.311.409.452.614.122.178.495.718.617.718a.489.489,0,0,0,.186-.058c.339-.16.413-.369.281-1.536-.025-.222-.051-.451-.064-.681a3.163,3.163,0,0,0-1.088-1.868,4.383,4.383,0,0,1-1.126-4.511,30.007,30.007,0,0,0,1.06-6.742,6.265,6.265,0,0,1,1.178-3.523,4.607,4.607,0,0,1,3.619-1.661,3.688,3.688,0,0,0,3.542-2.533,10.158,10.158,0,0,1,5.3-5.939A17.369,17.369,0,0,1,451,326.14a14.493,14.493,0,0,0,8.469-2.514,6.83,6.83,0,0,1,3.927-1.319,7.45,7.45,0,0,1,2.748.563,12.739,12.739,0,0,0,4.607,1.179,5.88,5.88,0,0,0,1.091-.1,2.869,2.869,0,0,0,1.914-.932c.05-.086.2-.347-.01-.95a3.9,3.9,0,0,1,.1-3.318,6.262,6.262,0,0,1,2.077-1.984c1.891-1.285,2.2-2.923.959-5.157a10.227,10.227,0,0,0-3.206-3.37l-.1-.067a6.285,6.285,0,0,1-1.522-1.349,2.661,2.661,0,0,1-.354-2.566c.788-2.216.458-3.236-1.309-4.04-.924-.419-1.3-1.717-1.459-2.732-.227-1.486-1.083-2.153-2.953-2.3-.779-.063-1.582-.094-2.389-.094-.851,0-1.72.035-2.585.1-.191.015-.382.023-.568.023-2.928,0-4.741-1.86-6.21-3.6a1.951,1.951,0,0,1,.489-3.265c2.045-1.293,2.173-1.949,2.163-2.119s-.188-.746-2.13-1.693c-1.288-.628-2.478-1.373-2.459-2.558s1.218-1.871,2.389-2.4a3.019,3.019,0,0,0,1.987-3.106,3.335,3.335,0,0,0-2.393-2.925c-.361-.138-.734-.274-1.094-.406a17.663,17.663,0,0,1-5.237-2.617,1.488,1.488,0,0,0-.892-.356.786.786,0,0,0-.409.109,4.092,4.092,0,0,1-2.089.634c-1.562,0-2.645-1.118-3.538-2.166-.837-.982-1.517-1.591-2.322-1.591a2.552,2.552,0,0,0-1.155.333c-.137.072-.3.168-.463.27a4.174,4.174,0,0,1-2.115.788,2.33,2.33,0,0,1-1.819-.906,4.054,4.054,0,0,1-.9-2.522,3.564,3.564,0,0,1,.8-2.435,4.2,4.2,0,0,0,1.351-2.924c-.063-1.069-.823-2.175-2.542-3.7a4.1,4.1,0,0,1-1.528-2.567c-.1-2.28-1.458-3.866-2.9-5.544a22.172,22.172,0,0,1-2.035-2.627,2.359,2.359,0,0,0-2.245-1.332,5.784,5.784,0,0,0-.821.065,27.649,27.649,0,0,0-4.351,1.113c-.654.205-1.33.417-2.011.607-.267.074-.532.15-.795.226a17.876,17.876,0,0,1-4.915.92,9.162,9.162,0,0,1-5.35-1.764A14.794,14.794,0,0,0,403,244.1c-1.7-.84-3.627-1.789-4.506-4.28a5.737,5.737,0,0,0-.663-.27,6.281,6.281,0,0,1-1.142-.5,17.652,17.652,0,0,0-5.448-1.858c-2.692-.61-5.475-1.24-7.763-3.395a2.758,2.758,0,0,0-1.651-.59,1.025,1.025,0,0,0-.325.042c-1.107,2.41-2.476,3.581-4.184,3.581s-3.343-1.23-4.93-2.419a2.554,2.554,0,0,0-.686-.144c-.141-.018-.288-.038-.436-.064a6.62,6.62,0,0,1-3.679-1.679,5.105,5.105,0,0,1-1.333-4.052c.042-.811-.171-1.277-1.452-1.573a18.971,18.971,0,0,1-8.224-4.1,15.615,15.615,0,0,1-4.778-7.356c-1.615-5.5-2.21-11.473-2.785-17.248l-.073-.733a5.216,5.216,0,0,1,.417-2.768,4,4,0,0,1,2.546-2.1c1.845-.556,2.927-1.269,3.306-2.18s.124-2.194-.786-3.908a37.389,37.389,0,0,0-2.391-3.749c-.657-.946-1.336-1.925-1.944-2.941a2.6,2.6,0,0,0-.757-.928,2.518,2.518,0,0,0-.705.9c-.6,1.035-1.2,2.092-1.782,3.114-1.3,2.274-2.636,4.625-4.012,6.909a25.7,25.7,0,0,1-1.756,2.7,2.728,2.728,0,0,1-2.066,1.2c-1.109,0-2.073-.787-3.995-2.354l-.23-.187a5.027,5.027,0,0,0-2.542-1.444,2.143,2.143,0,0,0-1.492.86c-1.251,1.359-2.61,2.617-4.064,2.617-1.665,0-2.8-1.492-3.98-3.732-.9-1.694-1.737-1.927-2.513-1.927a4.121,4.121,0,0,0-.764.079c-.728.139-1.463.241-2.174.34-.647.09-1.316.183-1.957.3a6.691,6.691,0,0,1-1.211.125,2.892,2.892,0,0,1-2.312-.967,4.983,4.983,0,0,1-.975-2.55q-.041-.264-.081-.531c-.509-3.328-1.035-6.77-2.949-9.268a51.971,51.971,0,0,0-6.466-6.6c-.836-.758-1.7-1.542-2.531-2.332a3.07,3.07,0,0,0-2.171-.887,3.718,3.718,0,0,0-.81.093c-1.129.253-2.283.479-3.4.7a49.627,49.627,0,0,0-8.007,2.03,8,8,0,0,1-2.792.651,2.951,2.951,0,0,1-2.406-1.127,7.242,7.242,0,0,1-1.2-2.786c-1.3-5.042-3.472-8.825-6.641-11.565a3.724,3.724,0,0,0-2.153-1.086c-.2,0-.816,0-1.451,1.141-1.9,3.419-5.023,4.967-8.042,6.464a23.387,23.387,0,0,0-5.024,3.025,2.217,2.217,0,0,1-1.494.532A5.54,5.54,0,0,1,251.6,163c-.21-.064-.409-.124-.586-.164-3.942-.89-6.7-3.456-9.365-5.937l-.628-.583a16.012,16.012,0,0,1-4.977-8.462,12.671,12.671,0,0,1,2.666-10.4c1.754-2.269,3.7-5.229,3.225-8a6.015,6.015,0,0,1,.612-4.563,7.258,7.258,0,0,1,3.506-2.412,3.755,3.755,0,0,0,2.238-1.909,1.628,1.628,0,0,0-.229-1.411c-1.214-2.016-1.427-3.749-.65-5.3a9.439,9.439,0,0,1,3.438-3.268c1.156-.758,2.38-1.639,3.852-2.771,1.386-1.068,2.035-1.833,2.1-2.478s-.417-1.556-1.579-2.937a16.779,16.779,0,0,0-5-3.616,31.949,31.949,0,0,1-3.274-1.988,13.041,13.041,0,0,1-4.641-6.273,12.189,12.189,0,0,1-.112-7.765c.112-.339.238-.684.36-1.017.586-1.6,1.14-3.116.393-4.339-.374-.614-.8-1.192-1.245-1.8-1.326-1.812-2.7-3.685-2.7-6.431a3.188,3.188,0,0,0-1.472-.408l-.068-.01c-1.453-.207-3.26-.465-4.338-2.044s-1.868-2.621-2.976-2.621a3.453,3.453,0,0,0-1.627.522,1.3,1.3,0,0,1-.65.164,2.854,2.854,0,0,1-2-1.041,1.966,1.966,0,0,0-1.656-1.016,4.443,4.443,0,0,0-1.914.594,4.486,4.486,0,0,1-1.9.567c-.9,0-1.888-.574-1.948-2.184-.1-2.742-1.769-4.54-3.534-6.443-.527-.568-1.072-1.156-1.58-1.775-1.706-2.078-4.016-3.412-6.462-4.824-3.031-1.75-6.166-3.559-8.15-6.913a5.674,5.674,0,0,0-1.658-.405c-1.869-.265-3.021-.9-3.521-1.956-.472-.994-.271-2.228.6-3.668a1.642,1.642,0,0,0,.321-1.089c-.077-.276-.419-.58-.989-.882a9.217,9.217,0,0,1-4.472-5.479c-1.256-4.2-3.968-7.6-6.361-10.6a12.307,12.307,0,0,1-2.235-4.048,9.525,9.525,0,0,1-.2-4.822c.144-.711.433-3.084-1.926-3.735h0c-2.5-.687-5.086-1.4-6.755-4C171.52,1.034,171.5,1,171.37,1a.965.965,0,0,0-.361.083,41.9,41.9,0,0,0-9.2,5.007,18.333,18.333,0,0,0-6.159,8.1c-.209.545-.847,2.206-2.3,2.206a3.122,3.122,0,0,1-2.315-1.609,23.415,23.415,0,0,1-1.3-2.162l-.073-.131A10.89,10.89,0,0,0,146.9,9.038,4.851,4.851,0,0,0,143.88,7.99a9.739,9.739,0,0,0-4.992,1.793c-.087.055-.171.111-.255.166a3.292,3.292,0,0,1-1.846.714,2.623,2.623,0,0,1-1.591-.584,4.193,4.193,0,0,0-2.256-1.026c-.423,0-1.074.165-1.837,1.6a15.148,15.148,0,0,0-.647,1.471,10.08,10.08,0,0,1-1.176,2.342,3.126,3.126,0,0,1-2.591,1.341,5.744,5.744,0,0,1-2.482-.676l-.068.031c-.875.4-2.475,2.742-3.371,5.478-.652,1.989-.547,3.015-.382,3.308.757,1.342.924,2.405.511,3.251-.61,1.247-2.251,1.491-3.338,1.653a5.333,5.333,0,0,1-.784.06,4.534,4.534,0,0,1-3.983-2.413q-.243-.4-.483-.795c-.6-.99-1.22-2.014-1.879-2.97-.76-1.1-1.314-1.659-1.644-1.659s-.939.446-1.8,1.326c-.124.126-.245.26-.373.4a4.65,4.65,0,0,1-2.324,1.625c-.833.208-1.684.484-2.508.75a18.74,18.74,0,0,1-5.758,1.212,9.174,9.174,0,0,1-4.7-1.281l-.289-.165c-1.234-.7-2.511-1.432-2.647-3.451-.1-1.415-.212-2.855-.324-4.247-.082-1.015-.167-2.065-.243-3.1-.005-.067-.009-.136-.014-.206-.006-.1-.014-.232-.027-.341a17.946,17.946,0,0,1-3.924,5.193c-1.577,1.625-3.066,3.159-3.78,5.229-1.089,3.159-3.066,5.011-5.875,5.507a7.371,7.371,0,0,1-1.282.124,3.182,3.182,0,0,1-2.5-.985,4.207,4.207,0,0,1-.875-2.89,42.112,42.112,0,0,0-.464-5.264c-.056-.43-.114-.875-.168-1.313-.01-.086-.02-.173-.029-.26-.1-.909-.18-.928-.349-.965a.571.571,0,0,0-.125-.015c-.319,0-.679.418-.989.827a60.852,60.852,0,0,1-6.654,7.613,3.092,3.092,0,0,0-.786,2.5,19.672,19.672,0,0,1-1.718,8.558,4.959,4.959,0,0,0-.4,2.935,4.287,4.287,0,0,0,1.469,2.353c1.032.9,1.951,1.888,1.686,3-.271,1.138-1.544,1.548-3.054,1.933-1.686.429-2.677,1.013-3.03,1.784-.369.807-.136,2.025.713,3.724.071.142.143.284.215.426a9.726,9.726,0,0,1,1.358,4.2,3.961,3.961,0,0,1-.919,2.791,5.326,5.326,0,0,1-2.273,1.464,3.713,3.713,0,0,1-1.275.246c-1.9,0-2.719-1.766-2.989-2.346a7.1,7.1,0,0,0-.854-1.453A11.017,11.017,0,0,1,48,57.081c-.709-1.236-1.119-1.819-1.815-1.819a1.72,1.72,0,0,0-.335.036A1.835,1.835,0,0,0,44.4,56.621a9.956,9.956,0,0,0-.4,2.76,8.15,8.15,0,0,1-.874,3.852,5.181,5.181,0,0,1-3.727,2.3c-1.07.209-1.288,1.153-1.4,3.331-.01.2-.02.4-.033.6a1.841,1.841,0,0,0,.154,1.005.609.609,0,0,0,.559.283c2.774.205,4.3,1.93,4.291,4.857a9.059,9.059,0,0,1-.645,3.671,5.1,5.1,0,0,1-3.079,2.733,6.229,6.229,0,0,0-2.938,2c-.971,1.221-2.517,2.843-4.719,2.843a7.543,7.543,0,0,1-3.981-1.41l-.168-.107a2.578,2.578,0,0,0-1.191-.539,1.037,1.037,0,0,0-.382.082A9.38,9.38,0,0,0,22.411,87.2a7.907,7.907,0,0,0-1.844,3.241,7.8,7.8,0,0,0-.149,3.66A9.116,9.116,0,0,0,22.092,97.8c1.518,2.046,2.137,4,1.84,5.82a7.275,7.275,0,0,1-3.367,4.688c-.938.654-1.079,1.011-1.1,1.222a4.339,4.339,0,0,0,.656,1.871,26.551,26.551,0,0,1,2.877,7.338,10.587,10.587,0,0,1-1.934,8.29,11.331,11.331,0,0,0-2.084,5.415,14.087,14.087,0,0,1-1.372,5.328,12.852,12.852,0,0,1-3.434,4.251l-.059.048c-.889.732-.93.912-.812,1.148.109.219.2.292.509.292a5.253,5.253,0,0,0,.881-.117c.14-.026.284-.053.429-.076a26.464,26.464,0,0,0,6.011-1.968c.839-.35,1.706-.711,2.582-1.034a7.875,7.875,0,0,1,2.7-.528,4.261,4.261,0,0,1,3.39,1.45,5.523,5.523,0,0,1,.919,4.625,36.346,36.346,0,0,1-3.983,12.167c-.154.271-.331.527-.5.775-.676.979-.76,1.254-.5,1.638.476.7,1.3,1,2.754,1,.143,0,.293,0,.459-.008a5.373,5.373,0,0,0,1.268-.275c.228-.068.464-.137.707-.2.071-.018.157-.044.247-.071a3.365,3.365,0,0,1,.982-.185,1.77,1.77,0,0,1,1.588.967,2.684,2.684,0,0,1-.29,2.734l-.025.045c-1.276,2.3-3.547,2.6-5.382,2.6l-.256,0h-.112c-3.709,0-5.625,2.34-7.361,5.855a2.084,2.084,0,0,0-.28,1.714c.227.484.959.886,2.116,1.163a28.775,28.775,0,0,1,6.9,2.97c1.2.648,2.443,1.318,3.694,1.857a3,3,0,0,1,1.822,3.547c-.518,1.951-2.5,2.124-3.153,2.18-.212.019-.441.028-.718.028-.19,0-.378,0-.561-.008s-.351-.008-.519-.008c-.959,0-1.416.149-1.749.568-1.008,1.27-2.045,2.409-3.631,2.409a4.392,4.392,0,0,1-2.444-.867.276.276,0,0,0-.127-.055c-.113,0-.445.233-.739.795-.078.151-.157.305-.235.46a13.123,13.123,0,0,1-1.3,2.19l-.035.045c-2.316,2.981-3.592,4.624-3.593,5.907s1.276,2.908,3.593,5.85c.9,1.143,1.675,2.265,1.265,3.422s-1.734,1.578-2.846,1.83-1.814.612-2,1.036c-.2.44.017,1.239.616,2.313a2.7,2.7,0,0,1,.444,1.862,2.45,2.45,0,0,1-1.246,1.506,4.272,4.272,0,0,0-2.245,2.957,2.848,2.848,0,0,0,1.062,2.359c2.513,2.323,3.548,4.973,2.915,7.463a6.592,6.592,0,0,1-2.224,3.4,10.53,10.53,0,0,1-4.171,2.035c-1.984.5-1.774,1.56-1.684,2.012.74,3.722-1.132,6.3-3.112,8.619-.75.881-1.473,1.83-2.171,2.748s-1.433,1.884-2.208,2.8c-.549.648-.811,1.193-.737,1.536.067.311.468.657,1.131.973a26.231,26.231,0,0,1,5.285,3.649l.426.349,0,0c1.228,1,2.114,1.726,2.741,2.364a2.634,2.634,0,0,1-.18,4.458c-.679.592-1.629,1.253-2.944,2.167h0c-.078.055-.157.109-.236.163-.1.067-.191.13-.277.193l-.093.068c-.585.426-.722.576-.7.762.061.474.518.581.892.588a10.09,10.09,0,0,1,5.523,2.23c.533.359,1.036.7,1.557.994,1.191.676,2.1,2.27,2.484,4.373.335,1.821.284,4.263-.865,5.655a21.646,21.646,0,0,0-3.247,4.972,11.242,11.242,0,0,0-.978,5.635c.246,2.879-1.37,3.657-2.356,3.865-.692.146-1.569.427-1.817.931-.307.624.231,1.852.76,2.954a6.65,6.65,0,0,0,4.089,3.612,6.971,6.971,0,0,1,3.42,2.1,6.9,6.9,0,0,1,1.5,3.731c.019.152.035.307.052.472a5.569,5.569,0,0,0,.29,1.523c.125.282.233.332.474.332l.075,0c.7-.042,1.079-.759,1.407-2.645.109-.627.225-1.263.337-1.878.651-3.573,1.324-7.267.944-10.909a14.856,14.856,0,0,1,2.16-9.91,13.872,13.872,0,0,1,8.372-5.641c2.081-.528,3.028-1.651,2.979-3.535-.082-3.2,1.612-4.953,5.035-5.225,2.5-.2,4.178-1.576,5.284-4.324.191-.472.36-.947.538-1.45a23.645,23.645,0,0,1,1-2.5,8.43,8.43,0,0,1,2.714-3.3,6.543,6.543,0,0,1,3.791-1.157,9.362,9.362,0,0,1,3.294.651,13.641,13.641,0,0,1,5.486,3.866,29.375,29.375,0,0,1,3.584,5.355c1.009,1.823-.144,3.236-.764,3.995-1.113,1.368-2.029,2.55-1.95,3.145.085.639,1.387,1.619,3.079,2.835l1.34.963-1.474.743c-.433.218-.839.4-1.231.584a11.09,11.09,0,0,0-1.937,1.035c-.241.177-.481.374-.735.583a5.566,5.566,0,0,1-3.488,1.671,3.751,3.751,0,0,1-1.2-.2,5.394,5.394,0,0,0-1.711-.307c-1.989,0-3.416,1.435-4.945,3.168-.31.352-.6.737-.909,1.144a10.933,10.933,0,0,1-2.194,2.367,2.531,2.531,0,0,0-1.247,3.05,4.852,4.852,0,0,1-.437,3.749,4.346,4.346,0,0,1-2.884,1.809,2.281,2.281,0,0,0-.815.347l.016.013a18.53,18.53,0,0,1,2.331,2.276c1.372,1.509,2.669,2.935,4.739,3.177l.034,0a5.211,5.211,0,0,1,1.568.362,2.011,2.011,0,0,1,1.255,1.887,1.861,1.861,0,0,1-1.094,1.8,3.948,3.948,0,0,1-1.426.283c-.13.008-.254.017-.351.029-2.476.309-4.3,1.571-5.922,4.094a28.574,28.574,0,0,1-2.877,3.576l-.458.512a3.944,3.944,0,0,0-.914,1.305,3.6,3.6,0,0,0,1.356.526,19.31,19.31,0,0,0,4.916.523c.962,0,1.951-.038,2.908-.074.811-.031,1.651-.063,2.481-.072.2,0,.406,0,.609,0,2.328,0,3.571-.1,4.174-2.077a2.4,2.4,0,0,1,2.327-1.612,2.491,2.491,0,0,1,.366.027,5.287,5.287,0,0,0,.787.062c1.558,0,2.808-.743,4.313-2.565a3.088,3.088,0,0,1,2.272-1.123,1.811,1.811,0,0,1,1.38.581,1.945,1.945,0,0,1,.432,1.582c-.186,1.635.558,3,1.345,4.442a9.826,9.826,0,0,1,1.59,4.746,1.466,1.466,0,0,0,.171.839c.027.036.044.06.146.06a1.822,1.822,0,0,0,.951-.4,21.709,21.709,0,0,0,9.516-15.717,3.312,3.312,0,0,0-.007-.577,3.407,3.407,0,0,1,.114-1.394,1.989,1.989,0,0,1,1.517-1.275,3.606,3.606,0,0,1,.854-.106,3.337,3.337,0,0,1,3.118,2.314,9.145,9.145,0,0,1,.676,3.165c.034,2.785,2.006,3.668,4.291,4.689.436.2.887.4,1.315.611a.825.825,0,0,0,.346.111c.22,0,.581-.592.844-1.024a4.648,4.648,0,0,1,1.625-1.823,2.467,2.467,0,0,0,.469-.435c.077-.083.157-.169.242-.255,1.4-1.416,3.061-2.929,5.095-2.929a5.675,5.675,0,0,1,4.048,2.069c.392.4.591.41.593.41.1-.027.4-.414.5-1.166a3.6,3.6,0,0,1,4-3.507c.294,0,.615.016.981.048a10.516,10.516,0,0,1,6.429,2.689,3.305,3.305,0,0,0,2.1,1.123,3.53,3.53,0,0,0,2.1-1.033,6.169,6.169,0,0,1,3.929-1.6,4.416,4.416,0,0,1,3.976,2.513c.429.819.889,1.652,1.333,2.457a37.48,37.48,0,0,1,4.009,9.094,13.364,13.364,0,0,1,.468,3.2,4.406,4.406,0,0,1-.7,2.545c-.813,1.188-2.308,1.866-4.848,2.2a6.954,6.954,0,0,0-3.973,1.705,9.349,9.349,0,0,0-2.245,3.66c-.912,2.4-2.435,5.249-6.148,6.035-1.035.218-1.268.478-1.337.881-.071.42-.048.881,1.064,1.478a23.369,23.369,0,0,1,6.214,4.938,40.181,40.181,0,0,1,4.548,6.173c2.605,4.228,5.7,6.508,10.042,7.393a4.088,4.088,0,0,1,2.905,1.742,4.2,4.2,0,0,1,.151,3.469c-.674,2.238-.779,3.708-.339,4.766.45,1.083,1.6,1.94,3.624,2.7,6.122,2.288,8.048,7.276,9.912,12.1.142.369.29.75.436,1.123,1.03,2.628-.526,3.766-1.545,4.21a5.2,5.2,0,0,1-1.154.307,2.685,2.685,0,0,0-.839.236h0a.937.937,0,0,0,.011.465,3.324,3.324,0,0,0,2.211,2.777,21.2,21.2,0,0,1,7.3,3.349,10.773,10.773,0,0,1,3.979,7.523A1.83,1.83,0,0,0,166.3,408.7a2.782,2.782,0,0,0,1.441-.491,12.465,12.465,0,0,1,6.591-1.967,11.248,11.248,0,0,1,7.847,3.2,20.82,20.82,0,0,0,5.37,3.8,15.227,15.227,0,0,0,6.244,1.5,3.983,3.983,0,0,1,3.224,1.453,6.253,6.253,0,0,1,1.051,2.95,3.4,3.4,0,0,1-.823,2.987,4.468,4.468,0,0,1-2.527,1.2,6.966,6.966,0,0,0-4.667,3.388c-.464.686-.448.945-.443.978a.461.461,0,0,0,.14.1,12.246,12.246,0,0,1,4.37,4.6c.444.679.864,1.32,1.337,1.918,1.119,1.416,3.653,2.4,6.164,2.4a5.472,5.472,0,0,0,3.81-1.2,2.886,2.886,0,0,1,2.016-1.005,3.108,3.108,0,0,1,2.072,1.058l.18.162a7.423,7.423,0,0,0,4.817,2.3c.156,0,.316-.007.475-.021.219-.019.43-.029.625-.029a2.651,2.651,0,0,1,2.343.981c.74,1.076.17,2.563-.017,3.051-1.685,4.4-2.966,8.1-2.873,12.383.076,3.552.869,5.8,2.736,7.751a2.021,2.021,0,0,0,1.278.776,2.142,2.142,0,0,0,1.341-.832A44.074,44.074,0,0,1,223.9,458.9a28.481,28.481,0,0,0,4.719-4.692,5.336,5.336,0,0,1,4.312-2.1,5.028,5.028,0,0,1,3.814,1.621,4.484,4.484,0,0,1,1.276,3.29,5.435,5.435,0,0,1-2.194,3.661c-.525.452-.8.815-.812,1.079a1.229,1.229,0,0,0,.4.745,10.983,10.983,0,0,1,2.8,7.631,10.789,10.789,0,0,1-3,7.492l-.083.082c-.918.912-1.478,1.516-1.406,2.383.047.293.8,1.476,2.742,3.1,1.811,1.519,3.233,2.2,3.665,2.2h.007c.19-.011.376-.017.554-.017a5.8,5.8,0,0,1,5.166,2.8,3.007,3.007,0,0,0,2.173,1.529,2.864,2.864,0,0,0,1.942-1.06,4.057,4.057,0,0,1,2.754-1.527,2.344,2.344,0,0,1,.843.157,4.325,4.325,0,0,0,1.557.32c1.154,0,2.178-.582,3.534-2.008a6.017,6.017,0,0,1,2.277-1.307c.208-.081.4-.158.59-.238a2.832,2.832,0,0,1,1.131-.263,1.9,1.9,0,0,1,1.53.757l0,0a2.11,2.11,0,0,1-.156,2.7c-.952,1.2-1.329,2.186-1.156,3.017a6.936,6.936,0,0,1-.331,4.184,10.649,10.649,0,0,1-2.275,3.274,2.476,2.476,0,0,0-.866,1.871c.1.578.7,1.17,1.7,1.669a9.875,9.875,0,0,0,4.258.911c.393.012.786.022,1.18.032,1.422.036,2.893.074,4.345.217.106.01.225.018.352.027a5.063,5.063,0,0,1,1.554.275,2.165,2.165,0,0,1,1.386,1.649,2.556,2.556,0,0,1-1.4,2.551c-.157.115-.3.223-.416.322a10.823,10.823,0,0,1-5.172,2.181l-.587.133c-1.734.4-1.982.9-2,1.331-.014.456.1.626,1.575.883.149.026.3.053.454.083.19.038.378.072.577.109,1.559.287,3.5.643,4.577,2.5a13.357,13.357,0,0,0,2.419,2.783,16.552,16.552,0,0,1,2.076,2.251c1.678,2.354,3.547,5.983,3.759,9.109a10.849,10.849,0,0,1-1.128,5.812,8.293,8.293,0,0,1-5.419,4.121c-.842.219-1.067.489-1.077.545-.015.077.133.54,1.087,1.233.141.1.3.2.47.312.815.519,2.046,1.3,1.831,2.968a4.108,4.108,0,0,0-.037,1.022,7.624,7.624,0,0,0,1.055-.352c.145-.055.3-.113.449-.169a8.693,8.693,0,0,1,2.886-.695,2.415,2.415,0,0,1,2.239,1.3,9.084,9.084,0,0,1,.811,2.918c.071.443.1.889.137,1.32a9.9,9.9,0,0,0,.242,1.79,8.353,8.353,0,0,1,1.38-1.79c.426-.395.837-.835,1.272-1.3,1.517-1.624,3.236-3.465,5.932-3.465a6.406,6.406,0,0,1,1.3.138,5.69,5.69,0,0,0,1.154.133,3.141,3.141,0,0,0,2.482-1.2c.072-.08.152-.175.237-.275a2.962,2.962,0,0,1,2.171-1.361,2.129,2.129,0,0,1,1.271.448,2.175,2.175,0,0,1,.864,2.233,5.933,5.933,0,0,1-.649,1.66l-.009.017a24.626,24.626,0,0,1-1.764,2.781l-.023.033a2.873,2.873,0,0,0-.262,3.216c1.163,2.277,2.422,4.658,3.741,7.076.8,1.463,1.458,1.463,1.674,1.463a2.6,2.6,0,0,0,1.356-.52,4.272,4.272,0,0,1,2.027-.772,1.4,1.4,0,0,1,1.1.488,1.593,1.593,0,0,1,.284,1.367,8.68,8.68,0,0,0,.23,2.983c.437,2.351.982,5.277-2.46,7.349A1.834,1.834,0,0,0,306.093,572.493Z" transform="translate(0 -0.001)"/>
      </g>
    </g>
    <path id="Line_30" data-name="Line 30" d="M42,.5H40v-1h2Zm-4,0H36v-1h2Zm-4,0H32v-1h2Zm-4,0H28v-1h2Zm-4,0H24v-1h2Zm-4,0H20v-1h2Zm-4,0H16v-1h2Zm-4,0H12v-1h2Zm-4,0H8v-1h2ZM6,.5H4v-1H6ZM2,.5H0v-1H2Z" transform="translate(412.501 1841.048)" fill="#d6cdbf"/>
    <path id="Line_31" data-name="Line 31" d="M.5,44.905h-1v-2h1Zm0-4h-1v-2h1Zm0-4h-1v-2h1Zm0-4h-1v-2h1Zm0-4h-1v-2h1Zm0-4h-1v-2h1Zm0-4h-1v-2h1Zm0-4h-1v-2h1Zm0-4h-1v-2h1Zm0-4h-1v-2h1Zm0-4h-1v-2h1Zm0-4h-1V0h1Z" transform="translate(370.334 1801.619)" fill="#d6cdbf"/>
    <path id="Line_32" data-name="Line 32" d="M.5,44.905h-1v-2h1Zm0-4h-1v-2h1Zm0-4h-1v-2h1Zm0-4h-1v-2h1Zm0-4h-1v-2h1Zm0-4h-1v-2h1Zm0-4h-1v-2h1Zm0-4h-1v-2h1Zm0-4h-1v-2h1Zm0-4h-1v-2h1Zm0-4h-1v-2h1Zm0-4h-1V0h1Z" transform="translate(447.549 1883.788)" fill="#d6cdbf"/>
    <g id="Group_13" data-name="Group 13" transform="translate(455.764 1818.595)">
      <rect id="Rectangle_40" data-name="Rectangle 40" width="140.192" height="44.905" rx="21" fill="#d6cdbf"/>
      <text id="Chora" transform="translate(53.233 29.968)" font-size="23" font-family="Satoshi-Regular, Satoshi"><tspan x="0" y="0">Chora</tspan></text>
      <rect id="Rectangle_39" data-name="Rectangle 39" width="38.334" height="38.334" rx="19.167" transform="translate(2.191 3.286)" fill="#f7f5f2"/>
      <path id="building-columns" d="M0,5.053,8.984,0l8.984,5.053V6.738H0ZM0,17.968V16.283L2.246,14.6V7.861H4.492V14.6H5.9V7.861H8.142V14.6H9.826V7.861h2.246V14.6h1.4V7.861h2.246V14.6l2.246,1.684v1.684ZM8.984,5.053A1.123,1.123,0,1,0,7.861,3.93,1.123,1.123,0,0,0,8.984,5.053Z" transform="translate(12.361 13.457)" opacity="0.41"/>
    </g>
    <g id="Group_11" data-name="Group 11" transform="translate(357.191 1929.215)">
      <rect id="Rectangle_41" data-name="Rectangle 41" width="181.812" height="44.905" rx="21" transform="translate(0 0)" fill="#d6cdbf"/>
      <text id="Mylopotas" transform="translate(53.233 29.968)" font-size="23" font-family="Satoshi-Regular, Satoshi"><tspan x="0" y="0">Mylopotas</tspan></text>
      <rect id="Rectangle_42" data-name="Rectangle 42" width="38.334" height="38.334" rx="19.167" transform="translate(2.191 3.286)" fill="#f7f5f2"/>
      <path id="tree-palm" d="M3.64,3.033,5.05,5.38c-.152.133-.3.273-.455.425-3.007,3-2.146,6.434-.861,7.723L9.418,7.845a7.012,7.012,0,0,1,.368,1.79,21.773,21.773,0,0,1-1.24,8.2l-.493,1.573H13.2l.133-1.062a25.6,25.6,0,0,0-1.2-11.071h4.974L18.2,5.46l1.092,1.82h2.548c0-1.82-1.82-4.853-6.066-4.853a6.671,6.671,0,0,0-3.9,1.13C11.242,1.873,9.4,0,6.066,0,1.82,0,0,3.033,0,4.853H2.548Z" transform="translate(10.953 13.143)" opacity="0.41"/>
    </g>
    <g id="Group_12" data-name="Group 12" transform="translate(309 1757.261)">
      <rect id="Rectangle_43" data-name="Rectangle 43" width="162.097" height="44.905" rx="21" fill="#d6cdbf"/>
      <text id="The_port" data-name="The port" transform="translate(53.233 29.968)" font-size="23" font-family="Satoshi-Regular, Satoshi"><tspan x="0" y="0">The port</tspan></text>
      <rect id="Rectangle_44" data-name="Rectangle 44" width="38.334" height="38.334" rx="19.167" transform="translate(2.191 3.286)" fill="#f7f5f2"/>
      <path id="ship" d="M7.272,0h7.272V2.424H18.18V9.09L21.816,10.3l-5.1,4.67a4.954,4.954,0,0,1-.633.352,3.824,3.824,0,0,1-1.542.394A3.88,3.88,0,0,1,13,15.328a7.842,7.842,0,0,1-1.345-.852h0l-.75-.538-.7.508-.042.03h0a8.145,8.145,0,0,1-1.345.852,3.913,3.913,0,0,1-1.545.39,3.88,3.88,0,0,1-1.542-.39,4.71,4.71,0,0,1-.633-.352L0,10.3,3.636,9.09V2.424H7.272ZM6.06,8.283l4.848-1.617,4.848,1.617V4.848H6.06Zm4.257,10.393a7.494,7.494,0,0,1-3.045.716,7.494,7.494,0,0,1-3.045-.716c-.22-.1-.42-.2-.591-.292-.17.091-.367.193-.591.292A7.494,7.494,0,0,1,0,19.392V16.968a5.1,5.1,0,0,0,2.045-.5,9.1,9.1,0,0,0,1.515-.936l.08-.057.08.057a9.1,9.1,0,0,0,1.515.936,5.1,5.1,0,0,0,2.045.5,5.1,5.1,0,0,0,2.045-.5,9.1,9.1,0,0,0,1.515-.936l.08-.057.08.057a8.858,8.858,0,0,0,1.515.936,5.1,5.1,0,0,0,2.045.5,5.1,5.1,0,0,0,2.045-.5,9.1,9.1,0,0,0,1.515-.936l.08-.057.08.057a8.858,8.858,0,0,0,1.515.936,5.1,5.1,0,0,0,2.045.5v2.424a7.494,7.494,0,0,1-3.045-.716c-.22-.1-.42-.2-.591-.292-.17.091-.367.193-.591.292a7.494,7.494,0,0,1-3.045.716,7.494,7.494,0,0,1-3.045-.716c-.22-.1-.42-.2-.591-.292-.17.091-.367.193-.591.292Z" transform="translate(10.953 13.304)" opacity="0.41"/>
    </g>
    <circle id="Ellipse_5" data-name="Ellipse 5" cx="7.667" cy="7.667" r="7.667" transform="translate(362.667 1838.31)"/>
    <circle id="Ellipse_6" data-name="Ellipse 6" cx="7.667" cy="7.667" r="7.667" transform="translate(404.287 1832.833)"/>
    <circle id="Ellipse_7" data-name="Ellipse 7" cx="7.667" cy="7.667" r="7.667" transform="translate(440.43 1881.024)"/>
  </g>
</svg>
