<svg xmlns="http://www.w3.org/2000/svg" width="476.85" height="150.165" viewBox="0 0 476.85 150.165">
  <path id="Path_8" data-name="Path 8" d="M45.645-.6V0h-10.2V-.6h.34Q37.4-.6,37.4-1.7a.946.946,0,0,0-.085-.425l-7.14-19.72H10.8L3.825-2.21a1.184,1.184,0,0,0-.085.51.86.86,0,0,0,.638.893A4.139,4.139,0,0,0,5.7-.6V0H-1.53V-.6A5.743,5.743,0,0,0,.3-.893,1.91,1.91,0,0,0,1.53-2.125L9.01-23.2v-.34h.17L18.445-49.81a6.955,6.955,0,0,0,.425-1.7,1.01,1.01,0,0,0-.552-1.02,4.417,4.417,0,0,0-1.743-.255l-.085-.935h7.4L42.5-2.125A2.128,2.128,0,0,0,43.52-1.02,3.277,3.277,0,0,0,45.135-.6ZM29.58-23.545,20.4-48.96,11.39-23.545ZM61.285.765A15.193,15.193,0,0,1,55.25-.51a15.164,15.164,0,0,1-5.312-3.868,19.319,19.319,0,0,1-3.74-6.5,26.9,26.9,0,0,1-1.4-9.1,26.9,26.9,0,0,1,1.4-9.095,19.816,19.816,0,0,1,3.74-6.545,15.423,15.423,0,0,1,5.313-3.952,14.776,14.776,0,0,1,6.035-1.318,14.854,14.854,0,0,1,6.332,1.445A15.272,15.272,0,0,1,73.1-35.02V-49.385a5.364,5.364,0,0,0-.3-1.785q-.3-.85-1.658-.85H70.04v-1.02q1.105-.17,1.7-.3a9.031,9.031,0,0,1,1.064-.17q.469-.042.99-.085t1.3-.042q2.169,0,2.169,1.615V-5.1a16.549,16.549,0,0,0,.213,2.72Q77.69-1.1,78.71-1.105q.765,0,1.02-1.785,0-.255.34-.255a.376.376,0,0,1,.425.425A3.959,3.959,0,0,1,79.007-.085,4.109,4.109,0,0,1,76.755.6,2.891,2.891,0,0,1,74.884,0a4.059,4.059,0,0,1-1.131-1.4,5.845,5.845,0,0,1-.522-1.785A13.824,13.824,0,0,1,73.1-5.015,15.632,15.632,0,0,1,67.618-.68,14.854,14.854,0,0,1,61.285.765ZM61.37-.34a8.26,8.26,0,0,0,5.185-1.7,13.879,13.879,0,0,0,3.7-4.42,22.26,22.26,0,0,0,2.21-6.248,36.13,36.13,0,0,0,.723-7.267,35.393,35.393,0,0,0-.765-7.352,24.451,24.451,0,0,0-2.252-6.418,14.094,14.094,0,0,0-3.7-4.547,8.128,8.128,0,0,0-5.185-1.743,8.473,8.473,0,0,0-4.42,1.275,12.426,12.426,0,0,0-3.825,3.783,20.87,20.87,0,0,0-2.72,6.247,33.472,33.472,0,0,0-1.02,8.755,32.984,32.984,0,0,0,1.02,8.712,19.743,19.743,0,0,0,2.72,6.12A11.77,11.77,0,0,0,56.865-1.53a8.926,8.926,0,0,0,4.42,1.19ZM95.2.68A11.869,11.869,0,0,1,90.185-.337,12.2,12.2,0,0,1,86.4-3a11.206,11.206,0,0,1-2.38-3.769,12.027,12.027,0,0,1-.808-4.319,11.362,11.362,0,0,1,.723-3.981,10.818,10.818,0,0,1,2.252-3.6,13.557,13.557,0,0,1,3.868-2.838,17.214,17.214,0,0,1,5.568-1.609,31.251,31.251,0,0,1,3.315-.34q1.7-.085,3.4-.085l6.63.17q0-1.024,0-1.494a7.806,7.806,0,0,1,.042-.854,7.808,7.808,0,0,0,.043-.854V-27.9a18.545,18.545,0,0,0-.68-5.38,10.132,10.132,0,0,0-1.827-3.587,7.2,7.2,0,0,0-2.592-2.007,7.267,7.267,0,0,0-2.975-.641,8.3,8.3,0,0,0-5.27,1.879,6.623,6.623,0,0,0-2.635,4.783q-.17,2.562-1.1,3.417a3.367,3.367,0,0,1-2.04.94H89.5a3.24,3.24,0,0,1-2.338-.854,3.043,3.043,0,0,1-.893-2.307v-.17a6.514,6.514,0,0,1,1.36-3.673,11.74,11.74,0,0,1,3.273-2.947,18,18,0,0,1,4.5-1.964,18.106,18.106,0,0,1,5.058-.726,15.731,15.731,0,0,1,4.76.724,10.6,10.6,0,0,1,4.08,2.385,12.289,12.289,0,0,1,2.89,4.259,16.46,16.46,0,0,1,1.105,6.431V-5.108a16.615,16.615,0,0,0,.213,2.725q.212,1.278,1.317,1.278h.085q.68-.17.935-1.785,0-.255.425-.255t.425.34v.085a3.728,3.728,0,0,1-1.53,2.584,4.635,4.635,0,0,1-2.38.646,2.913,2.913,0,0,1-1.912-.595,4.546,4.546,0,0,1-1.147-1.4,6.021,6.021,0,0,1-.6-1.785,10.7,10.7,0,0,1-.17-1.828V-7.31q-1.105,1.53-2.21,2.975a12.093,12.093,0,0,1-2.592,2.507A13.222,13.222,0,0,1,100.64-.085,17.319,17.319,0,0,1,95.71.68Zm2.04-1.7a7.786,7.786,0,0,0,4.717-1.835,15.809,15.809,0,0,0,3.74-4.481,24.981,24.981,0,0,0,2.465-6.1,26.092,26.092,0,0,0,.893-6.7l-.085-1.537q-1.445-.085-2.933-.127t-2.933-.042q-1.7,0-3.23.086a25.22,25.22,0,0,0-2.975.341,9.454,9.454,0,0,0-6.545,3.713,10.947,10.947,0,0,0-2.04,6.358,12.241,12.241,0,0,0,.6,3.8,10.427,10.427,0,0,0,1.743,3.286,9.346,9.346,0,0,0,2.72,2.347,7.165,7.165,0,0,0,3.613.9Zm25.33-39.619q.51-.08.935-.12t.85-.041q2.295,0,2.295,1.7v5.61a14.436,14.436,0,0,1,4.633-5.143A12.757,12.757,0,0,1,138.04-40.8h.51a16.828,16.828,0,0,1,3.74.425,10.639,10.639,0,0,1,3.4,1.4,10.218,10.218,0,0,1,2.635,2.423,8.5,8.5,0,0,1,1.53,3.485l.51-1.02a14.77,14.77,0,0,1,4.505-4.675,12.454,12.454,0,0,1,6.46-2.04h.68a15.278,15.278,0,0,1,4.208.594,10.563,10.563,0,0,1,3.655,1.824,9.3,9.3,0,0,1,2.55,3.138,9.841,9.841,0,0,1,.977,4.538V-2.037a1.42,1.42,0,0,0,.467,1.1,1.645,1.645,0,0,0,1.148.424h.17V.085h-7.65V-.51h.17a1.643,1.643,0,0,0,1.147-.425,1.424,1.424,0,0,0,.468-1.1V-30.26a9.612,9.612,0,0,0-.723-3.868,7.458,7.458,0,0,0-1.955-2.72,8.057,8.057,0,0,0-2.805-1.572,10.541,10.541,0,0,0-3.272-.51h-.6a10.33,10.33,0,0,0-6.29,2.635,10.9,10.9,0,0,0-3.655,6.46v27.8a1.424,1.424,0,0,0,.467,1.1,1.643,1.643,0,0,0,1.148.425h.255V.085L144.16,0V-.51h.17a1.643,1.643,0,0,0,1.147-.425,1.424,1.424,0,0,0,.467-1.1V-30.26a9.612,9.612,0,0,0-.722-3.868,7.458,7.458,0,0,0-1.955-2.72,8.057,8.057,0,0,0-2.805-1.572,10.541,10.541,0,0,0-3.272-.51h-.6A10.279,10.279,0,0,0,132.43-37.7a10.8,10.8,0,0,0-3.315,2.763,10.8,10.8,0,0,0-2.465,5.27V-2.04a1.424,1.424,0,0,0,.467,1.1,1.643,1.643,0,0,0,1.148.425h.17V0h-7.65V-.51h.17A1.643,1.643,0,0,0,122.1-.935a1.424,1.424,0,0,0,.468-1.1V-36.72a5,5,0,0,0-.3-1.743q-.3-.808-1.658-.807H119.51v-.886ZM230.6-22.61a5.384,5.384,0,0,1-.255-1.53,2.845,2.845,0,0,1,.765-2.167,2.421,2.421,0,0,1,1.7-.722,2.9,2.9,0,0,1,2.167,1.063A5.34,5.34,0,0,1,236.13-22.7v1.19a25.793,25.793,0,0,1-1.062,6.927,20.757,20.757,0,0,1-3.57,7.055A20.36,20.36,0,0,1,224.91-2.04,21.228,21.228,0,0,1,214.71.17h-.255a20.937,20.937,0,0,1-8.2-1.657,17.963,17.963,0,0,1-5.908-4.123,16.928,16.928,0,0,1-3.57-5.823,19.387,19.387,0,0,1-1.19-6.673,19.86,19.86,0,0,1,.765-5.482,16.976,16.976,0,0,1,2.38-5.015,18.154,18.154,0,0,1,3.952-4.123,18.026,18.026,0,0,1,5.567-2.805,17.116,17.116,0,0,1-3.145-3.995,11.532,11.532,0,0,1-1.445-4.335,7.041,7.041,0,0,1-.085-1.275,7.779,7.779,0,0,1,3.06-6.417,12.734,12.734,0,0,1,7.65-2.592h.425a12.94,12.94,0,0,1,4.42.68,9,9,0,0,1,3.1,1.827A7.253,7.253,0,0,1,224.06-49a8.063,8.063,0,0,1,.595,3.017,8.544,8.544,0,0,1-1.02,3.995,9.941,9.941,0,0,1-2.975,3.4h-.425a2.434,2.434,0,0,1-2.082-.85,2.931,2.931,0,0,1-.638-1.785,1.464,1.464,0,0,1,.51-1.19,4.473,4.473,0,0,0,2.72-1.827,5.154,5.154,0,0,0,.85-2.847,4.84,4.84,0,0,0-.34-1.955,6.267,6.267,0,0,0-2.507-3.23,6.619,6.619,0,0,0-3.528-1.02,7.362,7.362,0,0,0-2.677.51,7.131,7.131,0,0,0-2.38,1.53,7.655,7.655,0,0,0-1.7,2.465,8.14,8.14,0,0,0-.638,3.315v.765a7.628,7.628,0,0,0,1.828,4.25,8.864,8.864,0,0,0,5.227,2.8,1.95,1.95,0,0,1,.893.382.825.825,0,0,1,.382.638q0,.51-1.19.765a15.743,15.743,0,0,0-5.738,2.21,15.872,15.872,0,0,0-4.208,3.91,17.578,17.578,0,0,0-2.592,5.015,17.617,17.617,0,0,0-.893,5.525v.425a17.482,17.482,0,0,0,1.488,7.14,14.565,14.565,0,0,0,3.613,4.888,14.13,14.13,0,0,0,5.015,2.805,18.678,18.678,0,0,0,5.695.892,18.422,18.422,0,0,0,5.525-.85,16.189,16.189,0,0,0,4.845-2.422,12.506,12.506,0,0,0,3.443-3.868,10.4,10.4,0,0,0,1.317-5.27A15.98,15.98,0,0,0,230.6-22.61Zm3.74-26.18a5.752,5.752,0,0,1,3.443,2.592,7.873,7.873,0,0,1,1.148,4.122,6.814,6.814,0,0,1-.255,1.955,12.74,12.74,0,0,1-2.55,4.717,51.563,51.563,0,0,1-4.59,4.93q-2.635,2.508-5.525,4.972t-5.355,4.76a36.5,36.5,0,0,0-4.037,4.335,6.266,6.266,0,0,0-1.573,3.655,2.681,2.681,0,0,0,.425,1.445,2.782,2.782,0,0,1,.17-.68,3.346,3.346,0,0,1,1.19-1.658,3.171,3.171,0,0,1,1.955-.637,2.388,2.388,0,0,1,.467.043,3.93,3.93,0,0,1,.467.127,3.439,3.439,0,0,1,1.742,1.148,2.872,2.872,0,0,1,.638,1.827,4.651,4.651,0,0,1-.17,1.02,2.884,2.884,0,0,1-1.02,1.657,4.082,4.082,0,0,1-1.53.637h-.68a3.927,3.927,0,0,1-3.783-1.955,10.829,10.829,0,0,1-1.232-4.505v-.425a9.344,9.344,0,0,1,1.785-5.27,33.841,33.841,0,0,1,4.505-5.27q2.72-2.635,5.822-5.1t5.823-4.76a44.894,44.894,0,0,0,4.5-4.292,5.8,5.8,0,0,0,1.785-3.7,2.75,2.75,0,0,0-1.19-2.21.652.652,0,0,0-.085.255.653.653,0,0,1-.085.255,3.346,3.346,0,0,1-1.19,1.657,3.171,3.171,0,0,1-1.955.638,2.388,2.388,0,0,1-.467-.043,3.928,3.928,0,0,1-.467-.127,3.439,3.439,0,0,1-1.743-1.147,2.872,2.872,0,0,1-.637-1.827,4.65,4.65,0,0,1,.17-1.02,3.346,3.346,0,0,1,1.19-1.658,3.171,3.171,0,0,1,1.955-.638,2.388,2.388,0,0,1,.467.043A3.928,3.928,0,0,1,234.345-48.79ZM302.26-18.105a1.02,1.02,0,0,1,1.02-.85q1.1,0,1.105.935v.17a39.067,39.067,0,0,1-3.018,7.608,21.9,21.9,0,0,1-4.505,5.908A19.608,19.608,0,0,1,290.53-.468a23.389,23.389,0,0,1-8.415,1.4,20,20,0,0,1-9.137-2.168A23.911,23.911,0,0,1,265.5-7.14,28.947,28.947,0,0,1,260.44-15.9a30.4,30.4,0,0,1-1.87-10.71,30.4,30.4,0,0,1,1.87-10.71A28.947,28.947,0,0,1,265.5-46.07a23.911,23.911,0,0,1,7.48-5.907,20,20,0,0,1,9.137-2.167,23.7,23.7,0,0,1,6.418.892,19.271,19.271,0,0,1,5.78,2.678,17.85,17.85,0,0,1,4.42,4.335,13.409,13.409,0,0,1,2.338,5.865.942.942,0,0,0,.042.3.941.941,0,0,1,.043.3,2.744,2.744,0,0,1-1.105,2.3,3.72,3.72,0,0,1-2.295.85,2.992,2.992,0,0,1-2-.765,3.081,3.081,0,0,1-.893-2.465,12.076,12.076,0,0,0-1.062-5.057,12.24,12.24,0,0,0-2.932-4.038,13.383,13.383,0,0,0-4.378-2.635,15.575,15.575,0,0,0-5.482-.935h-.893a4.543,4.543,0,0,0-.892.085,11.143,11.143,0,0,0-5.7,2.252,18.9,18.9,0,0,0-4.76,5.228,28.244,28.244,0,0,0-3.23,7.434,32.725,32.725,0,0,0-1.19,8.952v1.866a10.4,10.4,0,0,0,.17,1.866,37.545,37.545,0,0,0,2.3,9.412,27.96,27.96,0,0,0,4.292,7.5,19.755,19.755,0,0,0,5.865,4.961A14.281,14.281,0,0,0,283.9-1.19h.638a3.782,3.782,0,0,0,.723-.085,15.135,15.135,0,0,0,5.567-1.615,19.155,19.155,0,0,0,4.888-3.57,24.84,24.84,0,0,0,3.91-5.142A26.058,26.058,0,0,0,302.26-18.105Zm9.01-35.445q.51-.085,1.02-.127t.935-.042q2.125,0,2.125,1.615v18.53a14.251,14.251,0,0,1,4.547-5.1,12.553,12.553,0,0,1,6.758-2.21h.68a15.246,15.246,0,0,1,4.207.595,11,11,0,0,1,3.655,1.785,8.8,8.8,0,0,1,2.55,3.145,10.145,10.145,0,0,1,.978,4.59V-2.04a1.424,1.424,0,0,0,.467,1.1,1.643,1.643,0,0,0,1.147.425h.17V0h-7.65V-.6h.34a1.356,1.356,0,0,0,1.063-.425,1.472,1.472,0,0,0,.383-1.02V-30.345a9.308,9.308,0,0,0-.723-3.825,7.968,7.968,0,0,0-1.955-2.72,7.729,7.729,0,0,0-2.8-1.615,10.541,10.541,0,0,0-3.272-.51h-.6a9.181,9.181,0,0,0-3.315.808,11.259,11.259,0,0,0-2.975,1.955,12.3,12.3,0,0,0-2.337,2.89,10.635,10.635,0,0,0-1.318,3.612V-2.04a1.3,1.3,0,0,0,.467,1.062,1.753,1.753,0,0,0,1.147.383h.17V0h-7.65V-.6h.17A1.643,1.643,0,0,0,310.8-1.02a1.331,1.331,0,0,0,.467-1.02v-47.6a5,5,0,0,0-.3-1.743q-.3-.807-1.658-.807H308.21v-.935ZM350.625-5.525a15.04,15.04,0,0,0,.212,2.635q.213,1.19,1.148,1.19h.17q.68,0,.935-1.7,0-.255.34-.255.425,0,.425.34v.085a4.185,4.185,0,0,1-1.36,2.55A3.522,3.522,0,0,1,350.37,0h-.255a2.922,2.922,0,0,1-1.828-.553,3.589,3.589,0,0,1-1.105-1.4,6.451,6.451,0,0,1-.51-1.785,12.68,12.68,0,0,1-.128-1.7v-44.8a4.759,4.759,0,0,0-.3-1.658q-.3-.808-1.658-.807h-1.1v-1.02l3.06-.425q.51-.085.935-.128t.85-.043q2.295,0,2.295,1.615ZM374.807-40.8a16.019,16.019,0,0,1,7.123,1.615,18.253,18.253,0,0,1,5.767,4.42,21.5,21.5,0,0,1,3.9,6.587,22.6,22.6,0,0,1,1.442,8.118,22.6,22.6,0,0,1-1.442,8.118,21.5,21.5,0,0,1-3.9,6.588,18.253,18.253,0,0,1-5.767,4.42A16.019,16.019,0,0,1,374.807.68a15.834,15.834,0,0,1-7.038-1.615A18.253,18.253,0,0,1,362-5.355a21.5,21.5,0,0,1-3.9-6.588,22.6,22.6,0,0,1-1.442-8.118,22.6,22.6,0,0,1,1.442-8.118,21.5,21.5,0,0,1,3.9-6.587,18.253,18.253,0,0,1,5.767-4.42A15.834,15.834,0,0,1,374.807-40.8Zm13.9,19.04a25.333,25.333,0,0,0-1.961-7.055,23.8,23.8,0,0,0-3.5-5.653,15.626,15.626,0,0,0-4.6-3.782,11.124,11.124,0,0,0-5.286-1.36H372.8a2.654,2.654,0,0,0-.639.085,10.474,10.474,0,0,0-4.646,1.785,13.085,13.085,0,0,0-3.581,3.783,19.99,19.99,0,0,0-2.345,5.355,23.5,23.5,0,0,0-.853,6.417,28.284,28.284,0,0,0,.255,3.825,25.333,25.333,0,0,0,1.961,7.055,23.8,23.8,0,0,0,3.5,5.653,15.626,15.626,0,0,0,4.6,3.783,11.124,11.124,0,0,0,5.286,1.36h.555a2.654,2.654,0,0,0,.639-.085,10.474,10.474,0,0,0,4.646-1.785,13.084,13.084,0,0,0,3.581-3.783,19.99,19.99,0,0,0,2.345-5.355,23.826,23.826,0,0,0,.853-6.5A28.954,28.954,0,0,0,388.705-21.76ZM415.225.765a15.639,15.639,0,0,1-7.607-1.785A16.274,16.274,0,0,1,402.2-5.738a20.565,20.565,0,0,1-3.187-6.63,27.914,27.914,0,0,1-1.042-7.608,27.812,27.812,0,0,1,1.083-7.693,21.076,21.076,0,0,1,3.23-6.715,16.733,16.733,0,0,1,5.419-4.76,15.345,15.345,0,0,1,7.608-1.827,12.453,12.453,0,0,1,7.14,1.955,15.7,15.7,0,0,1,4.675,4.888A22.685,22.685,0,0,1,429.76-27.8a34.5,34.5,0,0,1,1.02,6.375l-28.56-.085a29.765,29.765,0,0,0,.935,6.078,27.062,27.062,0,0,0,2.55,6.545,17.854,17.854,0,0,0,4.335,5.27A10.209,10.209,0,0,0,416.5-1.36a11.833,11.833,0,0,0,6.2-2,18.738,18.738,0,0,0,5.95-6.588q.085-.255.6-.255a1.638,1.638,0,0,1,.807.213.628.628,0,0,1,.382.552v.085a23.272,23.272,0,0,1-6.8,7.778A15.013,15.013,0,0,1,415.225.765ZM425.85-23.29a21.369,21.369,0,0,0-1.742-6.587,17.509,17.509,0,0,0-3.187-4.8,12.687,12.687,0,0,0-4.122-2.933,11.143,11.143,0,0,0-4.462-.978,9.061,9.061,0,0,0-3.867.85,9.61,9.61,0,0,0-3.273,2.55,12.665,12.665,0,0,0-2.295,4.25,19.143,19.143,0,0,0-.85,6.035l.085,1.615Zm11.22-28.645a1.411,1.411,0,0,1,.638-1.318,2.528,2.528,0,0,1,1.317-.382,2.46,2.46,0,0,1,1.36.382,1.444,1.444,0,0,1,.6,1.318v1.53l-1.19,6.46h-1.615l-1.105-6.46Zm24.691,11.22a20.868,20.868,0,0,1,4.195.425,16.65,16.65,0,0,1,3.856,1.275,10.982,10.982,0,0,1,3.178,2.3,9.945,9.945,0,0,1,2.161,3.485,5.113,5.113,0,0,1,.17.85,1.874,1.874,0,0,1-.847,1.615,3.171,3.171,0,0,1-1.864.6,3.008,3.008,0,0,1-1.736-.553,2.4,2.4,0,0,1-.974-1.742,7.38,7.38,0,0,0-1.185-3.23,8.789,8.789,0,0,0-2.2-2.253,9.74,9.74,0,0,0-2.838-1.36,11.054,11.054,0,0,0-3.176-.467,9.562,9.562,0,0,0-3.049.51,10.091,10.091,0,0,0-2.753,1.4,7.718,7.718,0,0,0-1.99,2.082,4.643,4.643,0,0,0-.762,2.55v.085a5.442,5.442,0,0,0,.8,2.805,13.291,13.291,0,0,0,2.2,2.72,29.673,29.673,0,0,0,3.134,2.635q1.736,1.275,3.684,2.635,2.286,1.53,4.615,3.188a44.493,44.493,0,0,1,4.192,3.358,17.664,17.664,0,0,1,3.049,3.57,7.2,7.2,0,0,1,1.185,3.91v.17a7.143,7.143,0,0,1-1.229,3.867,9.581,9.581,0,0,1-2.966,2.762A14.277,14.277,0,0,1,466.421.127a25.357,25.357,0,0,1-4.915.638h-.339A20.858,20.858,0,0,1,456.973.34a14.482,14.482,0,0,1-3.855-1.36,12.465,12.465,0,0,1-3.178-2.38,10.113,10.113,0,0,1-2.161-3.4,5.113,5.113,0,0,1-.17-.85,1.871,1.871,0,0,1,.85-1.615,3.19,3.19,0,0,1,1.87-.6,3.026,3.026,0,0,1,1.742.552,2.4,2.4,0,0,1,.978,1.743,7.47,7.47,0,0,0,3.188,5.355A11.281,11.281,0,0,0,461.89-.34h.68a11.577,11.577,0,0,0,2.975-.383,9.3,9.3,0,0,0,2.592-1.105,5.99,5.99,0,0,0,1.828-1.743,4.741,4.741,0,0,0,.765-2.38v-.425a6.832,6.832,0,0,0-.978-3.527,14.179,14.179,0,0,0-2.635-3.188,28.355,28.355,0,0,0-3.74-2.89q-2.083-1.36-4.207-2.805-2.125-1.36-4.165-2.762a27.521,27.521,0,0,1-3.612-2.933,14.854,14.854,0,0,1-2.55-3.23,7.37,7.37,0,0,1-.977-3.74v-.34a6.767,6.767,0,0,1,1.229-3.613A10.369,10.369,0,0,1,452.1-38.25a15.028,15.028,0,0,1,4.279-1.827,19.334,19.334,0,0,1,4.957-.638ZM63.5,26.15a2.711,2.711,0,0,1,1.02-2.252,3.489,3.489,0,0,1,2.21-.808,2.931,2.931,0,0,1,1.955.722,2.687,2.687,0,0,1,.85,2.167v.34a14.521,14.521,0,0,1-.425,2.252A19.212,19.212,0,0,1,68,31.59q-.425,1.19-.892,2.422t-.893,2.507q-3.655,10.115-7.4,20.74T51.51,78H47.345L36.38,47.655q-2.72,7.65-5.44,15.257T25.67,78H21.505L2.89,26.49a1.905,1.905,0,0,0-.935-1.148,3.2,3.2,0,0,0-1.7-.467H-.17v-.6h10.2v.6H9.69q-1.615,0-1.615,1.19a.946.946,0,0,0,.085.425q4.335,11.73,8.5,23.418t8.415,23.5L35.275,44.6,28.73,26.49a1.905,1.905,0,0,0-.935-1.148,3.2,3.2,0,0,0-1.7-.467H25.67v-.6h10.2v.6h-.34q-1.615,0-1.615,1.19A.946.946,0,0,0,34,26.49L49.64,69.755l1.275,3.655,13.09-36.89a17.74,17.74,0,0,0,.6-4.25,8.649,8.649,0,0,0-.51-3.315,7.347,7.347,0,0,1-.6-2.38ZM85,78.765a15.639,15.639,0,0,1-7.607-1.785,16.274,16.274,0,0,1-5.418-4.718,20.565,20.565,0,0,1-3.187-6.63,28.074,28.074,0,0,1,.041-15.3,21.076,21.076,0,0,1,3.23-6.715,16.733,16.733,0,0,1,5.419-4.76,15.345,15.345,0,0,1,7.607-1.827,12.454,12.454,0,0,1,7.14,1.955A15.7,15.7,0,0,1,96.9,43.872,22.685,22.685,0,0,1,99.535,50.2a34.505,34.505,0,0,1,1.02,6.375l-28.56-.085a29.765,29.765,0,0,0,.935,6.078,27.063,27.063,0,0,0,2.55,6.545,17.854,17.854,0,0,0,4.335,5.27,10.209,10.209,0,0,0,6.46,2.253,11.832,11.832,0,0,0,6.205-2,18.739,18.739,0,0,0,5.95-6.588q.085-.255.6-.255a1.639,1.639,0,0,1,.808.212.628.628,0,0,1,.382.553v.085a23.272,23.272,0,0,1-6.8,7.777A15.013,15.013,0,0,1,85,78.765ZM95.625,54.71a21.369,21.369,0,0,0-1.743-6.588,17.51,17.51,0,0,0-3.187-4.8,12.687,12.687,0,0,0-4.123-2.933,11.143,11.143,0,0,0-4.462-.978,9.061,9.061,0,0,0-3.868.85,9.61,9.61,0,0,0-3.272,2.55,12.665,12.665,0,0,0-2.3,4.25,19.144,19.144,0,0,0-.85,6.035l.085,1.615ZM121.38,78.765a15.24,15.24,0,0,1-11.348-5.143,19.319,19.319,0,0,1-3.74-6.5,26.9,26.9,0,0,1-1.4-9.1,26.9,26.9,0,0,1,1.4-9.1,19.816,19.816,0,0,1,3.74-6.545,15.423,15.423,0,0,1,5.313-3.952,14.541,14.541,0,0,1,12.368.127,15.272,15.272,0,0,1,5.483,4.42V28.615a5.364,5.364,0,0,0-.3-1.785q-.3-.85-1.658-.85h-1.1V24.96q1.1-.17,1.7-.3a9.032,9.032,0,0,1,1.064-.17q.47-.042.99-.085t1.3-.042q2.169,0,2.169,1.615V72.9a16.548,16.548,0,0,0,.213,2.72q.212,1.275,1.232,1.275.765,0,1.02-1.785,0-.255.34-.255a.376.376,0,0,1,.425.425,3.959,3.959,0,0,1-1.487,2.635,4.109,4.109,0,0,1-2.253.68,2.891,2.891,0,0,1-1.871-.6,4.059,4.059,0,0,1-1.131-1.4,5.845,5.845,0,0,1-.522-1.785,13.825,13.825,0,0,1-.131-1.827,15.633,15.633,0,0,1-5.483,4.335A14.854,14.854,0,0,1,121.38,78.765Zm.085-1.1a8.26,8.26,0,0,0,5.185-1.7,13.879,13.879,0,0,0,3.7-4.42,22.261,22.261,0,0,0,2.21-6.248,36.129,36.129,0,0,0,.723-7.267,35.393,35.393,0,0,0-.765-7.353,24.451,24.451,0,0,0-2.253-6.418,14.094,14.094,0,0,0-3.7-4.547,8.128,8.128,0,0,0-5.185-1.743,8.473,8.473,0,0,0-4.42,1.275,12.426,12.426,0,0,0-3.825,3.783,20.87,20.87,0,0,0-2.72,6.247,33.472,33.472,0,0,0-1.02,8.755,32.984,32.984,0,0,0,1.02,8.713,19.743,19.743,0,0,0,2.72,6.12,11.77,11.77,0,0,0,3.825,3.613,8.926,8.926,0,0,0,4.42,1.19Zm39.1,1.1a15.24,15.24,0,0,1-11.348-5.143,19.319,19.319,0,0,1-3.74-6.5,26.9,26.9,0,0,1-1.4-9.1,26.9,26.9,0,0,1,1.4-9.1,19.817,19.817,0,0,1,3.74-6.545,15.423,15.423,0,0,1,5.313-3.952,14.541,14.541,0,0,1,12.367.127,15.272,15.272,0,0,1,5.483,4.42V28.615a5.364,5.364,0,0,0-.3-1.785q-.3-.85-1.658-.85h-1.1V24.96q1.1-.17,1.7-.3a9.032,9.032,0,0,1,1.064-.17q.47-.042.99-.085t1.3-.042q2.169,0,2.169,1.615V72.9a16.548,16.548,0,0,0,.213,2.72q.212,1.275,1.232,1.275.765,0,1.02-1.785,0-.255.34-.255a.376.376,0,0,1,.425.425,3.959,3.959,0,0,1-1.487,2.635,4.109,4.109,0,0,1-2.253.68,2.891,2.891,0,0,1-1.871-.6,4.059,4.059,0,0,1-1.131-1.4,5.845,5.845,0,0,1-.522-1.785,13.825,13.825,0,0,1-.131-1.827A15.633,15.633,0,0,1,166.9,77.32,14.854,14.854,0,0,1,160.565,78.765Zm.085-1.1a8.26,8.26,0,0,0,5.185-1.7,13.879,13.879,0,0,0,3.7-4.42,22.261,22.261,0,0,0,2.21-6.248,36.129,36.129,0,0,0,.723-7.267,35.393,35.393,0,0,0-.765-7.353,24.451,24.451,0,0,0-2.253-6.418,14.094,14.094,0,0,0-3.7-4.547,8.128,8.128,0,0,0-5.185-1.743,8.473,8.473,0,0,0-4.42,1.275,12.426,12.426,0,0,0-3.825,3.783,20.869,20.869,0,0,0-2.72,6.247,33.471,33.471,0,0,0-1.02,8.755,32.984,32.984,0,0,0,1.02,8.713,19.742,19.742,0,0,0,2.72,6.12,11.77,11.77,0,0,0,3.825,3.613,8.926,8.926,0,0,0,4.42,1.19Zm32.3-48.96a2.346,2.346,0,0,1-.808,1.827,2.942,2.942,0,0,1-3.91-.042,2.377,2.377,0,0,1,0-3.57,2.793,2.793,0,0,1,2-.765,2.687,2.687,0,0,1,1.912.765A2.386,2.386,0,0,1,192.95,28.7Zm-.68,43.18v1.19a10.676,10.676,0,0,0,.213,2.253q.212.977,1.063.978h.17q.68,0,.935-1.7,0-.255.34-.255.51,0,.51.425a4.185,4.185,0,0,1-1.36,2.55,3.522,3.522,0,0,1-2.125.68h-.255a2.922,2.922,0,0,1-1.827-.552,3.589,3.589,0,0,1-1.1-1.4,6.45,6.45,0,0,1-.51-1.785,12.677,12.677,0,0,1-.128-1.7l.17-31.195V40.43a3.646,3.646,0,0,0-.34-1.572q-.34-.722-1.615-.722H185.3v-1.02l3.06-.51q.51-.085.935-.128t.85-.042q2.295,0,2.295,1.615Zm10.115-34.519q.51-.08.935-.12t.85-.041q2.295,0,2.295,1.7v5.61a14.251,14.251,0,0,1,4.548-5.1,12.682,12.682,0,0,1,6.842-2.21h.68a14.831,14.831,0,0,1,4.165.594,10.611,10.611,0,0,1,3.612,1.824,9.3,9.3,0,0,1,2.55,3.138,9.841,9.841,0,0,1,.978,4.538V75.963a1.42,1.42,0,0,0,.467,1.1,1.645,1.645,0,0,0,1.148.424h.255V78h-7.735v-.51h.17a1.643,1.643,0,0,0,1.148-.425,1.424,1.424,0,0,0,.467-1.105V47.74a9.612,9.612,0,0,0-.723-3.868,7.458,7.458,0,0,0-1.955-2.72,8.058,8.058,0,0,0-2.8-1.572,10.541,10.541,0,0,0-3.273-.51h-.6a9.181,9.181,0,0,0-3.315.808,11.841,11.841,0,0,0-2.975,1.912,11.529,11.529,0,0,0-2.338,2.848,10.636,10.636,0,0,0-1.317,3.612V75.96a1.424,1.424,0,0,0,.467,1.105,1.643,1.643,0,0,0,1.147.425h.17V78H200.6v-.51h.17a1.643,1.643,0,0,0,1.148-.425,1.424,1.424,0,0,0,.467-1.105V41.28a5,5,0,0,0-.3-1.743q-.3-.808-1.658-.807h-1.1v-.886Zm50.192-.246a18.443,18.443,0,0,1,7.546,1.615,14.005,14.005,0,0,1,.849-1.913,17.07,17.07,0,0,1,1.442-2.295,9.1,9.1,0,0,1,2.035-2,5.564,5.564,0,0,1,2.629-1.02h.339a2.64,2.64,0,0,1,2.077.723,2.334,2.334,0,0,1,.636,1.572,1.424,1.424,0,0,1-.51,1.275,3.562,3.562,0,0,1-2.082.807q-1.317.128-2.678.34a10.6,10.6,0,0,0-2.55.722,3.135,3.135,0,0,0-1.7,2.04,17.819,17.819,0,0,1,6.843,6.205,16.045,16.045,0,0,1,2.592,8.925,16.525,16.525,0,0,1-1.351,6.673,16.767,16.767,0,0,1-3.717,5.4,17.594,17.594,0,0,1-12.332,4.93,16.952,16.952,0,0,1-4.308-.552,20.146,20.146,0,0,1-3.97-1.488,8.737,8.737,0,0,0-.887,1.785,5.6,5.6,0,0,0-.38,1.955,3.219,3.219,0,0,0,.507,1.743,3.162,3.162,0,0,0,1.69,1.232,6.632,6.632,0,0,0,1.6.17,51.347,51.347,0,0,0,5.153-.34,61.708,61.708,0,0,1,6.5-.34,33.138,33.138,0,0,1,4.139.255,11.822,11.822,0,0,1,3.632,1.02,7.7,7.7,0,0,1,2.661,2.04,5.81,5.81,0,0,1,1.225,3.315v.85a9.308,9.308,0,0,1-1.738,5.567,14.879,14.879,0,0,1-4.494,4.08,23.218,23.218,0,0,1-6.232,2.55,27.537,27.537,0,0,1-6.867.892,24.374,24.374,0,0,1-5.045-.51,15.965,15.965,0,0,1-4.367-1.572,11.373,11.373,0,0,1-3.307-2.677,8.674,8.674,0,0,1-1.908-4.76q-.043-.51-.042-.935a8.1,8.1,0,0,1,1.1-4.123,7.475,7.475,0,0,1,3.57-3.018l.34.51a4.8,4.8,0,0,0-2.125,1.53,3.4,3.4,0,0,0-.68,2.04,6.2,6.2,0,0,0,1.275,3.528,13.409,13.409,0,0,0,3.527,3.357,21.7,21.7,0,0,0,5.27,2.55,20.179,20.179,0,0,0,6.5,1.02h.935a6.2,6.2,0,0,0,1.02-.085,12.479,12.479,0,0,0,6.29-2.295,6.41,6.41,0,0,0,2.465-5.44q0-.425-.042-.85t-.128-.935q-.677-3.57-3.346-4.675a16.94,16.94,0,0,0-6.481-1.105q-2.2,0-4.575.17t-4.914.255h-.507q-3.389,0-4.575-1.573a5.713,5.713,0,0,1-1.186-3.528,10.286,10.286,0,0,1,.467-3.1,8.389,8.389,0,0,1,1.147-2.423,17.959,17.959,0,0,1-4.644-5.738,15.8,15.8,0,0,1-1.731-7.353,16.262,16.262,0,0,1,1.357-6.587,16.77,16.77,0,0,1,3.731-5.4,18.206,18.206,0,0,1,5.554-3.655A16.964,16.964,0,0,1,252.577,37.115ZM265.2,52.755a18.307,18.307,0,0,0-1.737-5.695,17.871,17.871,0,0,0-3.177-4.548,14.506,14.506,0,0,0-4.194-3.017,11.053,11.053,0,0,0-4.787-1.1,3.078,3.078,0,0,0-.508.042,3.078,3.078,0,0,1-.508.042A9.885,9.885,0,0,0,246.1,39.92a11.565,11.565,0,0,0-3.262,3.06,14.845,14.845,0,0,0-2.118,4.293,17.034,17.034,0,0,0-.762,5.142,18.583,18.583,0,0,0,.255,3.06,18.308,18.308,0,0,0,1.737,5.695,17.872,17.872,0,0,0,3.177,4.548,14.711,14.711,0,0,0,4.151,3.018,10.781,10.781,0,0,0,4.744,1.1,3.9,3.9,0,0,0,.551-.042,3.9,3.9,0,0,1,.551-.043,9.885,9.885,0,0,0,4.194-1.445,11.565,11.565,0,0,0,3.262-3.06,14.846,14.846,0,0,0,2.118-4.293,17.035,17.035,0,0,0,.762-5.142A18.585,18.585,0,0,0,265.2,52.755Z" transform="translate(1.53 54.315)" fill="#fff"/>
</svg>
