<svg id="Group_12" data-name="Group 12" xmlns="http://www.w3.org/2000/svg" width="162.097" height="44.905" viewBox="0 0 162.097 44.905">
  <rect id="Rectangle_43" data-name="Rectangle 43" width="162.097" height="44.905" rx="21" fill="#d6cdbf"/>
  <text id="The_port" data-name="The port" transform="translate(53.233 29.968)" font-size="23" font-family="Satoshi-Regular, Satoshi"><tspan x="0" y="0">The port</tspan></text>
  <rect id="Rectangle_44" data-name="Rectangle 44" width="38.334" height="38.334" rx="19.167" transform="translate(2.191 3.286)" fill="#f7f5f2"/>
  <path id="ship" d="M7.272,0h7.272V2.424H18.18V9.09L21.816,10.3l-5.1,4.67a4.954,4.954,0,0,1-.633.352,3.824,3.824,0,0,1-1.542.394A3.88,3.88,0,0,1,13,15.328a7.842,7.842,0,0,1-1.345-.852h0l-.75-.538-.7.508-.042.03h0a8.145,8.145,0,0,1-1.345.852,3.913,3.913,0,0,1-1.545.39,3.88,3.88,0,0,1-1.542-.39,4.71,4.71,0,0,1-.633-.352L0,10.3,3.636,9.09V2.424H7.272ZM6.06,8.283l4.848-1.617,4.848,1.617V4.848H6.06Zm4.257,10.393a7.494,7.494,0,0,1-3.045.716,7.494,7.494,0,0,1-3.045-.716c-.22-.1-.42-.2-.591-.292-.17.091-.367.193-.591.292A7.494,7.494,0,0,1,0,19.392V16.968a5.1,5.1,0,0,0,2.045-.5,9.1,9.1,0,0,0,1.515-.936l.08-.057.08.057a9.1,9.1,0,0,0,1.515.936,5.1,5.1,0,0,0,2.045.5,5.1,5.1,0,0,0,2.045-.5,9.1,9.1,0,0,0,1.515-.936l.08-.057.08.057a8.858,8.858,0,0,0,1.515.936,5.1,5.1,0,0,0,2.045.5,5.1,5.1,0,0,0,2.045-.5,9.1,9.1,0,0,0,1.515-.936l.08-.057.08.057a8.858,8.858,0,0,0,1.515.936,5.1,5.1,0,0,0,2.045.5v2.424a7.494,7.494,0,0,1-3.045-.716c-.22-.1-.42-.2-.591-.292-.17.091-.367.193-.591.292a7.494,7.494,0,0,1-3.045.716,7.494,7.494,0,0,1-3.045-.716c-.22-.1-.42-.2-.591-.292-.17.091-.367.193-.591.292Z" transform="translate(10.953 13.304)" opacity="0.41"/>
</svg>
