<svg id="Group_11" data-name="Group 11" xmlns="http://www.w3.org/2000/svg" width="181.812" height="44.905" viewBox="0 0 181.812 44.905">
  <rect id="Rectangle_41" data-name="Rectangle 41" width="181.812" height="44.905" rx="21" transform="translate(0 0)" fill="#d6cdbf"/>
  <text id="Mylopotas" transform="translate(53.233 29.968)" font-size="23" font-family="Satoshi-Regular, Satoshi"><tspan x="0" y="0">Mylopotas</tspan></text>
  <rect id="Rectangle_42" data-name="Rectangle 42" width="38.334" height="38.334" rx="19.167" transform="translate(2.191 3.286)" fill="#f7f5f2"/>
  <path id="tree-palm" d="M3.64,3.033,5.05,5.38c-.152.133-.3.273-.455.425-3.007,3-2.146,6.434-.861,7.723L9.418,7.845a7.012,7.012,0,0,1,.368,1.79,21.773,21.773,0,0,1-1.24,8.2l-.493,1.573H13.2l.133-1.062a25.6,25.6,0,0,0-1.2-11.071h4.974L18.2,5.46l1.092,1.82h2.548c0-1.82-1.82-4.853-6.066-4.853a6.671,6.671,0,0,0-3.9,1.13C11.242,1.873,9.4,0,6.066,0,1.82,0,0,3.033,0,4.853H2.548Z" transform="translate(10.953 13.143)" opacity="0.41"/>
</svg>
