<svg id="Group_13" data-name="Group 13" xmlns="http://www.w3.org/2000/svg" width="140.192" height="44.905" viewBox="0 0 140.192 44.905">
  <rect id="Rectangle_40" data-name="Rectangle 40" width="140.192" height="44.905" rx="21" fill="#d6cdbf"/>
  <text id="Chora" transform="translate(53.233 29.968)" font-size="23" font-family="Satoshi-Regular, Satoshi"><tspan x="0" y="0">Chora</tspan></text>
  <rect id="Rectangle_39" data-name="Rectangle 39" width="38.334" height="38.334" rx="19.167" transform="translate(2.191 3.286)" fill="#f7f5f2"/>
  <path id="building-columns" d="M0,5.053,8.984,0l8.984,5.053V6.738H0ZM0,17.968V16.283L2.246,14.6V7.861H4.492V14.6H5.9V7.861H8.142V14.6H9.826V7.861h2.246V14.6h1.4V7.861h2.246V14.6l2.246,1.684v1.684ZM8.984,5.053A1.123,1.123,0,1,0,7.861,3.93,1.123,1.123,0,0,0,8.984,5.053Z" transform="translate(12.361 13.457)" opacity="0.41"/>
</svg>
